<?xml version="1.0" encoding="UTF-8" standalone="no"?>
<svg
   version="1.1"
   viewBox="0 0 833 253"
   fill="none"
   stroke="none"
   stroke-linecap="square"
   stroke-miterlimit="10"
   id="svg39"
   sodipodi:docname="actors.svg"
   width="833"
   height="253"
   inkscape:version="1.1.2 (0a00cf5339, 2022-02-04)"
   xmlns:inkscape="http://www.inkscape.org/namespaces/inkscape"
   xmlns:sodipodi="http://sodipodi.sourceforge.net/DTD/sodipodi-0.dtd"
   xmlns="http://www.w3.org/2000/svg"
   xmlns:svg="http://www.w3.org/2000/svg">
  <defs
     id="defs43" />
  <sodipodi:namedview
     id="namedview41"
     pagecolor="#ffffff"
     bordercolor="#000000"
     borderopacity="0.25"
     inkscape:showpageshadow="2"
     inkscape:pageopacity="0.0"
     inkscape:pagecheckerboard="0"
     inkscape:deskcolor="#d1d1d1"
     showgrid="false"
     inkscape:zoom="0.95843375"
     inkscape:cx="382.39471"
     inkscape:cy="206.06536"
     inkscape:window-width="1920"
     inkscape:window-height="962"
     inkscape:window-x="1920"
     inkscape:window-y="27"
     inkscape:window-maximized="1"
     inkscape:current-layer="g37"
     inkscape:pageshadow="0" />
  <clipPath
     id="p.0">
    <path
       d="M 0,0 H 1024 V 768 H 0 Z"
       clip-rule="nonzero"
       id="path2" />
  </clipPath>
  <g
     clip-path="url(#p.0)"
     id="g37">
    <path
       fill="#000000"
       fill-opacity="0"
       d="M 0,0 H 1024 V 768 H 0 Z"
       fill-rule="evenodd"
       id="path5" />
    <path
       fill="#aab147"
       d="M 0.06811821,144.56688 H 161.09269 V 253.08572 H 0.06811821 Z"
       fill-rule="evenodd"
       id="path7" />
    <path
       fill="#ffffff"
       d="m 18.326405,191.28755 q 2.953125,0 4.296875,1.26562 1.359375,1.26563 1.359375,3.46875 0,1 -0.3125,1.92188 -0.296875,0.90625 -0.984375,1.625 -0.671875,0.70312 -1.8125,1.10937 -1.125,0.40625 -2.796875,0.40625 H 16.68578 v 5.42188 h -3.218751 v -15.21875 z m -0.171875,2.64062 h -1.46875 v 4.51563 h 1.0625 q 0.90625,0 1.578125,-0.23438 0.671875,-0.25 1.03125,-0.75 0.359375,-0.51562 0.359375,-1.3125 0,-1.125 -0.625,-1.67187 -0.625,-0.54688 -1.9375,-0.54688 z m 13.220688,0.70313 q 2.34375,0 3.59375,1.01562 1.25,1.01563 1.25,3.09375 v 7.76563 h -2.21875 l -0.609375,-1.57813 h -0.09375 q -0.5,0.625 -1.015625,1.01563 -0.515625,0.39062 -1.203125,0.57812 -0.671875,0.1875 -1.640625,0.1875 -1.03125,0 -1.859375,-0.39062 -0.8125,-0.39063 -1.28125,-1.20313 -0.46875,-0.82812 -0.46875,-2.09375 0,-1.84375 1.296875,-2.71875 1.3125,-0.89062 3.921875,-0.98437 l 2.015625,-0.0625 v -0.51563 q 0,-0.90625 -0.484375,-1.32812 -0.46875,-0.4375 -1.328125,-0.4375 -0.84375,0 -1.65625,0.25 -0.8125,0.23437 -1.625,0.59375 l -1.046875,-2.14063 q 0.921875,-0.48437 2.0625,-0.76562 1.15625,-0.28125 2.390625,-0.28125 z m 1.6875,6.48437 -1.234375,0.0312 q -1.53125,0.0469 -2.140625,0.5625 -0.59375,0.5 -0.59375,1.34375 0,0.71875 0.421875,1.03125 0.4375,0.3125 1.125,0.3125 1.015625,0 1.71875,-0.60937 0.703125,-0.60938 0.703125,-1.71875 z m 14.554153,1.9375 q 0,1.1875 -0.5625,2 -0.5625,0.8125 -1.671875,1.23438 -1.09375,0.42187 -2.734375,0.42187 -1.21875,0 -2.09375,-0.15625 -0.875,-0.15625 -1.75,-0.51562 v -2.625 q 0.9375,0.42187 2.03125,0.70312 1.09375,0.28125 1.90625,0.28125 0.9375,0 1.328125,-0.28125 0.40625,-0.28125 0.40625,-0.71875 0,-0.29687 -0.171875,-0.53125 -0.15625,-0.23437 -0.6875,-0.53125 -0.53125,-0.29687 -1.65625,-0.78125 -1.09375,-0.45312 -1.796875,-0.92187 -0.703125,-0.46875 -1.046875,-1.10938 -0.34375,-0.64062 -0.34375,-1.625 0,-1.625 1.25,-2.4375 1.265625,-0.8125 3.375,-0.8125 1.078125,0 2.0625,0.21875 0.984375,0.21875 2.03125,0.70313 l -0.96875,2.28125 q -0.859375,-0.375 -1.625,-0.60938 -0.765625,-0.25 -1.5625,-0.25 -0.6875,0 -1.046875,0.1875 -0.359375,0.1875 -0.359375,0.57813 0,0.28125 0.1875,0.5 0.1875,0.21875 0.703125,0.48437 0.53125,0.26563 1.546875,0.6875 1,0.40625 1.71875,0.84375 0.734375,0.4375 1.125,1.09375 0.40625,0.65625 0.40625,1.6875 z m 10.601578,0 q 0,1.1875 -0.5625,2 -0.5625,0.8125 -1.671875,1.23438 -1.09375,0.42187 -2.734375,0.42187 -1.21875,0 -2.09375,-0.15625 -0.875,-0.15625 -1.75,-0.51562 v -2.625 q 0.9375,0.42187 2.03125,0.70312 1.09375,0.28125 1.90625,0.28125 0.9375,0 1.328125,-0.28125 0.40625,-0.28125 0.40625,-0.71875 0,-0.29687 -0.171875,-0.53125 -0.15625,-0.23437 -0.6875,-0.53125 -0.53125,-0.29687 -1.65625,-0.78125 -1.09375,-0.45312 -1.796875,-0.92187 -0.703125,-0.46875 -1.046875,-1.10938 -0.34375,-0.64062 -0.34375,-1.625 0,-1.625 1.25,-2.4375 1.265625,-0.8125 3.375,-0.8125 1.078125,0 2.0625,0.21875 0.984375,0.21875 2.03125,0.70313 l -0.96875,2.28125 q -0.859375,-0.375 -1.625,-0.60938 -0.765625,-0.25 -1.5625,-0.25 -0.6875,0 -1.046875,0.1875 -0.359375,0.1875 -0.359375,0.57813 0,0.28125 0.1875,0.5 0.1875,0.21875 0.703125,0.48437 0.53125,0.26563 1.546875,0.6875 1,0.40625 1.71875,0.84375 0.734375,0.4375 1.125,1.09375 0.40625,0.65625 0.40625,1.6875 z m 5.648453,-8.1875 v 11.64063 h -3.171875 v -11.64063 z m -1.578125,-4.5625 q 0.703125,0 1.203125,0.32813 0.515621,0.32812 0.515621,1.21875 0,0.89062 -0.515621,1.23437 -0.5,0.32813 -1.203125,0.32813 -0.71875,0 -1.234375,-0.32813 -0.5,-0.34375 -0.5,-1.23437 0,-0.89063 0.5,-1.21875 0.515625,-0.32813 1.234375,-0.32813 z m 7.680706,16.20313 -4.4375,-11.64063 h 3.328125 l 2.25,6.625 q 0.1875,0.59375 0.296875,1.23438 0.109375,0.64062 0.140625,1.15625 h 0.09375 q 0.03125,-0.54688 0.140625,-1.17188 0.125,-0.625 0.328125,-1.21875 l 2.234375,-6.625 h 3.3125 l -4.421875,11.64063 z m 14.163712,-11.85938 q 1.609375,0 2.78125,0.625 1.171875,0.60938 1.796875,1.79688 0.640625,1.17187 0.640625,2.85937 v 1.54688 H 81.83632 q 0.0625,1.34375 0.8125,2.10937 0.75,0.76563 2.09375,0.76563 1.125,0 2.046875,-0.21875 0.921875,-0.23438 1.90625,-0.70313 v 2.46875 q -0.859375,0.42188 -1.8125,0.60938 -0.9375,0.20312 -2.28125,0.20312 -1.75,0 -3.109375,-0.64062 -1.34375,-0.64063 -2.109375,-1.96875 -0.765625,-1.32813 -0.765625,-3.32813 0,-2.04687 0.6875,-3.40625 0.703125,-1.35937 1.9375,-2.03125 1.25,-0.6875 2.890625,-0.6875 z m 0.01563,2.25 q -0.921875,0 -1.53125,0.59375 -0.609375,0.59375 -0.703125,1.875 h 4.453125 q 0,-0.71875 -0.25,-1.26562 -0.25,-0.54688 -0.734375,-0.875 -0.484375,-0.32813 -1.234375,-0.32813 z m 16.500785,9.60938 h -3.171882 v -16.20313 h 3.171882 z m 8.10258,-11.875 q 2.34375,0 3.59375,1.01562 1.25,1.01563 1.25,3.09375 v 7.76563 h -2.21875 l -0.60937,-1.57813 h -0.0937 q -0.5,0.625 -1.01563,1.01563 -0.51562,0.39062 -1.20312,0.57812 -0.67188,0.1875 -1.64063,0.1875 -1.03125,0 -1.85937,-0.39062 -0.8125,-0.39063 -1.28125,-1.20313 -0.46875,-0.82812 -0.46875,-2.09375 0,-1.84375 1.29687,-2.71875 1.3125,-0.89062 3.92188,-0.98437 l 2.01562,-0.0625 v -0.51563 q 0,-0.90625 -0.48437,-1.32812 -0.46875,-0.4375 -1.32813,-0.4375 -0.84375,0 -1.65625,0.25 -0.8125,0.23437 -1.625,0.59375 l -1.04687,-2.14063 q 0.92187,-0.48437 2.0625,-0.76562 1.15625,-0.28125 2.39062,-0.28125 z m 1.6875,6.48437 -1.23437,0.0312 q -1.53125,0.0469 -2.14063,0.5625 -0.59375,0.5 -0.59375,1.34375 0,0.71875 0.42188,1.03125 0.4375,0.3125 1.125,0.3125 1.01562,0 1.71875,-0.60937 0.70312,-0.60938 0.70312,-1.71875 z m 4.75728,-6.25 h 3.48438 l 2.1875,6.54688 q 0.10937,0.3125 0.17187,0.64062 0.0781,0.3125 0.125,0.65625 0.0625,0.34375 0.0937,0.71875 h 0.0625 q 0.0625,-0.5625 0.17188,-1.04687 0.10937,-0.48438 0.28125,-0.96875 l 2.15625,-6.54688 h 3.39062 l -4.92187,13.125 q -0.4375,1.21875 -1.15625,2.01563 -0.71875,0.8125 -1.65625,1.21875 -0.9375,0.40625 -2.04688,0.40625 -0.54687,0 -0.9375,-0.0625 -0.39062,-0.0469 -0.67187,-0.10938 v -2.53125 q 0.21875,0.0625 0.54687,0.0937 0.32813,0.0469 0.70313,0.0469 0.65625,0 1.14062,-0.28125 0.48438,-0.28125 0.79688,-0.76563 0.32812,-0.46875 0.51562,-1.03125 l 0.1875,-0.5625 z m 18.60121,-0.21875 q 1.60937,0 2.78125,0.625 1.17187,0.60938 1.79687,1.79688 0.64063,1.17187 0.64063,2.85937 v 1.54688 h -7.51563 q 0.0625,1.34375 0.8125,2.10937 0.75,0.76563 2.09375,0.76563 1.125,0 2.04688,-0.21875 0.92187,-0.23438 1.90625,-0.70313 v 2.46875 q -0.85938,0.42188 -1.8125,0.60938 -0.9375,0.20312 -2.28125,0.20312 -1.75,0 -3.10938,-0.64062 -1.34375,-0.64063 -2.10937,-1.96875 -0.76563,-1.32813 -0.76563,-3.32813 0,-2.04687 0.6875,-3.40625 0.70313,-1.35937 1.9375,-2.03125 1.25,-0.6875 2.89063,-0.6875 z m 0.0156,2.25 q -0.92188,0 -1.53125,0.59375 -0.60938,0.59375 -0.70313,1.875 h 4.45313 q 0,-0.71875 -0.25,-1.26562 -0.25,-0.54688 -0.73438,-0.875 -0.48437,-0.32813 -1.23437,-0.32813 z m 14.28859,-2.25 q 0.23437,0 0.54687,0.0312 0.32813,0.0156 0.51563,0.0625 l -0.23438,2.96875 q -0.15625,-0.0469 -0.45312,-0.0625 -0.28125,-0.0312 -0.48438,-0.0312 -0.60937,0 -1.1875,0.15625 -0.57812,0.15625 -1.04687,0.5 -0.45313,0.34375 -0.71875,0.92188 -0.26563,0.5625 -0.26563,1.39062 v 5.92188 h -3.17187 v -11.64063 h 2.40625 l 0.46875,1.95313 h 0.15625 q 0.34375,-0.59375 0.85937,-1.07813 0.51563,-0.5 1.17188,-0.79687 0.65625,-0.29688 1.4375,-0.29688 z"
       fill-rule="nonzero"
       id="path9" />
    <path
       fill="#4571a7"
       d="M 0.18050756,73.79264 H 161.20508 v 58.25315 H 0.18050756 Z"
       fill-rule="evenodd"
       id="path11" />
    <path
       fill="#ffffff"
       d="m 29.161213,110.59922 -1.09375,-3.625 h -5.5625 l -1.09375,3.625 h -3.484375 l 5.375,-15.28125 h 3.953125 l 5.390625,15.28125 z m -1.875,-6.32812 -1.09375,-3.54688 q -0.109375,-0.35937 -0.28125,-0.90625 -0.171875,-0.5625 -0.34375,-1.140625 -0.171875,-0.578125 -0.28125,-1 -0.09375,0.421875 -0.28125,1.0625 -0.1875,0.625 -0.359375,1.1875 -0.15625,0.562505 -0.234375,0.796875 l -1.09375,3.54688 z m 11.746414,6.53125 q -1.71875,0 -2.9375,-0.625 -1.21875,-0.625 -1.859375,-1.95313 -0.640625,-1.32812 -0.640625,-3.39062 0,-2.125 0.71875,-3.46875 0.734375,-1.35938 2.015625,-1.98438 1.296875,-0.640625 2.984375,-0.640625 1.21875,0 2.09375,0.234375 0.875,0.234375 1.53125,0.5625 l -0.9375,2.45313 q -0.75,-0.3125 -1.390625,-0.5 -0.640625,-0.1875 -1.296875,-0.1875 -0.828125,0 -1.390625,0.39062 -0.546875,0.39063 -0.8125,1.17188 -0.265625,0.78125 -0.265625,1.95312 0,1.15625 0.28125,1.92188 0.296875,0.75 0.84375,1.125 0.5625,0.375 1.34375,0.375 1,0 1.765625,-0.26563 0.765625,-0.26562 1.5,-0.75 v 2.71875 q -0.734375,0.45313 -1.53125,0.65625 -0.796875,0.20313 -2.015625,0.20313 z m 11.15358,-2.53125 q 0.515625,0 1,-0.0937 0.5,-0.10938 1,-0.26563 v 2.35938 q -0.515625,0.23437 -1.28125,0.375 -0.75,0.15625 -1.640625,0.15625 -1.046875,0 -1.875,-0.32813 -0.828125,-0.34375 -1.296875,-1.17187 -0.46875,-0.84375 -0.46875,-2.34375 v -5.625 h -1.53125 v -1.343755 l 1.75,-1.046875 0.921875,-2.46875 h 2.03125 v 2.484375 h 3.265625 v 2.375005 h -3.265625 v 5.625 q 0,0.65625 0.375,0.98437 0.390625,0.32813 1.015625,0.32813 z m 7.523788,-9.312505 V 110.59922 H 54.53812 V 98.958595 Z m -1.578125,-4.5625 q 0.703125,0 1.203125,0.328125 0.515625,0.328125 0.515625,1.21875 0,0.890625 -0.515625,1.234375 -0.5,0.328125 -1.203125,0.328125 -0.71875,0 -1.234375,-0.328125 -0.5,-0.34375 -0.5,-1.234375 0,-0.890625 0.5,-1.21875 0.515625,-0.328125 1.234375,-0.328125 z m 7.68071,16.203125 -4.4375,-11.640625 h 3.328125 l 2.249997,6.625005 q 0.1875,0.59375 0.296875,1.23437 0.109375,0.64063 0.140625,1.15625 h 0.09375 q 0.03125,-0.54687 0.140625,-1.17187 0.125,-0.625 0.328125,-1.21875 l 2.234375,-6.625005 h 3.3125 L 67.078202,110.59922 Z M 77.976288,98.739845 q 1.609375,0 2.78125,0.625 1.171875,0.609375 1.796875,1.796875 0.640625,1.17188 0.640625,2.85938 v 1.54687 h -7.515625 q 0.0625,1.34375 0.8125,2.10938 0.75,0.76562 2.09375,0.76562 1.125,0 2.046875,-0.21875 0.921875,-0.23437 1.90625,-0.70312 v 2.46875 q -0.859375,0.42187 -1.8125,0.60937 -0.9375,0.20313 -2.28125,0.20313 -1.75,0 -3.109375,-0.64063 -1.34375,-0.64062 -2.109375,-1.96875 -0.765625,-1.32812 -0.765625,-3.32812 0,-2.04688 0.6875,-3.40625 0.703125,-1.35938 1.9375,-2.031255 1.25,-0.6875 2.890625,-0.6875 z m 0.01563,2.250005 q -0.921875,0 -1.53125,0.59375 -0.609375,0.59375 -0.703125,1.875 h 4.453125 q 0,-0.71875 -0.25,-1.26563 -0.25,-0.54687 -0.734375,-0.875 -0.484375,-0.32812 -1.234375,-0.32812 z m 16.500778,9.60937 h -3.17188 V 94.396095 h 3.171875 z m 8.102584,-11.875 q 2.34375,0 3.59375,1.015625 1.25,1.015625 1.25,3.093755 v 7.76562 h -2.21875 l -0.60938,-1.57812 h -0.0937 q -0.5,0.625 -1.01562,1.01562 -0.51563,0.39063 -1.20313,0.57813 -0.67187,0.1875 -1.64062,0.1875 -1.031249,0 -1.859374,-0.39063 -0.8125,-0.39062 -1.28125,-1.20312 -0.46875,-0.82813 -0.46875,-2.09375 0,-1.84375 1.296875,-2.71875 1.3125,-0.89063 3.921869,-0.98438 l 2.01563,-0.0625 v -0.51562 q 0,-0.90625 -0.48438,-1.32813 -0.46875,-0.4375 -1.32812,-0.4375 -0.84375,0 -1.65625,0.25 -0.8125,0.23438 -1.624999,0.59375 l -1.046875,-2.140625 q 0.921875,-0.484375 2.062494,-0.765625 1.15625,-0.28125 2.39063,-0.28125 z m 1.6875,6.48438 -1.23438,0.0312 q -1.53125,0.0469 -2.14062,0.5625 -0.59375,0.5 -0.59375,1.34375 0,0.71875 0.42187,1.03125 0.4375,0.3125 1.125,0.3125 1.01563,0 1.71875,-0.60938 0.70313,-0.60937 0.70313,-1.71875 z m 4.75727,-6.250005 h 3.48438 l 2.1875,6.546875 q 0.10937,0.3125 0.17187,0.64063 0.0781,0.3125 0.125,0.65625 0.0625,0.34375 0.0937,0.71875 h 0.0625 q 0.0625,-0.5625 0.17188,-1.04688 0.10937,-0.48437 0.28125,-0.96875 l 2.15625,-6.546875 h 3.39062 l -4.92187,13.125005 q -0.4375,1.21875 -1.15625,2.01562 -0.71875,0.8125 -1.65625,1.21875 -0.9375,0.40625 -2.04688,0.40625 -0.54687,0 -0.9375,-0.0625 -0.39062,-0.0469 -0.67187,-0.10937 v -2.53125 q 0.21875,0.0625 0.54687,0.0937 0.32813,0.0469 0.70313,0.0469 0.65625,0 1.14062,-0.28125 0.48438,-0.28125 0.79688,-0.76562 0.32812,-0.46875 0.51562,-1.03125 l 0.1875,-0.5625 z m 18.60122,-0.21875 q 1.60937,0 2.78125,0.625 1.17188,0.609375 1.79688,1.796875 0.64062,1.17188 0.64062,2.85938 v 1.54687 h -7.51562 q 0.0625,1.34375 0.8125,2.10938 0.75,0.76562 2.09375,0.76562 1.125,0 2.04687,-0.21875 0.92188,-0.23437 1.90625,-0.70312 v 2.46875 q -0.85937,0.42187 -1.8125,0.60937 -0.9375,0.20313 -2.28125,0.20313 -1.74999,0 -3.10937,-0.64063 -1.34375,-0.64062 -2.10937,-1.96875 -0.76563,-1.32812 -0.76563,-3.32812 0,-2.04688 0.6875,-3.40625 0.70313,-1.35938 1.9375,-2.031255 1.25,-0.6875 2.89062,-0.6875 z m 0.0156,2.250005 q -0.92187,0 -1.53125,0.59375 -0.60937,0.59375 -0.70312,1.875 h 4.45312 q 0,-0.71875 -0.25,-1.26563 -0.25,-0.54687 -0.73438,-0.875 -0.48437,-0.32812 -1.23437,-0.32812 z m 14.2886,-2.250005 q 0.23437,0 0.54687,0.03125 0.32813,0.01563 0.51563,0.0625 l -0.23438,2.968755 q -0.15625,-0.0469 -0.45312,-0.0625 -0.28125,-0.0312 -0.48438,-0.0312 -0.60937,0 -1.1875,0.15625 -0.57812,0.15625 -1.04687,0.5 -0.45313,0.34375 -0.71875,0.92187 -0.26563,0.5625 -0.26563,1.39063 v 5.92187 H 135.4455 V 98.958595 h 2.40625 l 0.46875,1.953125 h 0.15625 q 0.34375,-0.59375 0.85937,-1.078125 0.51563,-0.5 1.17188,-0.796875 0.65625,-0.296875 1.4375,-0.296875 z"
       fill-rule="nonzero"
       id="path13" />
    <path
       fill="#8bd1f0"
       d="M 8.871391e-5,-2.711811e-5 H 161.02466 V 64.278943 H 8.871391e-5 Z"
       fill-rule="evenodd"
       id="path15" />
    <path
       fill="#ffffff"
       d="m 23.622656,35.58508 q 0,1.359375 -0.65625,2.359375 -0.65625,1 -1.921875,1.546875 -1.25,0.53125 -3.03125,0.53125 -0.796875,0 -1.5625,-0.109375 -0.750001,-0.09375 -1.437501,-0.296875 -0.6875,-0.203125 -1.3125,-0.5 v -3 q 1.078125,0.46875 2.234375,0.859375 1.171876,0.390625 2.328126,0.390625 0.78125,0 1.265625,-0.203125 0.484375,-0.21875 0.703125,-0.578125 0.21875,-0.375 0.21875,-0.84375 0,-0.5625 -0.390625,-0.96875 -0.375,-0.40625 -1.046875,-0.765625 -0.671875,-0.359375 -1.515625,-0.765625 -0.53125,-0.25 -1.15625,-0.609375 -0.625001,-0.359375 -1.187501,-0.875 -0.5625,-0.515625 -0.921875,-1.265625 -0.359375,-0.75 -0.359375,-1.78125 0,-1.359375 0.625,-2.328125 0.625,-0.96875 1.781251,-1.484375 1.171875,-0.515625 2.75,-0.515625 1.1875,0 2.265625,0.28125 1.078125,0.265625 2.25,0.78125 l -1.03125,2.515625 q -1.0625,-0.421875 -1.890625,-0.65625 -0.828125,-0.234375 -1.703125,-0.234375 -0.59375,0 -1.03125,0.1875 -0.421875,0.1875 -0.640625,0.546875 -0.21875,0.34375 -0.21875,0.796875 0,0.546875 0.3125,0.921875 0.328125,0.359375 0.96875,0.703125 0.640625,0.34375 1.59375,0.796875 1.171875,0.5625 2,1.15625 0.828125,0.59375 1.265625,1.40625 0.453125,0.8125 0.453125,2 z m 7.309631,-7.625 q 1.609373,0 2.781248,0.625 1.171875,0.609375 1.796875,1.796875 0.640625,1.171875 0.640625,2.859375 v 1.546875 h -7.515623 q 0.0625,1.34375 0.8125,2.109375 0.75,0.765625 2.09375,0.765625 1.124998,0 2.046873,-0.21875 0.921875,-0.234375 1.90625,-0.703125 v 2.46875 q -0.859375,0.421875 -1.8125,0.609375 -0.9375,0.203125 -2.281248,0.203125 -1.75,0 -3.109375,-0.640625 -1.34375,-0.640625 -2.109375,-1.96875 -0.765625,-1.328125 -0.765625,-3.328125 0,-2.046875 0.6875,-3.40625 0.703125,-1.359375 1.9375,-2.03125 1.25,-0.6875 2.890625,-0.6875 z m 0.01563,2.25 q -0.921875,0 -1.53125,0.59375 -0.609375,0.59375 -0.703125,1.875 h 4.453123 q 0,-0.71875 -0.25,-1.265625 -0.25,-0.546875 -0.734375,-0.875 -0.484373,-0.328125 -1.234373,-0.328125 z m 14.288588,-2.25 q 0.234375,0 0.546875,0.03125 0.328125,0.01563 0.515625,0.0625 l -0.234375,2.96875 q -0.15625,-0.04687 -0.453125,-0.0625 -0.28125,-0.03125 -0.484375,-0.03125 -0.609375,0 -1.1875,0.15625 -0.578125,0.15625 -1.046875,0.5 -0.453125,0.34375 -0.71875,0.921875 -0.265625,0.5625 -0.265625,1.390625 v 5.921875 H 38.7365 V 28.17883 h 2.40625 l 0.46875,1.953125 h 0.15625 q 0.34375,-0.59375 0.859375,-1.078125 0.515625,-0.5 1.171875,-0.796875 0.65625,-0.296875 1.4375,-0.296875 z m 5.95076,11.859375 -4.4375,-11.640625 h 3.328125 l 2.25,6.625 q 0.1875,0.59375 0.296875,1.234375 0.109375,0.640625 0.140625,1.15625 h 0.09375 q 0.03125,-0.546875 0.140625,-1.171875 0.125,-0.625 0.328125,-1.21875 l 2.234375,-6.625 h 3.3125 l -4.42188,11.640625 z M 63.725972,28.17883 V 39.819455 H 60.554097 V 28.17883 Z m -1.578125,-4.5625 q 0.703125,0 1.203125,0.328125 0.515625,0.328125 0.515625,1.21875 0,0.890625 -0.515625,1.234375 -0.5,0.328125 -1.203125,0.328125 -0.71875,0 -1.234375,-0.328125 -0.5,-0.34375 -0.5,-1.234375 0,-0.890625 0.5,-1.21875 0.515625,-0.328125 1.234375,-0.328125 z m 9.633839,16.40625 q -1.71875,0 -2.9375,-0.625 -1.21875,-0.625 -1.859375,-1.953125 -0.640625,-1.328125 -0.640625,-3.390625 0,-2.125 0.71875,-3.46875 0.734375,-1.359375 2.015625,-1.984375 1.296875,-0.640625 2.984375,-0.640625 1.21875,0 2.09375,0.234375 0.875,0.234375 1.53125,0.5625 l -0.9375,2.453125 q -0.75,-0.3125 -1.390625,-0.5 -0.640625,-0.1875 -1.296875,-0.1875 -0.828125,0 -1.390625,0.390625 -0.546875,0.390625 -0.8125,1.171875 -0.265625,0.78125 -0.265625,1.953125 0,1.15625 0.28125,1.921875 0.296875,0.75 0.84375,1.125 0.5625,0.375 1.34375,0.375 1,0 1.765625,-0.265625 0.765625,-0.265625 1.5,-0.75 v 2.71875 q -0.734375,0.453125 -1.53125,0.65625 -0.796875,0.203125 -2.015625,0.203125 z m 11.044205,-12.0625 q 1.609375,0 2.78125,0.625 1.171875,0.609375 1.796875,1.796875 0.640625,1.171875 0.640625,2.859375 v 1.546875 h -7.515625 q 0.0625,1.34375 0.8125,2.109375 0.75,0.765625 2.09375,0.765625 1.125,0 2.046875,-0.21875 0.921875,-0.234375 1.90625,-0.703125 v 2.46875 q -0.859375,0.421875 -1.8125,0.609375 -0.9375,0.203125 -2.28125,0.203125 -1.75,0 -3.109375,-0.640625 -1.34375,-0.640625 -2.109375,-1.96875 -0.765625,-1.328125 -0.765625,-3.328125 0,-2.046875 0.6875,-3.40625 0.703125,-1.359375 1.9375,-2.03125 1.25,-0.6875 2.890625,-0.6875 z m 0.01563,2.25 q -0.921875,0 -1.53125,0.59375 -0.609375,0.59375 -0.703125,1.875 h 4.453125 q 0,-0.71875 -0.25,-1.265625 -0.25,-0.546875 -0.734375,-0.875 -0.484375,-0.328125 -1.234375,-0.328125 z m 16.500778,9.609375 h -3.17188 V 23.61633 h 3.171875 z m 8.102591,-11.875 q 2.34375,0 3.59375,1.015625 1.25,1.015625 1.25,3.09375 v 7.765625 h -2.21875 L 109.4605,38.24133 h -0.0937 q -0.5,0.625 -1.01562,1.015625 -0.51563,0.390625 -1.20313,0.578125 -0.67187,0.1875 -1.64062,0.1875 -1.03125,0 -1.85938,-0.390625 -0.8125,-0.390625 -1.28125,-1.203125 -0.46875,-0.828125 -0.46875,-2.09375 0,-1.84375 1.29688,-2.71875 1.3125,-0.890625 3.92187,-0.984375 l 2.01563,-0.0625 V 32.05383 q 0,-0.90625 -0.48438,-1.328125 -0.46875,-0.4375 -1.32812,-0.4375 -0.84375,0 -1.65625,0.25 -0.8125,0.234375 -1.625,0.59375 L 102.9918,28.99133 q 0.92188,-0.484375 2.0625,-0.765625 1.15625,-0.28125 2.39063,-0.28125 z m 1.6875,6.484375 -1.23439,0.03125 q -1.53125,0.04687 -2.14061,0.5625 -0.59375,0.5 -0.59375,1.34375 0,0.71875 0.42186,1.03125 0.4375,0.3125 1.125,0.3125 1.01564,0 1.71875,-0.609375 0.70314,-0.609375 0.70314,-1.71875 z m 4.75727,-6.25 h 3.48437 l 2.1875,6.546875 q 0.10938,0.3125 0.17188,0.640625 0.0781,0.3125 0.125,0.65625 0.0625,0.34375 0.0937,0.71875 h 0.0625 q 0.0625,-0.5625 0.17187,-1.046875 0.10938,-0.484375 0.28125,-0.96875 l 2.15625,-6.546875 h 3.39063 l -4.92188,13.125 q -0.4375,1.21875 -1.15625,2.015625 -0.71875,0.8125 -1.65625,1.21875 -0.9375,0.40625 -2.04687,0.40625 -0.54688,0 -0.9375,-0.0625 -0.39063,-0.04687 -0.67188,-0.109375 v -2.53125 q 0.21875,0.0625 0.54688,0.09375 0.32812,0.04687 0.70312,0.04687 0.65625,0 1.14063,-0.28125 0.48437,-0.28125 0.79687,-0.765625 0.32813,-0.46875 0.51563,-1.03125 l 0.1875,-0.5625 z m 18.60122,-0.21875 q 1.60937,0 2.78125,0.625 1.17187,0.609375 1.79687,1.796875 0.64063,1.171875 0.64063,2.859375 v 1.546875 H 130.194 q 0.0625,1.34375 0.8125,2.109375 0.75,0.765625 2.09375,0.765625 1.125,0 2.04688,-0.21875 0.92187,-0.234375 1.90625,-0.703125 v 2.46875 q -0.85938,0.421875 -1.8125,0.609375 -0.9375,0.203125 -2.28125,0.203125 -1.75,0 -3.10938,-0.640625 -1.34375,-0.640625 -2.10938,-1.96875 -0.76562,-1.328125 -0.76562,-3.328125 0,-2.046875 0.6875,-3.40625 0.70313,-1.359375 1.9375,-2.03125 1.25,-0.6875 2.89063,-0.6875 z m 0.0156,2.25 q -0.92187,0 -1.53125,0.59375 -0.60937,0.59375 -0.70312,1.875 h 4.45312 q 0,-0.71875 -0.25,-1.265625 -0.25,-0.546875 -0.73437,-0.875 -0.48438,-0.328125 -1.23438,-0.328125 z m 14.28858,-2.25 q 0.23437,0 0.54687,0.03125 0.32813,0.01563 0.51563,0.0625 l -0.23438,2.96875 q -0.15625,-0.04687 -0.45312,-0.0625 -0.28125,-0.03125 -0.48438,-0.03125 -0.60937,0 -1.1875,0.15625 -0.57812,0.15625 -1.04687,0.5 -0.45313,0.34375 -0.71875,0.921875 -0.26563,0.5625 -0.26563,1.390625 v 5.921875 h -3.17187 V 28.17883 h 2.40625 l 0.46875,1.953125 h 0.15625 q 0.34375,-0.59375 0.85937,-1.078125 0.51563,-0.5 1.17188,-0.796875 0.65625,-0.296875 1.4375,-0.296875 z"
       fill-rule="nonzero"
       id="path17" />
    <path
       fill="#aab147"
       d="m 176.27756,144.56738 h 656.7798 v 108.51885 h -656.7798 z"
       fill-rule="evenodd"
       id="path19" />
    <path
       fill="#ffffff"
       d="m 314.13223,189.2018 q 2.95312,0 4.29687,1.26563 1.35938,1.26562 1.35938,3.46875 0,1 -0.3125,1.92187 -0.29688,0.90625 -0.98438,1.625 -0.67187,0.70313 -1.8125,1.10938 -1.125,0.40625 -2.79687,0.40625 h -1.39063 v 5.42187 h -3.21875 V 189.2018 Z m -0.17188,2.64063 h -1.46875 v 4.51562 h 1.0625 q 0.90625,0 1.57813,-0.23437 0.67187,-0.25 1.03125,-0.75 0.35937,-0.51563 0.35937,-1.3125 0,-1.125 -0.625,-1.67188 -0.625,-0.54687 -1.9375,-0.54687 z m 11.62693,-3.625 v 3.29687 q 0,0.875 -0.0625,1.65625 -0.0469,0.76563 -0.0781,1.09375 h 0.15625 q 0.375,-0.59375 0.89063,-0.96875 0.51562,-0.375 1.14062,-0.54687 0.625,-0.1875 1.34375,-0.1875 1.26563,0 2.20313,0.45312 0.9375,0.4375 1.45312,1.375 0.51563,0.9375 0.51563,2.4375 v 7.59375 h -3.17188 v -6.79687 q 0,-1.25 -0.45312,-1.89063 -0.45313,-0.64062 -1.42188,-0.64062 -0.95312,0 -1.51562,0.45312 -0.54688,0.4375 -0.78125,1.29688 -0.21875,0.85937 -0.21875,2.09375 v 5.48437 h -3.17188 v -16.20312 z m 9.17367,4.5625 h 3.48438 l 2.1875,6.54687 q 0.10937,0.3125 0.17187,0.64063 0.0781,0.3125 0.125,0.65625 0.0625,0.34375 0.0937,0.71875 h 0.0625 q 0.0625,-0.5625 0.17188,-1.04688 0.10937,-0.48437 0.28125,-0.96875 l 2.15625,-6.54687 h 3.39062 l -4.92187,13.125 q -0.4375,1.21875 -1.15625,2.01562 -0.71875,0.8125 -1.65625,1.21875 -0.9375,0.40625 -2.04688,0.40625 -0.54687,0 -0.9375,-0.0625 -0.39062,-0.0469 -0.67187,-0.10937 v -2.53125 q 0.21875,0.0625 0.54687,0.0937 0.32813,0.0469 0.70313,0.0469 0.65625,0 1.14062,-0.28125 0.48438,-0.28125 0.79688,-0.76563 0.32812,-0.46875 0.51562,-1.03125 l 0.1875,-0.5625 z m 21.92932,8.1875 q 0,1.1875 -0.5625,2 -0.5625,0.8125 -1.67187,1.23437 -1.09375,0.42188 -2.73438,0.42188 -1.21875,0 -2.09375,-0.15625 -0.875,-0.15625 -1.75,-0.51563 v -2.625 q 0.9375,0.42188 2.03125,0.70313 1.09375,0.28125 1.90625,0.28125 0.9375,0 1.32813,-0.28125 0.40625,-0.28125 0.40625,-0.71875 0,-0.29688 -0.17188,-0.53125 -0.15625,-0.23438 -0.6875,-0.53125 -0.53125,-0.29688 -1.65625,-0.78125 -1.09375,-0.45313 -1.79687,-0.92188 -0.70313,-0.46875 -1.04688,-1.10937 -0.34375,-0.64063 -0.34375,-1.625 0,-1.625 1.25,-2.4375 1.26563,-0.8125 3.375,-0.8125 1.07813,0 2.0625,0.21875 0.98438,0.21875 2.03125,0.70312 l -0.96875,2.28125 q -0.85937,-0.375 -1.625,-0.60937 -0.76562,-0.25 -1.5625,-0.25 -0.6875,0 -1.04687,0.1875 -0.35938,0.1875 -0.35938,0.57812 0,0.28125 0.1875,0.5 0.1875,0.21875 0.70313,0.48438 0.53125,0.26562 1.54687,0.6875 1,0.40625 1.71875,0.84375 0.73438,0.4375 1.125,1.09375 0.40625,0.65625 0.40625,1.6875 z m 5.64847,-8.1875 v 11.64062 h -3.17187 v -11.64062 z m -1.57812,-4.5625 q 0.70312,0 1.20312,0.32812 0.51563,0.32813 0.51563,1.21875 0,0.89063 -0.51563,1.23438 -0.5,0.32812 -1.20312,0.32812 -0.71875,0 -1.23438,-0.32812 -0.5,-0.34375 -0.5,-1.23438 0,-0.89062 0.5,-1.21875 0.51563,-0.32812 1.23438,-0.32812 z m 9.63382,16.40625 q -1.71875,0 -2.9375,-0.625 -1.21875,-0.625 -1.85938,-1.95313 -0.64062,-1.32812 -0.64062,-3.39062 0,-2.125 0.71875,-3.46875 0.73437,-1.35938 2.01562,-1.98438 1.29688,-0.64062 2.98438,-0.64062 1.21875,0 2.09375,0.23437 0.875,0.23438 1.53125,0.5625 l -0.9375,2.45313 q -0.75,-0.3125 -1.39063,-0.5 -0.64062,-0.1875 -1.29687,-0.1875 -0.82813,0 -1.39063,0.39062 -0.54687,0.39063 -0.8125,1.17188 -0.26562,0.78125 -0.26562,1.95312 0,1.15625 0.28125,1.92188 0.29687,0.75 0.84375,1.125 0.5625,0.375 1.34375,0.375 1,0 1.76562,-0.26563 0.76563,-0.26562 1.5,-0.75 v 2.71875 q -0.73437,0.45313 -1.53125,0.65625 -0.79687,0.20313 -2.01562,0.20313 z m 11.01297,-12.07813 q 2.34375,0 3.59375,1.01563 1.25,1.01562 1.25,3.09375 v 7.76562 h -2.21875 l -0.60938,-1.57812 h -0.0937 q -0.5,0.625 -1.01562,1.01562 -0.51563,0.39063 -1.20313,0.57813 -0.67187,0.1875 -1.64062,0.1875 -1.03125,0 -1.85938,-0.39063 -0.8125,-0.39062 -1.28125,-1.20312 -0.46875,-0.82813 -0.46875,-2.09375 0,-1.84375 1.29688,-2.71875 1.3125,-0.89063 3.92187,-0.98438 l 2.01563,-0.0625 v -0.51562 q 0,-0.90625 -0.48438,-1.32813 -0.46875,-0.4375 -1.32812,-0.4375 -0.84375,0 -1.65625,0.25 -0.8125,0.23438 -1.625,0.59375 l -1.04688,-2.14062 q 0.92188,-0.48438 2.0625,-0.76563 1.15625,-0.28125 2.39063,-0.28125 z m 1.6875,6.48438 -1.23438,0.0312 q -1.53125,0.0469 -2.14062,0.5625 -0.59375,0.5 -0.59375,1.34375 0,0.71875 0.42187,1.03125 0.4375,0.3125 1.125,0.3125 1.01563,0 1.71875,-0.60937 0.70313,-0.60938 0.70313,-1.71875 z m 9.60101,5.39062 h -3.17187 v -16.20312 h 3.17187 z m 9.12729,0 V 189.2018 h 3.21875 v 15.21875 z m 13.42014,-11.85937 q 1.85937,0 2.98437,1.01562 1.14063,1.01563 1.14063,3.25 v 7.59375 h -3.17188 v -6.79687 q 0,-1.25 -0.45312,-1.89063 -0.45313,-0.64062 -1.42188,-0.64062 -1.45312,0 -1.98437,1 -0.53125,0.98437 -0.53125,2.84375 v 5.48437 h -3.17188 v -11.64062 h 2.42188 l 0.42187,1.48437 h 0.1875 q 0.375,-0.59375 0.92188,-0.96875 0.5625,-0.375 1.23437,-0.54687 0.6875,-0.1875 1.42188,-0.1875 z m 13.84555,2.59375 h -2.75 v 9.26562 h -3.1875 v -9.26562 h -1.75 v -1.51563 l 1.75,-0.85937 v -0.85938 q 0,-1.48437 0.5,-2.3125 0.51562,-0.82812 1.4375,-1.15625 0.92187,-0.34375 2.1875,-0.34375 0.92187,0 1.67187,0.15625 0.76563,0.14063 1.25,0.32813 l -0.8125,2.32812 q -0.35937,-0.10937 -0.79687,-0.20312 -0.42188,-0.0937 -0.96875,-0.0937 -0.67188,0 -0.98438,0.40625 -0.29687,0.39063 -0.29687,1.01563 v 0.73437 h 2.75 z m 8.32092,-2.59375 q 0.23437,0 0.54687,0.0312 0.32813,0.0156 0.51563,0.0625 l -0.23438,2.96875 q -0.15625,-0.0469 -0.45312,-0.0625 -0.28125,-0.0312 -0.48438,-0.0312 -0.60937,0 -1.1875,0.15625 -0.57812,0.15625 -1.04687,0.5 -0.45313,0.34375 -0.71875,0.92187 -0.26563,0.5625 -0.26563,1.39063 v 5.92187 h -3.1719 v -11.64062 h 2.40628 l 0.46875,1.95312 h 0.15625 q 0.34375,-0.59375 0.85937,-1.07812 0.51563,-0.5 1.17188,-0.79688 0.65625,-0.29687 1.4375,-0.29687 z m 7.95074,-0.0156 q 2.34375,0 3.59375,1.01562 1.25,1.01563 1.25,3.09375 v 7.76563 h -2.21875 l -0.60937,-1.57813 h -0.0937 q -0.5,0.625 -1.01563,1.01563 -0.51562,0.39062 -1.20312,0.57812 -0.67188,0.1875 -1.64063,0.1875 -1.03125,0 -1.85937,-0.39062 -0.8125,-0.39063 -1.28125,-1.20313 -0.46875,-0.82812 -0.46875,-2.09375 0,-1.84375 1.29687,-2.71875 1.3125,-0.89062 3.92188,-0.98437 l 2.01562,-0.0625 v -0.51563 q 0,-0.90625 -0.48437,-1.32812 -0.46875,-0.4375 -1.32813,-0.4375 -0.84375,0 -1.65625,0.25 -0.8125,0.23437 -1.625,0.59375 l -1.04687,-2.14063 q 0.92187,-0.48437 2.0625,-0.76562 1.15625,-0.28125 2.39062,-0.28125 z m 1.6875,6.48437 -1.23437,0.0312 q -1.53125,0.0469 -2.14063,0.5625 -0.59375,0.5 -0.59375,1.34375 0,0.71875 0.42188,1.03125 0.4375,0.3125 1.125,0.3125 1.01562,0 1.71875,-0.60937 0.70312,-0.60938 0.70312,-1.71875 z m 14.55414,1.9375 q 0,1.1875 -0.5625,2 -0.5625,0.8125 -1.67187,1.23438 -1.09375,0.42187 -2.73438,0.42187 -1.21875,0 -2.09375,-0.15625 -0.875,-0.15625 -1.75,-0.51562 v -2.625 q 0.9375,0.42187 2.03125,0.70312 1.09375,0.28125 1.90625,0.28125 0.9375,0 1.32813,-0.28125 0.40625,-0.28125 0.40625,-0.71875 0,-0.29687 -0.17188,-0.53125 -0.15625,-0.23437 -0.6875,-0.53125 -0.53125,-0.29687 -1.65625,-0.78125 -1.09375,-0.45312 -1.79687,-0.92187 -0.70313,-0.46875 -1.04688,-1.10938 -0.34375,-0.64062 -0.34375,-1.625 0,-1.625 1.25,-2.4375 1.26563,-0.8125 3.375,-0.8125 1.07813,0 2.0625,0.21875 0.98438,0.21875 2.03125,0.70313 l -0.96875,2.28125 q -0.85937,-0.375 -1.625,-0.60938 -0.76562,-0.25 -1.5625,-0.25 -0.6875,0 -1.04687,0.1875 -0.35938,0.1875 -0.35938,0.57813 0,0.28125 0.1875,0.5 0.1875,0.21875 0.70313,0.48437 0.53125,0.26563 1.54687,0.6875 1,0.40625 1.71875,0.84375 0.73438,0.4375 1.125,1.09375 0.40625,0.65625 0.40625,1.6875 z m 7.38285,1.125 q 0.51562,0 1,-0.0937 0.5,-0.10938 1,-0.26563 v 2.35938 q -0.51563,0.23437 -1.28125,0.375 -0.75,0.15625 -1.64063,0.15625 -1.04687,0 -1.875,-0.32813 -0.82812,-0.34375 -1.29687,-1.17187 -0.46875,-0.84375 -0.46875,-2.34375 v -5.625 h -1.53125 v -1.34375 l 1.75,-1.04688 0.92187,-2.46875 h 2.03125 V 192.78 h 3.26563 v 2.375 h -3.26563 v 5.625 q 0,0.65625 0.375,0.98437 0.39063,0.32813 1.01563,0.32813 z m 10.85189,-9.53125 q 0.23438,0 0.54688,0.0312 0.32812,0.0156 0.51562,0.0625 l -0.23437,2.96875 q -0.15625,-0.0469 -0.45313,-0.0625 -0.28125,-0.0312 -0.48437,-0.0312 -0.60938,0 -1.1875,0.15625 -0.57813,0.15625 -1.04688,0.5 -0.45312,0.34375 -0.71875,0.92188 -0.26562,0.5625 -0.26562,1.39062 v 5.92188 h -3.17188 v -11.64063 h 2.40625 l 0.46875,1.95313 h 0.15625 q 0.34375,-0.59375 0.85938,-1.07813 0.51562,-0.5 1.17187,-0.79687 0.65625,-0.29688 1.4375,-0.29688 z m 13.85703,0.21875 v 11.64063 h -2.42188 l -0.4375,-1.48438 h -0.15625 q -0.375,0.59375 -0.9375,0.96875 -0.5625,0.375 -1.25,0.54688 -0.67187,0.17187 -1.40625,0.17187 -1.25,0 -2.17187,-0.4375 -0.92188,-0.4375 -1.4375,-1.375 -0.51563,-0.9375 -0.51563,-2.4375 v -7.59375 h 3.17188 v 6.79688 q 0,1.25 0.4375,1.89062 0.45312,0.625 1.4375,0.625 0.96875,0 1.51562,-0.4375 0.5625,-0.4375 0.78125,-1.29687 0.21875,-0.85938 0.21875,-2.10938 v -5.46875 z m 8.0643,11.84375 q -1.71875,0 -2.9375,-0.625 -1.21875,-0.625 -1.85938,-1.95312 -0.64062,-1.32813 -0.64062,-3.39063 0,-2.125 0.71875,-3.46875 0.73437,-1.35937 2.01562,-1.98437 1.29688,-0.64063 2.98438,-0.64063 1.21875,0 2.09375,0.23438 0.875,0.23437 1.53125,0.5625 l -0.9375,2.45312 q -0.75,-0.3125 -1.39063,-0.5 -0.64062,-0.1875 -1.29687,-0.1875 -0.82813,0 -1.39063,0.39063 -0.54687,0.39062 -0.8125,1.17187 -0.26562,0.78125 -0.26562,1.95313 0,1.15625 0.28125,1.92187 0.29687,0.75 0.84375,1.125 0.5625,0.375 1.34375,0.375 1,0 1.76562,-0.26562 0.76563,-0.26563 1.5,-0.75 v 2.71875 q -0.73437,0.45312 -1.53125,0.65625 -0.79687,0.20312 -2.01562,0.20312 z m 11.15353,-2.53125 q 0.51563,0 1,-0.0937 0.5,-0.10938 1,-0.26563 v 2.35938 q -0.51562,0.23437 -1.28125,0.375 -0.75,0.15625 -1.64059,0.15625 -1.04688,0 -1.875,-0.32813 -0.82813,-0.34375 -1.29688,-1.17187 -0.46875,-0.84375 -0.46875,-2.34375 v -5.625 h -1.53125 v -1.34375 l 1.75,-1.04688 0.92188,-2.46875 h 2.03125 V 192.78 h 3.26559 v 2.375 h -3.26559 v 5.625 q 0,0.65625 0.375,0.98437 0.39059,0.32813 1.01559,0.32813 z m 15.02381,-9.3125 v 11.64063 h -2.42188 l -0.4375,-1.48438 h -0.15625 q -0.375,0.59375 -0.9375,0.96875 -0.5625,0.375 -1.25,0.54688 -0.67187,0.17187 -1.40625,0.17187 -1.25,0 -2.17187,-0.4375 -0.92188,-0.4375 -1.4375,-1.375 -0.51563,-0.9375 -0.51563,-2.4375 v -7.59375 h 3.17188 v 6.79688 q 0,1.25 0.4375,1.89062 0.45312,0.625 1.4375,0.625 0.96875,0 1.51562,-0.4375 0.5625,-0.4375 0.78125,-1.29687 0.21875,-0.85938 0.21875,-2.10938 v -5.46875 z m 9.84552,-0.21875 q 0.23437,0 0.54687,0.0312 0.32813,0.0156 0.51563,0.0625 l -0.23438,2.96875 q -0.15625,-0.0469 -0.45312,-0.0625 -0.28125,-0.0312 -0.48438,-0.0312 -0.60937,0 -1.1875,0.15625 -0.57812,0.15625 -1.04687,0.5 -0.45313,0.34375 -0.71875,0.92188 -0.26563,0.5625 -0.26563,1.39062 v 5.92188 h -3.17187 v -11.64063 h 2.40625 l 0.46875,1.95313 h 0.15625 q 0.34375,-0.59375 0.85937,-1.07813 0.51563,-0.5 1.17188,-0.79687 0.65625,-0.29688 1.4375,-0.29688 z m 7.98199,0 q 1.60938,0 2.78125,0.625 1.17188,0.60938 1.79688,1.79688 0.64062,1.17187 0.64062,2.85937 v 1.54688 h -7.51562 q 0.0625,1.34375 0.8125,2.10937 0.75,0.76563 2.09375,0.76563 1.125,0 2.04687,-0.21875 0.92188,-0.23438 1.90625,-0.70313 v 2.46875 q -0.85937,0.42188 -1.8125,0.60938 -0.9375,0.20312 -2.28125,0.20312 -1.75,0 -3.10937,-0.64062 -1.34375,-0.64063 -2.10938,-1.96875 -0.76562,-1.32813 -0.76562,-3.32813 0,-2.04687 0.6875,-3.40625 0.70312,-1.35937 1.9375,-2.03125 1.25,-0.6875 2.89062,-0.6875 z m 0.0156,2.25 q -0.92188,0 -1.53125,0.59375 -0.60938,0.59375 -0.70313,1.875 h 4.45313 q 0,-0.71875 -0.25,-1.26562 -0.25,-0.54688 -0.73438,-0.875 -0.48437,-0.32813 -1.23437,-0.32813 z m 18.43829,-5.60937 q 2.95312,0 4.29687,1.26562 1.35938,1.26563 1.35938,3.46875 0,1 -0.3125,1.92188 -0.29688,0.90625 -0.98438,1.625 -0.67187,0.70312 -1.8125,1.10937 -1.125,0.40625 -2.79687,0.40625 h -1.39063 v 5.42188 h -3.21875 v -15.21875 z m -0.17188,2.64062 h -1.46875 v 4.51563 h 1.0625 q 0.90625,0 1.57813,-0.23438 0.67187,-0.25 1.03125,-0.75 0.35937,-0.51562 0.35937,-1.3125 0,-1.125 -0.625,-1.67187 -0.625,-0.54688 -1.9375,-0.54688 z m 14.95508,0.71875 q 0.23438,0 0.54688,0.0312 0.32812,0.0156 0.51562,0.0625 l -0.23437,2.96875 q -0.15625,-0.0469 -0.45313,-0.0625 -0.28125,-0.0312 -0.48437,-0.0312 -0.60938,0 -1.1875,0.15625 -0.57813,0.15625 -1.04688,0.5 -0.45312,0.34375 -0.71875,0.92188 -0.26562,0.5625 -0.26562,1.39062 v 5.92188 h -3.17188 v -11.64063 h 2.40625 l 0.46875,1.95313 h 0.15625 q 0.34375,-0.59375 0.85938,-1.07813 0.51562,-0.5 1.17187,-0.79687 0.65625,-0.29688 1.4375,-0.29688 z m 13.76325,6.01563 q 0,1.45312 -0.39063,2.57812 -0.39062,1.125 -1.14062,1.90625 -0.73438,0.78125 -1.78125,1.17188 -1.04688,0.39062 -2.35938,0.39062 -1.23437,0 -2.26562,-0.39062 -1.01563,-0.39063 -1.78125,-1.17188 -0.75,-0.78125 -1.17188,-1.90625 -0.40625,-1.125 -0.40625,-2.57812 0,-1.9375 0.6875,-3.28125 0.6875,-1.34375 1.95313,-2.03125 1.28125,-0.70313 3.04687,-0.70313 1.625,0 2.89063,0.70313 1.26562,0.6875 1.98437,2.03125 0.73438,1.34375 0.73438,3.28125 z m -8.04688,0 q 0,1.14062 0.25,1.92187 0.25,0.78125 0.78125,1.1875 0.53125,0.39063 1.375,0.39063 0.84375,0 1.375,-0.39063 0.53125,-0.40625 0.76563,-1.1875 0.25,-0.78125 0.25,-1.92187 0,-1.15625 -0.25,-1.92188 -0.23438,-0.76562 -0.76563,-1.14062 -0.53125,-0.39063 -1.39062,-0.39063 -1.26563,0 -1.82813,0.85938 -0.5625,0.85937 -0.5625,2.59375 z m 13.43952,5.84375 -4.4375,-11.64063 h 3.32812 l 2.25,6.625 q 0.1875,0.59375 0.29688,1.23438 0.10937,0.64062 0.14062,1.15625 h 0.0937 q 0.0312,-0.54688 0.14063,-1.17188 0.125,-0.625 0.32812,-1.21875 l 2.23438,-6.625 h 3.3125 l -4.42188,11.64063 z m 12.53869,-11.64063 v 11.64063 h -3.17187 v -11.64063 z m -1.57812,-4.5625 q 0.70312,0 1.20312,0.32813 0.51563,0.32812 0.51563,1.21875 0,0.89062 -0.51563,1.23437 -0.5,0.32813 -1.20312,0.32813 -0.71875,0 -1.23438,-0.32813 -0.5,-0.34375 -0.5,-1.23437 0,-0.89063 0.5,-1.21875 0.51563,-0.32813 1.23438,-0.32813 z m 8.6026,16.40625 q -1.95313,0 -3.1875,-1.51562 -1.21875,-1.53125 -1.21875,-4.48438 0,-3 1.23437,-4.53125 1.25,-1.53125 3.25,-1.53125 0.82813,0 1.46875,0.23438 0.64063,0.21875 1.09375,0.60937 0.46875,0.375 0.79688,0.85938 h 0.0937 q -0.0625,-0.32813 -0.15625,-0.96875 -0.0781,-0.65625 -0.0781,-1.34375 v -3.73438 h 3.1875 v 16.20313 h -2.4375 l -0.60937,-1.51563 h -0.14063 q -0.29687,0.48438 -0.75,0.875 -0.45312,0.39063 -1.07812,0.625 -0.625,0.21875 -1.46875,0.21875 z m 1.10937,-2.53125 q 1.29688,0 1.82813,-0.76562 0.54687,-0.78125 0.57812,-2.34375 v -0.34375 q 0,-1.70313 -0.53125,-2.59375 -0.51562,-0.90625 -1.92187,-0.90625 -1.0625,0 -1.65625,0.90625 -0.59375,0.90625 -0.59375,2.60937 0,1.71875 0.59375,2.57813 0.60937,0.85937 1.70312,0.85937 z m 13.49671,-9.53125 q 1.60937,0 2.78125,0.625 1.17187,0.60938 1.79687,1.79688 0.64063,1.17187 0.64063,2.85937 v 1.54688 h -7.51563 q 0.0625,1.34375 0.8125,2.10937 0.75,0.76563 2.09375,0.76563 1.125,0 2.04688,-0.21875 0.92187,-0.23438 1.90625,-0.70313 v 2.46875 q -0.85938,0.42188 -1.8125,0.60938 -0.9375,0.20312 -2.28125,0.20312 -1.75,0 -3.10938,-0.64062 -1.34375,-0.64063 -2.10937,-1.96875 -0.76563,-1.32813 -0.76563,-3.32813 0,-2.04687 0.6875,-3.40625 0.70313,-1.35937 1.9375,-2.03125 1.25,-0.6875 2.89063,-0.6875 z m 0.0156,2.25 q -0.92187,0 -1.53125,0.59375 -0.60937,0.59375 -0.70312,1.875 h 4.45312 q 0,-0.71875 -0.25,-1.26562 -0.25,-0.54688 -0.73437,-0.875 -0.48438,-0.32813 -1.23438,-0.32813 z m 14.28858,-2.25 q 0.23437,0 0.54687,0.0312 0.32813,0.0156 0.51563,0.0625 l -0.23438,2.96875 q -0.15625,-0.0469 -0.45312,-0.0625 -0.28125,-0.0312 -0.48438,-0.0312 -0.60937,0 -1.1875,0.15625 -0.57812,0.15625 -1.04687,0.5 -0.45313,0.34375 -0.71875,0.92188 -0.26563,0.5625 -0.26563,1.39062 v 5.92188 h -3.17187 v -11.64063 h 2.40625 l 0.46875,1.95313 h 0.15625 q 0.34375,-0.59375 0.85937,-1.07813 0.51563,-0.5 1.17188,-0.79687 0.65625,-0.29688 1.4375,-0.29688 z m 7.91296,6.01563 q 0,-1.73438 0.32812,-3.39063 0.32813,-1.67187 1.03125,-3.1875 0.70313,-1.51562 1.76563,-2.79687 h 2.60937 q -1.45312,2 -2.21875,4.42187 -0.75,2.40625 -0.75,4.9375 0,1.64063 0.32813,3.28125 0.34375,1.625 1,3.125 0.65625,1.51563 1.625,2.82813 h -2.59375 q -1.0625,-1.25 -1.76563,-2.73438 -0.70312,-1.48437 -1.03125,-3.125 -0.32812,-1.64062 -0.32812,-3.35937 z m 13.14923,-9.375 q 2.95313,0 4.29688,1.26562 1.35937,1.26563 1.35937,3.46875 0,1 -0.3125,1.92188 -0.29687,0.90625 -0.98437,1.625 -0.67188,0.70312 -1.8125,1.10937 -1.125,0.40625 -2.79688,0.40625 h -1.39062 v 5.42188 h -3.21875 v -15.21875 z m -0.17187,2.64062 h -1.46875 v 4.51563 h 1.0625 q 0.90625,0 1.57812,-0.23438 0.67188,-0.25 1.03125,-0.75 0.35938,-0.51562 0.35938,-1.3125 0,-1.125 -0.625,-1.67187 -0.625,-0.54688 -1.9375,-0.54688 z m 8.70507,12.57813 v -15.21875 h 3.21875 v 15.21875 z m 11.92017,-15.21875 q 2.95312,0 4.29687,1.26562 1.35938,1.26563 1.35938,3.46875 0,1 -0.3125,1.92188 -0.29688,0.90625 -0.98438,1.625 -0.67187,0.70312 -1.8125,1.10937 -1.125,0.40625 -2.79687,0.40625 h -1.39063 v 5.42188 h -3.21875 v -15.21875 z m -0.17188,2.64062 h -1.46875 v 4.51563 h 1.0625 q 0.90625,0 1.57813,-0.23438 0.67187,-0.25 1.03125,-0.75 0.35937,-0.51562 0.35937,-1.3125 0,-1.125 -0.625,-1.67187 -0.625,-0.54688 -1.9375,-0.54688 z m 13.15821,6.73438 q 0,1.71875 -0.34375,3.35937 -0.32813,1.64063 -1.01563,3.125 -0.6875,1.48438 -1.78125,2.73438 h -2.57812 q 0.96875,-1.3125 1.625,-2.82813 0.65625,-1.5 0.98437,-3.125 0.34375,-1.64062 0.34375,-3.28125 0,-1.6875 -0.34375,-3.32812 -0.34375,-1.65625 -1,-3.17188 -0.65625,-1.53125 -1.625,-2.85937 h 2.59375 q 1.09375,1.28125 1.78125,2.79687 0.6875,1.51563 1.01563,3.1875 0.34375,1.65625 0.34375,3.39063 z"
       fill-rule="nonzero"
       id="path21" />
    <path
       fill="#4571a7"
       d="m 176.73596,73.79291 h 656.7798 v 58.25316 h -656.7798 z"
       fill-rule="evenodd"
       id="path25" />
    <path
       fill="#ffffff"
       d="m 400.22293,108.45855 h -4.10937 l -6.60938,-11.51562 h -0.0937 q 0.0312,0.71875 0.0625,1.453125 0.0312,0.71875 0.0625,1.453125 0.0312,0.71875 0.0625,1.4375 v 7.17187 h -2.875 V 93.239805 h 4.0625 l 6.60938,11.390625 h 0.0781 q -0.0156,-0.70313 -0.0469,-1.39063 -0.0312,-0.70312 -0.0625,-1.40625 -0.0312,-0.70312 -0.0469,-1.39062 v -7.203125 h 2.90625 z m 8.38638,-11.85937 q 1.60938,0 2.78125,0.625 1.17188,0.609375 1.79688,1.796875 0.64062,1.171875 0.64062,2.859375 v 1.54687 h -7.51562 q 0.0625,1.34375 0.8125,2.10938 0.75,0.76562 2.09375,0.76562 1.125,0 2.04687,-0.21875 0.92188,-0.23437 1.90625,-0.70312 v 2.46875 q -0.85937,0.42187 -1.8125,0.60937 -0.9375,0.20313 -2.28125,0.20313 -1.75,0 -3.10937,-0.64063 -1.34375,-0.64062 -2.10938,-1.96875 -0.76562,-1.32812 -0.76562,-3.32812 0,-2.04688 0.6875,-3.40625 0.70312,-1.359375 1.9375,-2.03125 1.25,-0.6875 2.89062,-0.6875 z m 0.0156,2.25 q -0.92188,0 -1.53125,0.59375 -0.60938,0.59375 -0.70313,1.875 h 4.45313 q 0,-0.71875 -0.25,-1.26563 -0.25,-0.54687 -0.73438,-0.874995 -0.48437,-0.328125 -1.23437,-0.328125 z m 12.69485,7.28125 q 0.51563,0 1,-0.0937 0.5,-0.10938 1,-0.26563 v 2.35938 q -0.51562,0.23437 -1.28125,0.375 -0.75,0.15625 -1.64062,0.15625 -1.04688,0 -1.875,-0.32813 -0.82813,-0.34375 -1.29688,-1.17187 -0.46875,-0.84375 -0.46875,-2.34375 v -5.625 h -1.53125 v -1.34375 l 1.75,-1.046875 0.92188,-2.46875 h 2.03125 v 2.484375 h 3.26562 v 2.375 h -3.26562 v 5.625 q 0,0.65625 0.375,0.98437 0.39062,0.32813 1.01562,0.32813 z m 13.9144,2.32812 -0.89062,-4.07812 q -0.0781,-0.35938 -0.25,-1.0625 -0.15625,-0.71875 -0.35938,-1.53125 -0.1875,-0.82813 -0.34375,-1.51563 -0.15625,-0.70312 -0.23437,-1.031245 h -0.0937 q -0.0781,0.328125 -0.23438,1.031245 -0.15625,0.6875 -0.34375,1.51563 -0.1875,0.8125 -0.35937,1.54687 -0.17188,0.71875 -0.25,1.09375 l -0.9375,4.03125 h -3.42188 l -3.3125,-11.64062 h 3.17188 l 1.34375,5.15625 q 0.14062,0.53125 0.26562,1.28125 0.125,0.75 0.21875,1.4375 0.0937,0.6875 0.15625,1.09375 h 0.0781 q 0.0156,-0.29688 0.0781,-0.79688 0.0781,-0.5 0.15625,-1.03125 0.0937,-0.54687 0.17188,-0.96875 0.0781,-0.4375 0.125,-0.59375 l 1.4375,-5.57812 h 3.5 l 1.35937,5.57812 q 0.0781,0.29688 0.1875,0.95313 0.125,0.65625 0.21875,1.35937 0.0937,0.6875 0.10938,1.07813 h 0.0781 q 0.0469,-0.34375 0.14063,-1.04688 0.10937,-0.70312 0.25,-1.46875 0.14062,-0.76562 0.28125,-1.29687 l 1.40625,-5.15625 h 3.10937 l -3.35937,11.64062 z m 19.27161,-5.84375 q 0,1.45313 -0.39063,2.57813 -0.39062,1.125 -1.14062,1.90625 -0.73438,0.78125 -1.78125,1.17187 -1.04688,0.39063 -2.35938,0.39063 -1.23437,0 -2.26562,-0.39063 -1.01563,-0.39062 -1.78125,-1.17187 -0.75,-0.78125 -1.17188,-1.90625 -0.40625,-1.125 -0.40625,-2.57813 0,-1.9375 0.6875,-3.281245 0.6875,-1.34375 1.95313,-2.03125 1.28125,-0.703125 3.04687,-0.703125 1.625,0 2.89063,0.703125 1.26562,0.6875 1.98437,2.03125 0.73438,1.343745 0.73438,3.281245 z m -8.04688,0 q 0,1.14063 0.25,1.92188 0.25,0.78125 0.78125,1.1875 0.53125,0.39062 1.375,0.39062 0.84375,0 1.375,-0.39062 0.53125,-0.40625 0.76563,-1.1875 0.25,-0.78125 0.25,-1.92188 0,-1.15625 -0.25,-1.92187 -0.23438,-0.765625 -0.76563,-1.140625 -0.53125,-0.390625 -1.39062,-0.390625 -1.26563,0 -1.82813,0.85937 -0.5625,0.85938 -0.5625,2.59375 z m 17.17386,-6.01562 q 0.23438,0 0.54688,0.03125 0.32812,0.01563 0.51562,0.0625 l -0.23437,2.96875 q -0.15625,-0.04687 -0.45313,-0.0625 -0.28125,-0.03125 -0.48437,-0.03125 -0.60938,0 -1.1875,0.15625 -0.57813,0.15625 -1.04688,0.5 -0.45312,0.34375 -0.71875,0.92187 -0.26562,0.5625 -0.26562,1.39063 v 5.92187 h -3.17188 V 96.81793 h 2.40625 l 0.46875,1.953125 h 0.15625 q 0.34375,-0.59375 0.85938,-1.078125 0.51562,-0.5 1.17187,-0.796875 0.65625,-0.296875 1.4375,-0.296875 z m 6.35703,-4.34375 v 7.25 q 0,0.65625 -0.0625,1.3125 -0.0469,0.65625 -0.10938,1.3125 h 0.0469 q 0.32812,-0.46875 0.65625,-0.90625 0.34375,-0.45313 0.73437,-0.875 l 3.25,-3.53125 h 3.57813 l -4.60938,5.04687 4.89063,6.59375 h -3.65625 l -3.35938,-4.71875 -1.35937,1.09375 v 3.625 h -3.17188 V 92.25543 Z m 22.06311,4.34375 q 1.96875,0 3.17187,1.53125 1.21875,1.53125 1.21875,4.48437 0,1.98438 -0.57812,3.32813 -0.5625,1.34375 -1.57813,2.03125 -1,0.6875 -2.3125,0.6875 -0.84375,0 -1.45312,-0.20313 -0.59375,-0.21875 -1.03125,-0.54687 -0.42188,-0.34375 -0.73438,-0.73438 h -0.17187 q 0.0937,0.42188 0.125,0.85938 0.0469,0.4375 0.0469,0.84375 v 4.70312 h -3.17187 V 96.81793 h 2.57812 l 0.45313,1.5 h 0.14062 q 0.3125,-0.46875 0.75,-0.859375 0.45313,-0.390625 1.07813,-0.625 0.64062,-0.234375 1.46875,-0.234375 z m -1.01563,2.53125 q -0.82812,0 -1.32812,0.34375 -0.48438,0.34375 -0.71875,1.03125 -0.21875,0.6875 -0.23438,1.75 v 0.34375 q 0,1.125 0.20313,1.90625 0.21875,0.78125 0.71875,1.1875 0.51562,0.40625 1.40625,0.40625 0.71875,0 1.1875,-0.40625 0.46875,-0.40625 0.70312,-1.1875 0.23438,-0.79688 0.23438,-1.9375 0,-1.70313 -0.53125,-2.5625 -0.53125,-0.875 -1.64063,-0.875 z m 14.54358,-2.53125 q 0.23438,0 0.54688,0.03125 0.32812,0.01563 0.51562,0.0625 l -0.23437,2.96875 q -0.15625,-0.04687 -0.45313,-0.0625 -0.28125,-0.03125 -0.48437,-0.03125 -0.60938,0 -1.1875,0.15625 -0.57813,0.15625 -1.04688,0.5 -0.45312,0.34375 -0.71875,0.92187 -0.26562,0.5625 -0.26562,1.39063 v 5.92187 h -3.17188 V 96.81793 h 2.40625 l 0.46875,1.953125 h 0.15625 q 0.34375,-0.59375 0.85938,-1.078125 0.51562,-0.5 1.17187,-0.796875 0.65625,-0.296875 1.4375,-0.296875 z m 13.76325,6.01562 q 0,1.45313 -0.39063,2.57813 -0.39062,1.125 -1.14062,1.90625 -0.73438,0.78125 -1.78125,1.17187 -1.04688,0.39063 -2.35938,0.39063 -1.23437,0 -2.26562,-0.39063 -1.01563,-0.39062 -1.78125,-1.17187 -0.75,-0.78125 -1.17188,-1.90625 -0.40625,-1.125 -0.40625,-2.57813 0,-1.9375 0.6875,-3.281245 0.6875,-1.34375 1.95313,-2.03125 1.28125,-0.703125 3.04687,-0.703125 1.625,0 2.89063,0.703125 1.26562,0.6875 1.98437,2.03125 0.73438,1.343745 0.73438,3.281245 z m -8.04688,0 q 0,1.14063 0.25,1.92188 0.25,0.78125 0.78125,1.1875 0.53125,0.39062 1.375,0.39062 0.84375,0 1.375,-0.39062 0.53125,-0.40625 0.76563,-1.1875 0.25,-0.78125 0.25,-1.92188 0,-1.15625 -0.25,-1.92187 -0.23438,-0.765625 -0.76563,-1.140625 -0.53125,-0.390625 -1.39062,-0.390625 -1.26563,0 -1.82813,0.85937 -0.5625,0.85938 -0.5625,2.59375 z m 13.43951,5.84375 -4.4375,-11.64062 h 3.32813 l 2.25,6.625 q 0.1875,0.59375 0.29687,1.23437 0.10938,0.64063 0.14063,1.15625 h 0.0937 q 0.0312,-0.54687 0.14062,-1.17187 0.125,-0.625 0.32813,-1.21875 l 2.23437,-6.625 h 3.3125 l -4.42187,11.64062 z m 12.5387,-11.64062 v 11.64062 h -3.17187 V 96.81793 Z m -1.57812,-4.5625 q 0.70312,0 1.20312,0.328125 0.51563,0.328125 0.51563,1.21875 0,0.890625 -0.51563,1.234375 -0.5,0.328125 -1.20312,0.328125 -0.71875,0 -1.23438,-0.328125 -0.5,-0.34375 -0.5,-1.234375 0,-0.890625 0.5,-1.21875 0.51563,-0.328125 1.23438,-0.328125 z m 8.6026,16.40625 q -1.95313,0 -3.1875,-1.51563 -1.21875,-1.53125 -1.21875,-4.48437 0,-3 1.23437,-4.53125 1.25,-1.53125 3.25,-1.53125 0.82813,0 1.46875,0.234375 0.64063,0.21875 1.09375,0.609375 0.46875,0.375 0.79688,0.859375 h 0.0937 q -0.0625,-0.328125 -0.15625,-0.96875 -0.0781,-0.65625 -0.0781,-1.34375 V 92.25543 h 3.1875 v 16.20312 h -2.4375 l -0.60937,-1.51562 h -0.14063 q -0.29687,0.48437 -0.75,0.875 -0.45312,0.39062 -1.07812,0.625 -0.625,0.21875 -1.46875,0.21875 z m 1.10937,-2.53125 q 1.29688,0 1.82813,-0.76563 0.54687,-0.78125 0.57812,-2.34375 v -0.34375 q 0,-1.70312 -0.53125,-2.59375 -0.51562,-0.906245 -1.92187,-0.906245 -1.0625,0 -1.65625,0.906245 -0.59375,0.90625 -0.59375,2.60938 0,1.71875 0.59375,2.57812 0.60937,0.85938 1.70312,0.85938 z m 13.4967,-9.53125 q 1.60938,0 2.78125,0.625 1.17188,0.609375 1.79688,1.796875 0.64062,1.171875 0.64062,2.859375 v 1.54687 h -7.51562 q 0.0625,1.34375 0.8125,2.10938 0.75,0.76562 2.09375,0.76562 1.125,0 2.04687,-0.21875 0.92188,-0.23437 1.90625,-0.70312 v 2.46875 q -0.85937,0.42187 -1.8125,0.60937 -0.9375,0.20313 -2.28125,0.20313 -1.75,0 -3.10937,-0.64063 -1.34375,-0.64062 -2.10938,-1.96875 -0.76562,-1.32812 -0.76562,-3.32812 0,-2.04688 0.6875,-3.40625 0.70312,-1.359375 1.9375,-2.03125 1.25,-0.6875 2.89062,-0.6875 z m 0.0156,2.25 q -0.92188,0 -1.53125,0.59375 -0.60938,0.59375 -0.70313,1.875 h 4.45313 q 0,-0.71875 -0.25,-1.26563 -0.25,-0.54687 -0.73438,-0.874995 -0.48437,-0.328125 -1.23437,-0.328125 z m 14.28857,-2.25 q 0.23438,0 0.54688,0.03125 0.32812,0.01563 0.51562,0.0625 l -0.23437,2.96875 q -0.15625,-0.04687 -0.45313,-0.0625 -0.28125,-0.03125 -0.48437,-0.03125 -0.60938,0 -1.1875,0.15625 -0.57813,0.15625 -1.04688,0.5 -0.45312,0.34375 -0.71875,0.92187 -0.26562,0.5625 -0.26562,1.39063 v 5.92187 H 566.7102 V 96.81793 h 2.40625 l 0.46875,1.953125 h 0.15625 q 0.34375,-0.59375 0.85938,-1.078125 0.51562,-0.5 1.17187,-0.796875 0.65625,-0.296875 1.4375,-0.296875 z m 7.91297,6.01562 q 0,-1.73437 0.32812,-3.39062 0.32813,-1.671875 1.03125,-3.1875 0.70313,-1.515625 1.76563,-2.796875 h 2.60937 q -1.45312,2 -2.21875,4.421875 -0.75,2.40625 -0.75,4.9375 0,1.64062 0.32813,3.28125 0.34375,1.625 1,3.125 0.65625,1.51562 1.625,2.82812 h -2.59375 q -1.0625,-1.25 -1.76563,-2.73437 -0.70312,-1.48438 -1.03125,-3.125 -0.32812,-1.64063 -0.32812,-3.35938 z m 21.78985,5.84375 h -4.10937 l -6.60938,-11.51562 h -0.0937 q 0.0312,0.71875 0.0625,1.453125 0.0312,0.71875 0.0625,1.453125 0.0312,0.71875 0.0625,1.4375 v 7.17187 h -2.875 V 93.239805 h 4.0625 l 6.60938,11.390625 h 0.0781 q -0.0156,-0.70313 -0.0469,-1.39063 -0.0312,-0.70312 -0.0625,-1.40625 -0.0312,-0.70312 -0.0469,-1.39062 v -7.203125 h 2.90625 z m 8.69892,-15.218745 q 2.95312,0 4.29687,1.265625 1.35938,1.265625 1.35938,3.46875 0,1 -0.3125,1.921875 -0.29688,0.906245 -0.98438,1.624995 -0.67187,0.70313 -1.8125,1.10938 -1.125,0.40625 -2.79687,0.40625 h -1.39063 v 5.42187 H 606.7525 V 93.239805 Z M 611.44,95.88043 h -1.46875 v 4.51562 h 1.0625 q 0.90625,0 1.57813,-0.23437 0.67187,-0.25 1.03125,-0.75 0.35937,-0.515625 0.35937,-1.3125 0,-1.125 -0.625,-1.671875 -0.625,-0.546875 -1.9375,-0.546875 z m 13.15821,6.73437 q 0,1.71875 -0.34375,3.35938 -0.32813,1.64062 -1.01563,3.125 -0.6875,1.48437 -1.78125,2.73437 h -2.57812 q 0.96875,-1.3125 1.625,-2.82812 0.65625,-1.5 0.98437,-3.125 0.34375,-1.64063 0.34375,-3.28125 0,-1.6875 -0.34375,-3.328125 -0.34375,-1.65625 -1,-3.171875 -0.65625,-1.53125 -1.625,-2.859375 h 2.59375 q 1.09375,1.28125 1.78125,2.796875 0.6875,1.515625 1.01563,3.1875 0.34375,1.65625 0.34375,3.39062 z"
       fill-rule="nonzero"
       id="path27" />
    <path
       fill="#8bd1f0"
       d="m 176.00008,-1.1572179e-5 h 656.7798 V 64.278958 h -656.7798 z"
       fill-rule="evenodd"
       id="path31" />
    <path
       fill="#ffffff"
       d="m 406.43216,33.44416 q 0,1.359375 -0.65625,2.359375 -0.65625,1 -1.92188,1.546875 -1.25,0.53125 -3.03125,0.53125 -0.79687,0 -1.5625,-0.109375 -0.75,-0.09375 -1.4375,-0.296875 -0.6875,-0.203125 -1.3125,-0.5 v -3 q 1.07813,0.46875 2.23438,0.859375 1.17187,0.390625 2.32812,0.390625 0.78125,0 1.26563,-0.203125 0.48437,-0.21875 0.70312,-0.578125 0.21875,-0.375 0.21875,-0.84375 0,-0.5625 -0.39062,-0.96875 -0.375,-0.40625 -1.04688,-0.765625 -0.67187,-0.359375 -1.51562,-0.765625 -0.53125,-0.25 -1.15625,-0.609375 -0.625,-0.359375 -1.1875,-0.875 -0.5625,-0.515625 -0.92188,-1.265625 -0.35937,-0.75 -0.35937,-1.78125 0,-1.359375 0.625,-2.328125 0.625,-0.96875 1.78125,-1.484375 1.17187,-0.515625 2.75,-0.515625 1.1875,0 2.26562,0.28125 1.07813,0.265625 2.25,0.78125 l -1.03125,2.515625 q -1.0625,-0.421875 -1.89062,-0.65625 -0.82813,-0.234375 -1.70313,-0.234375 -0.59375,0 -1.03125,0.1875 -0.42187,0.1875 -0.64062,0.546875 -0.21875,0.34375 -0.21875,0.796875 0,0.546875 0.3125,0.921875 0.32812,0.359375 0.96875,0.703125 0.64062,0.34375 1.59375,0.796875 1.17187,0.5625 2,1.15625 0.82812,0.59375 1.26562,1.40625 0.45313,0.8125 0.45313,2 z m 7.30963,-7.625 q 1.60938,0 2.78125,0.625 1.17188,0.609375 1.79688,1.796875 0.64062,1.171875 0.64062,2.859375 v 1.546875 h -7.51562 q 0.0625,1.34375 0.8125,2.109375 0.75,0.765625 2.09375,0.765625 1.125,0 2.04687,-0.21875 0.92188,-0.234375 1.90625,-0.703125 v 2.46875 q -0.85937,0.421875 -1.8125,0.609375 -0.9375,0.203125 -2.28125,0.203125 -1.75,0 -3.10937,-0.640625 -1.34375,-0.640625 -2.10938,-1.96875 -0.76562,-1.328125 -0.76562,-3.328125 0,-2.046875 0.6875,-3.40625 0.70312,-1.359375 1.9375,-2.03125 1.25,-0.6875 2.89062,-0.6875 z m 0.0156,2.25 q -0.92188,0 -1.53125,0.59375 -0.60938,0.59375 -0.70313,1.875 h 4.45313 q 0,-0.71875 -0.25,-1.265625 -0.25,-0.546875 -0.73438,-0.875 -0.48437,-0.328125 -1.23437,-0.328125 z m 14.28857,-2.25 q 0.23438,0 0.54688,0.03125 0.32812,0.01563 0.51562,0.0625 l -0.23437,2.96875 q -0.15625,-0.04687 -0.45313,-0.0625 -0.28125,-0.03125 -0.48437,-0.03125 -0.60938,0 -1.1875,0.15625 -0.57813,0.15625 -1.04688,0.5 -0.45312,0.34375 -0.71875,0.921875 -0.26562,0.5625 -0.26562,1.390625 v 5.921875 h -3.17188 V 26.03791 h 2.40625 l 0.46875,1.953125 h 0.15625 q 0.34375,-0.59375 0.85938,-1.078125 0.51562,-0.5 1.17187,-0.796875 0.65625,-0.296875 1.4375,-0.296875 z m 5.95078,11.859375 -4.4375,-11.640625 h 3.32812 l 2.25,6.625 q 0.1875,0.59375 0.29688,1.234375 0.10937,0.640625 0.14062,1.15625 h 0.0937 q 0.0312,-0.546875 0.14063,-1.171875 0.125,-0.625 0.32812,-1.21875 l 2.23438,-6.625 h 3.3125 l -4.42188,11.640625 z M 446.53543,26.03791 v 11.640625 h -3.17187 V 26.03791 Z m -1.57812,-4.5625 q 0.70312,0 1.20312,0.328125 0.51563,0.328125 0.51563,1.21875 0,0.890625 -0.51563,1.234375 -0.5,0.328125 -1.20312,0.328125 -0.71875,0 -1.23438,-0.328125 -0.5,-0.34375 -0.5,-1.234375 0,-0.890625 0.5,-1.21875 0.51563,-0.328125 1.23438,-0.328125 z m 9.63385,16.40625 q -1.71875,0 -2.9375,-0.625 -1.21875,-0.625 -1.85938,-1.953125 -0.64062,-1.328125 -0.64062,-3.390625 0,-2.125 0.71875,-3.46875 0.73437,-1.359375 2.01562,-1.984375 1.29688,-0.640625 2.98438,-0.640625 1.21875,0 2.09375,0.234375 0.875,0.234375 1.53125,0.5625 l -0.9375,2.453125 q -0.75,-0.3125 -1.39063,-0.5 -0.64062,-0.1875 -1.29687,-0.1875 -0.82813,0 -1.39063,0.390625 -0.54687,0.390625 -0.8125,1.171875 -0.26562,0.78125 -0.26562,1.953125 0,1.15625 0.28125,1.921875 0.29687,0.75 0.84375,1.125 0.5625,0.375 1.34375,0.375 1,0 1.76562,-0.265625 0.76563,-0.265625 1.5,-0.75 v 2.71875 q -0.73437,0.453125 -1.53125,0.65625 -0.79687,0.203125 -2.01562,0.203125 z m 11.04419,-12.0625 q 1.60937,0 2.78125,0.625 1.17187,0.609375 1.79687,1.796875 0.64063,1.171875 0.64063,2.859375 v 1.546875 h -7.51563 q 0.0625,1.34375 0.8125,2.109375 0.75,0.765625 2.09375,0.765625 1.125,0 2.04688,-0.21875 0.92187,-0.234375 1.90625,-0.703125 v 2.46875 q -0.85938,0.421875 -1.8125,0.609375 -0.9375,0.203125 -2.28125,0.203125 -1.75,0 -3.10938,-0.640625 -1.34375,-0.640625 -2.10937,-1.96875 -0.76563,-1.328125 -0.76563,-3.328125 0,-2.046875 0.6875,-3.40625 0.70313,-1.359375 1.9375,-2.03125 1.25,-0.6875 2.89063,-0.6875 z m 0.0156,2.25 q -0.92187,0 -1.53125,0.59375 -0.60937,0.59375 -0.70312,1.875 h 4.45312 q 0,-0.71875 -0.25,-1.265625 -0.25,-0.546875 -0.73437,-0.875 -0.48438,-0.328125 -1.23438,-0.328125 z m 19.79767,-2.25 q 1.96875,0 3.17187,1.53125 1.21875,1.53125 1.21875,4.484375 0,1.984375 -0.57812,3.328125 -0.5625,1.34375 -1.57813,2.03125 -1,0.6875 -2.3125,0.6875 -0.84375,0 -1.45312,-0.203125 -0.59375,-0.21875 -1.03125,-0.546875 -0.42188,-0.34375 -0.73438,-0.734375 h -0.17187 q 0.0937,0.421875 0.125,0.859375 0.0469,0.4375 0.0469,0.84375 v 4.703127 H 478.9799 V 26.03791 h 2.57812 l 0.45313,1.5 h 0.14062 q 0.3125,-0.46875 0.75,-0.859375 0.45313,-0.390625 1.07813,-0.625 0.64062,-0.234375 1.46875,-0.234375 z m -1.01563,2.53125 q -0.82812,0 -1.32812,0.34375 -0.48438,0.34375 -0.71875,1.03125 -0.21875,0.6875 -0.23438,1.75 v 0.34375 q 0,1.125 0.20313,1.90625 0.21875,0.78125 0.71875,1.1875 0.51562,0.40625 1.40625,0.40625 0.71875,0 1.1875,-0.40625 0.46875,-0.40625 0.70312,-1.1875 0.23438,-0.796875 0.23438,-1.9375 0,-1.703125 -0.53125,-2.5625 -0.53125,-0.875 -1.64063,-0.875 z m 14.54358,-2.53125 q 0.23438,0 0.54688,0.03125 0.32812,0.01563 0.51562,0.0625 l -0.23437,2.96875 q -0.15625,-0.04687 -0.45313,-0.0625 -0.28125,-0.03125 -0.48437,-0.03125 -0.60938,0 -1.1875,0.15625 -0.57813,0.15625 -1.04688,0.5 -0.45312,0.34375 -0.71875,0.921875 -0.26562,0.5625 -0.26562,1.390625 v 5.921875 h -3.17188 V 26.03791 h 2.40625 l 0.46875,1.953125 h 0.15625 q 0.34375,-0.59375 0.85938,-1.078125 0.51562,-0.5 1.17187,-0.796875 0.65625,-0.296875 1.4375,-0.296875 z m 13.76325,6.015625 q 0,1.453125 -0.39063,2.578125 -0.39062,1.125 -1.14062,1.90625 -0.73438,0.78125 -1.78125,1.171875 -1.04688,0.390625 -2.35938,0.390625 -1.23437,0 -2.26562,-0.390625 -1.01563,-0.390625 -1.78125,-1.171875 -0.75,-0.78125 -1.17188,-1.90625 -0.40625,-1.125 -0.40625,-2.578125 0,-1.9375 0.6875,-3.28125 0.6875,-1.34375 1.95313,-2.03125 1.28125,-0.703125 3.04687,-0.703125 1.625,0 2.89063,0.703125 1.26562,0.6875 1.98437,2.03125 0.73438,1.34375 0.73438,3.28125 z m -8.04688,0 q 0,1.140625 0.25,1.921875 0.25,0.78125 0.78125,1.1875 0.53125,0.390625 1.375,0.390625 0.84375,0 1.375,-0.390625 0.53125,-0.40625 0.76563,-1.1875 0.25,-0.78125 0.25,-1.921875 0,-1.15625 -0.25,-1.921875 -0.23438,-0.765625 -0.76563,-1.140625 -0.53125,-0.390625 -1.39062,-0.390625 -1.26563,0 -1.82813,0.859375 -0.5625,0.859375 -0.5625,2.59375 z m 13.43952,5.84375 -4.4375,-11.640625 h 3.32812 l 2.25,6.625 q 0.1875,0.59375 0.29688,1.234375 0.10937,0.640625 0.14062,1.15625 h 0.0937 q 0.0312,-0.546875 0.14063,-1.171875 0.125,-0.625 0.32812,-1.21875 l 2.23438,-6.625 h 3.3125 l -4.42188,11.640625 z M 530.6712,26.03791 v 11.640625 h -3.17187 V 26.03791 Z m -1.57812,-4.5625 q 0.70312,0 1.20312,0.328125 0.51563,0.328125 0.51563,1.21875 0,0.890625 -0.51563,1.234375 -0.5,0.328125 -1.20312,0.328125 -0.71875,0 -1.23438,-0.328125 -0.5,-0.34375 -0.5,-1.234375 0,-0.890625 0.5,-1.21875 0.51563,-0.328125 1.23438,-0.328125 z m 8.6026,16.40625 q -1.95313,0 -3.1875,-1.515625 -1.21875,-1.53125 -1.21875,-4.484375 0,-3 1.23437,-4.53125 1.25,-1.53125 3.25,-1.53125 0.82813,0 1.46875,0.234375 0.64063,0.21875 1.09375,0.609375 0.46875,0.375 0.79688,0.859375 h 0.0937 q -0.0625,-0.328125 -0.15625,-0.96875 -0.0781,-0.65625 -0.0781,-1.34375 V 21.47541 h 3.1875 v 16.203125 h -2.4375 l -0.60937,-1.515625 h -0.14063 q -0.29687,0.484375 -0.75,0.875 -0.45312,0.390625 -1.07812,0.625 -0.625,0.21875 -1.46875,0.21875 z m 1.10937,-2.53125 q 1.29688,0 1.82813,-0.765625 0.54687,-0.78125 0.57812,-2.34375 v -0.34375 q 0,-1.703125 -0.53125,-2.59375 -0.51562,-0.90625 -1.92187,-0.90625 -1.0625,0 -1.65625,0.90625 -0.59375,0.90625 -0.59375,2.609375 0,1.71875 0.59375,2.578125 0.60937,0.859375 1.70312,0.859375 z m 13.49671,-9.53125 q 1.60937,0 2.78125,0.625 1.17187,0.609375 1.79687,1.796875 0.64063,1.171875 0.64063,2.859375 v 1.546875 h -7.51563 q 0.0625,1.34375 0.8125,2.109375 0.75,0.765625 2.09375,0.765625 1.125,0 2.04688,-0.21875 0.92187,-0.234375 1.90625,-0.703125 v 2.46875 q -0.85938,0.421875 -1.8125,0.609375 -0.9375,0.203125 -2.28125,0.203125 -1.75,0 -3.10938,-0.640625 -1.34375,-0.640625 -2.10937,-1.96875 -0.76563,-1.328125 -0.76563,-3.328125 0,-2.046875 0.6875,-3.40625 0.70313,-1.359375 1.9375,-2.03125 1.25,-0.6875 2.89063,-0.6875 z m 0.0156,2.25 q -0.92187,0 -1.53125,0.59375 -0.60937,0.59375 -0.70312,1.875 h 4.45312 q 0,-0.71875 -0.25,-1.265625 -0.25,-0.546875 -0.73437,-0.875 -0.48438,-0.328125 -1.23438,-0.328125 z m 14.28858,-2.25 q 0.23437,0 0.54687,0.03125 0.32813,0.01563 0.51563,0.0625 l -0.23438,2.96875 q -0.15625,-0.04687 -0.45312,-0.0625 -0.28125,-0.03125 -0.48438,-0.03125 -0.60937,0 -1.1875,0.15625 -0.57812,0.15625 -1.04687,0.5 -0.45313,0.34375 -0.71875,0.921875 -0.26563,0.5625 -0.26563,1.390625 v 5.921875 h -3.17187 V 26.03791 h 2.40625 l 0.46875,1.953125 h 0.15625 q 0.34375,-0.59375 0.85937,-1.078125 0.51563,-0.5 1.17188,-0.796875 0.65625,-0.296875 1.4375,-0.296875 z m 7.91296,6.015625 q 0,-1.734375 0.32812,-3.390625 0.32813,-1.671875 1.03125,-3.1875 0.70313,-1.515625 1.76563,-2.796875 h 2.60937 q -1.45312,2 -2.21875,4.421875 -0.75,2.40625 -0.75,4.9375 0,1.640625 0.32813,3.28125 0.34375,1.625 1,3.125 0.65625,1.515625 1.625,2.828125 h -2.59375 q -1.0625,-1.25 -1.76563,-2.734375 -0.70312,-1.484375 -1.03125,-3.125 -0.32812,-1.640625 -0.32812,-3.359375 z m 17.27423,1.609375 q 0,1.359375 -0.65625,2.359375 -0.65625,1 -1.92187,1.546875 -1.25,0.53125 -3.03125,0.53125 -0.79688,0 -1.5625,-0.109375 -0.75,-0.09375 -1.4375,-0.296875 -0.6875,-0.203125 -1.3125,-0.5 v -3 q 1.07812,0.46875 2.23437,0.859375 1.17188,0.390625 2.32813,0.390625 0.78125,0 1.26562,-0.203125 0.48438,-0.21875 0.70313,-0.578125 0.21875,-0.375 0.21875,-0.84375 0,-0.5625 -0.39063,-0.96875 -0.375,-0.40625 -1.04687,-0.765625 -0.67188,-0.359375 -1.51563,-0.765625 -0.53125,-0.25 -1.15625,-0.609375 -0.625,-0.359375 -1.1875,-0.875 -0.5625,-0.515625 -0.92187,-1.265625 -0.35938,-0.75 -0.35938,-1.78125 0,-1.359375 0.625,-2.328125 0.625,-0.96875 1.78125,-1.484375 1.17188,-0.515625 2.75,-0.515625 1.1875,0 2.26563,0.28125 1.07812,0.265625 2.25,0.78125 l -1.03125,2.515625 q -1.0625,-0.421875 -1.89063,-0.65625 -0.82812,-0.234375 -1.70312,-0.234375 -0.59375,0 -1.03125,0.1875 -0.42188,0.1875 -0.64063,0.546875 -0.21875,0.34375 -0.21875,0.796875 0,0.546875 0.3125,0.921875 0.32813,0.359375 0.96875,0.703125 0.64063,0.34375 1.59375,0.796875 1.17188,0.5625 2,1.15625 0.82813,0.59375 1.26563,1.40625 0.45312,0.8125 0.45312,2 z m 7.62213,-10.984375 q 2.95313,0 4.29688,1.265625 1.35937,1.265625 1.35937,3.46875 0,1 -0.3125,1.921875 -0.29687,0.90625 -0.98437,1.625 -0.67188,0.703125 -1.8125,1.109375 -1.125,0.40625 -2.79688,0.40625 h -1.39062 v 5.421875 h -3.21875 v -15.21875 z m -0.17187,2.640625 h -1.46875 v 4.515625 h 1.0625 q 0.90625,0 1.57812,-0.234375 0.67188,-0.25 1.03125,-0.75 0.35938,-0.515625 0.35938,-1.3125 0,-1.125 -0.625,-1.671875 -0.625,-0.546875 -1.9375,-0.546875 z m 13.1582,6.734375 q 0,1.71875 -0.34375,3.359375 -0.32813,1.640625 -1.01563,3.125 -0.6875,1.484375 -1.78125,2.734375 h -2.57812 q 0.96875,-1.3125 1.625,-2.828125 0.65625,-1.5 0.98437,-3.125 0.34375,-1.640625 0.34375,-3.28125 0,-1.6875 -0.34375,-3.328125 -0.34375,-1.65625 -1,-3.171875 -0.65625,-1.53125 -1.625,-2.859375 h 2.59375 q 1.09375,1.28125 1.78125,2.796875 0.6875,1.515625 1.01563,3.1875 0.34375,1.65625 0.34375,3.390625 z"
       fill-rule="nonzero"
       id="path33" />
  </g>
</svg>
