<?xml version="1.0" encoding="UTF-8" standalone="no"?>
<svg
   version="1.1"
   viewBox="0 0 520 176"
   fill="none"
   stroke="none"
   stroke-linecap="square"
   stroke-miterlimit="10"
   id="svg65"
   sodipodi:docname="linkExample.svg"
   width="520"
   height="176"
   inkscape:version="1.2 (dc2aeda, 2022-05-15)"
   xmlns:inkscape="http://www.inkscape.org/namespaces/inkscape"
   xmlns:sodipodi="http://sodipodi.sourceforge.net/DTD/sodipodi-0.dtd"
   xmlns="http://www.w3.org/2000/svg"
   xmlns:svg="http://www.w3.org/2000/svg">
  <defs
     id="defs69" />
  <sodipodi:namedview
     id="namedview67"
     pagecolor="#ffffff"
     bordercolor="#000000"
     borderopacity="0.25"
     inkscape:showpageshadow="2"
     inkscape:pageopacity="0.0"
     inkscape:pagecheckerboard="0"
     inkscape:deskcolor="#d1d1d1"
     showgrid="false"
     inkscape:zoom="1.0885417"
     inkscape:cx="512.15311"
     inkscape:cy="384"
     inkscape:window-width="1920"
     inkscape:window-height="1056"
     inkscape:window-x="0"
     inkscape:window-y="24"
     inkscape:window-maximized="0"
     inkscape:current-layer="svg65" />
  <clipPath
     id="p.0">
    <path
       d="M 0,0 H 1024 V 768 H 0 Z"
       clip-rule="nonzero"
       id="path2" />
  </clipPath>
  <g
     clip-path="url(#p.0)"
     id="g63">
    <path
       fill="#000000"
       fill-opacity="0"
       d="M 0,0 H 1024 V 768 H 0 Z"
       fill-rule="evenodd"
       id="path5" />
    <path
       fill="#000000"
       fill-opacity="0"
       d="M 2.6402552,160.99564 80.246545,141.72005"
       fill-rule="evenodd"
       id="path7" />
    <path
       stroke="#674ea7"
       stroke-width="4"
       stroke-linejoin="round"
       stroke-linecap="butt"
       d="M 17.353216,157.3413 65.53359,145.37441"
       fill-rule="evenodd"
       id="path9" />
    <path
       fill="#674ea7"
       stroke="#674ea7"
       stroke-width="4"
       stroke-linecap="butt"
       d="m 4.5812793,160.51353 c -0.875993,-3.52687 1.2729702,-7.0961 4.7998433,-7.97209 3.5268734,-0.87599 7.0961014,1.27296 7.9720954,4.79985 0.875992,3.52687 -1.27297,7.0961 -4.799844,7.97209 -3.5268735,0.87599 -7.0961019,-1.27298 -7.9720947,-4.79985 z"
       fill-rule="nonzero"
       id="path11" />
    <path
       fill="#674ea7"
       stroke="#674ea7"
       stroke-width="4"
       stroke-linecap="butt"
       d="m 78.305534,142.20216 c 0.875992,3.52687 -1.272972,7.0961 -4.799851,7.97209 -3.52687,0.87599 -7.0961,-1.27298 -7.972091,-4.79985 -0.875992,-3.52687 1.272972,-7.0961 4.799843,-7.97209 3.526878,-0.87599 7.0961,1.27296 7.972099,4.79985 z"
       fill-rule="nonzero"
       id="path13" />
    <path
       fill="#000000"
       fill-opacity="0"
       d="m 73.09051,143.51454 81.92126,21.95276"
       fill-rule="evenodd"
       id="path15" />
    <path
       stroke="#674ea7"
       stroke-width="4"
       stroke-linejoin="round"
       stroke-linecap="butt"
       d="m 73.09051,143.51454 67.27792,18.02872"
       fill-rule="evenodd"
       id="path17" />
    <path
       fill="#674ea7"
       stroke="#674ea7"
       stroke-width="4"
       stroke-linecap="butt"
       d="m 153.07993,164.94962 c -0.94063,3.51018 -4.54874,5.59322 -8.05893,4.65257 -3.51018,-0.94064 -5.59322,-4.54873 -4.65257,-8.05893 0.94064,-3.51017 4.54875,-5.59321 8.05893,-4.65257 3.51019,0.94063 5.59321,4.54874 4.65257,8.05893 z"
       fill-rule="nonzero"
       id="path19" />
    <path
       fill="#000000"
       fill-opacity="0"
       d="m 148.2902,164.13188 68.44095,-20.66142"
       fill-rule="evenodd"
       id="path21" />
    <path
       stroke="#674ea7"
       stroke-width="4"
       stroke-linejoin="round"
       stroke-linecap="butt"
       d="m 148.2902,164.13188 53.92787,-16.28012"
       fill-rule="evenodd"
       id="path23" />
    <path
       fill="#674ea7"
       stroke="#674ea7"
       stroke-width="4"
       stroke-linecap="butt"
       d="m 214.8165,144.04848 c 1.05025,3.47896 -0.91861,7.1506 -4.39757,8.20087 -3.47896,1.05024 -7.1506,-0.91861 -8.20086,-4.39757 -1.05025,-3.47896 0.9186,-7.15062 4.39756,-8.20087 3.47896,-1.05026 7.15062,0.9186 8.20087,4.39757 z"
       fill-rule="nonzero"
       id="path25" />
    <path
       fill="#000000"
       fill-opacity="0"
       d="M 0.9040347,99.04026 72.998515,81.024505"
       fill-rule="evenodd"
       id="path27" />
    <path
       stroke="#674ea7"
       stroke-width="4"
       stroke-linejoin="round"
       stroke-linecap="butt"
       d="M 15.611772,95.36493 72.998522,81.024506"
       fill-rule="evenodd"
       id="path29" />
    <path
       fill="#674ea7"
       stroke="#674ea7"
       stroke-width="4"
       stroke-linecap="butt"
       d="m 2.8443694,98.55539 c -0.8810203,-3.52562 1.2628517,-7.097908 4.7884727,-7.978928 3.5256219,-0.881019 7.0979099,1.262848 7.9789299,4.788475 0.88102,3.52562 -1.262852,7.097913 -4.788472,7.978933 -3.5256214,0.88101 -7.0979099,-1.26286 -7.9789306,-4.78848 z"
       fill-rule="nonzero"
       id="path31" />
    <path
       fill="#000000"
       fill-opacity="0"
       d="m 71.35429,81.55916 76.66142,20.47244"
       fill-rule="evenodd"
       id="path33" />
    <path
       stroke="#674ea7"
       stroke-width="4"
       stroke-linejoin="round"
       stroke-linecap="butt"
       d="m 71.35429,81.55916 76.66142,20.47244"
       fill-rule="evenodd"
       id="path35" />
    <path
       fill="#000000"
       fill-opacity="0"
       d="M 146.55399,102.1765 214.99494,81.515085"
       fill-rule="evenodd"
       id="path37" />
    <path
       stroke="#674ea7"
       stroke-width="4"
       stroke-linejoin="round"
       stroke-linecap="butt"
       d="M 146.55399,102.1765 200.48186,85.896402"
       fill-rule="evenodd"
       id="path39" />
    <path
       fill="#674ea7"
       stroke="#674ea7"
       stroke-width="4"
       stroke-linecap="butt"
       d="m 213.08028,82.093094 c 1.05026,3.478966 -0.91861,7.150612 -4.39757,8.200867 -3.47896,1.050255 -7.1506,-0.918602 -8.20086,-4.397568 -1.05025,-3.478958 0.9186,-7.150612 4.39756,-8.200867 3.47896,-1.050247 7.15062,0.91861 8.20087,4.397568 z"
       fill-rule="nonzero"
       id="path41" />
    <path
       fill="#000000"
       fill-opacity="0"
       d="M 1.0682415e-4,41.48013 214.99224,23.999816"
       fill-rule="evenodd"
       id="path43" />
    <path
       stroke="#674ea7"
       stroke-width="4"
       stroke-linejoin="round"
       stroke-linecap="butt"
       d="M 15.110244,40.251575 199.88209,25.228372"
       fill-rule="evenodd"
       id="path45" />
    <path
       fill="#674ea7"
       stroke="#674ea7"
       stroke-width="4"
       stroke-linecap="butt"
       d="m 1.9935286,41.31805 c -0.2944996,-3.622078 2.4030378,-6.797096 6.025119,-7.091595 3.6220804,-0.294498 6.7970964,2.403038 7.0915964,6.02512 0.2945,3.622078 -2.403038,6.797097 -6.0251188,7.091595 -3.6220808,0.294498 -6.7970967,-2.403038 -7.0915966,-6.02512 z"
       fill-rule="nonzero"
       id="path47" />
    <path
       fill="#674ea7"
       stroke="#674ea7"
       stroke-width="4"
       stroke-linecap="butt"
       d="m 212.99881,24.161894 c 0.29449,3.622082 -2.40305,6.797096 -6.02512,7.091597 -3.62208,0.2945 -6.7971,-2.403038 -7.09159,-6.025118 -0.29451,-3.622082 2.40303,-6.797098 6.02511,-7.091597 3.62209,-0.2945 6.79709,2.403038 7.0916,6.025118 z"
       fill-rule="nonzero"
       id="path49" />
    <path
       fill="#000000"
       fill-opacity="0"
       d="M 232,8.354331 H 520 V 47.125983 H 232 Z"
       fill-rule="evenodd"
       id="path51" />
    <path
       fill="#434343"
       d="M 242.17188,32.714333 V 21.261206 h 1.51562 v 10.09375 h 5.64063 v 1.359377 z m 8.78906,-9.843752 v -1.609375 h 1.40625 v 1.609375 z m 0,9.843752 v -8.296877 h 1.40625 v 8.296877 z m 3.55469,0 v -8.296877 h 1.26562 v 1.171875 q 0.90625,-1.359375 2.64063,-1.359375 0.75,0 1.375,0.265625 0.625,0.265625 0.9375,0.703125 0.3125,0.4375 0.4375,1.046875 0.0781,0.390625 0.0781,1.359375 v 5.109377 h -1.40625 v -5.046877 q 0,-0.859375 -0.17187,-1.28125 -0.15625,-0.4375 -0.57813,-0.6875 -0.40625,-0.25 -0.96875,-0.25 -0.90625,0 -1.5625,0.578125 -0.64062,0.5625 -0.64062,2.15625 v 4.531252 z m 8.89844,0 V 21.261206 h 1.40625 v 6.53125 l 3.32812,-3.375 h 1.82813 l -3.17188,3.078125 3.48438,5.218752 h -1.73438 l -2.73437,-4.250002 -1,0.953125 v 3.296877 z m 13.97656,0 -2.54688,-8.296877 h 1.45313 l 1.32812,4.78125 0.48438,1.78125 q 0.0312,-0.125 0.4375,-1.703125 l 1.3125,-4.859375 h 1.45312 l 1.23438,4.8125 0.42187,1.578125 0.46875,-1.59375 1.42188,-4.796875 h 1.375 l -2.59375,8.296877 h -1.46875 l -1.3125,-4.968752 -0.32813,-1.421875 -1.67187,6.390627 z m 10.02344,-9.843752 v -1.609375 h 1.40625 v 1.609375 z m 0,9.843752 v -8.296877 h 1.40625 v 8.296877 z m 6.61718,-1.265627 0.20313,1.250002 q -0.59375,0.125 -1.0625,0.125 -0.76563,0 -1.1875,-0.234375 -0.42188,-0.25 -0.59375,-0.640627 -0.17188,-0.40625 -0.17188,-1.671875 v -4.765625 h -1.03125 v -1.09375 h 1.03125 v -2.0625 l 1.40625,-0.84375 v 2.90625 h 1.40625 v 1.09375 H 292.625 v 4.84375 q 0,0.609375 0.0625,0.78125 0.0781,0.171875 0.25,0.28125 0.17188,0.09375 0.48438,0.09375 0.23437,0 0.60937,-0.0625 z m 1.38282,1.265627 V 21.261206 h 1.40625 v 4.109375 q 0.98437,-1.140625 2.48437,-1.140625 0.92188,0 1.59375,0.359375 0.6875,0.359375 0.96875,1 0.29688,0.640625 0.29688,1.859375 v 5.265627 h -1.40625 v -5.265627 q 0,-1.046875 -0.45313,-1.53125 -0.45312,-0.484375 -1.29687,-0.484375 -0.625,0 -1.17188,0.328125 -0.54687,0.328125 -0.78125,0.890625 -0.23437,0.546875 -0.23437,1.515625 v 4.546877 z m 19.01562,-2.671877 1.45313,0.171875 q -0.34375,1.28125 -1.28125,1.984377 -0.92188,0.703125 -2.35938,0.703125 -1.82812,0 -2.89062,-1.125002 -1.0625,-1.125 -1.0625,-3.140625 0,-2.09375 1.07812,-3.25 1.07813,-1.15625 2.79688,-1.15625 1.65625,0 2.70312,1.140625 1.0625,1.125 1.0625,3.171875 0,0.125 0,0.375 h -6.1875 q 0.0781,1.375 0.76563,2.109375 0.70312,0.71875 1.73437,0.71875 0.78125,0 1.32813,-0.40625 0.54687,-0.40625 0.85937,-1.296875 z m -4.60937,-2.28125 h 4.625 q -0.0937,-1.046875 -0.53125,-1.5625 -0.67188,-0.8125 -1.73438,-0.8125 -0.96875,0 -1.64062,0.65625 -0.65625,0.640625 -0.71875,1.71875 z m 7.83593,4.953127 v -8.296877 h 1.26563 v 1.171875 q 0.90625,-1.359375 2.64062,-1.359375 0.75,0 1.375,0.265625 0.625,0.265625 0.9375,0.703125 0.3125,0.4375 0.4375,1.046875 0.0781,0.390625 0.0781,1.359375 v 5.109377 h -1.40625 v -5.046877 q 0,-0.859375 -0.17188,-1.28125 -0.15625,-0.4375 -0.57812,-0.6875 -0.40625,-0.25 -0.96875,-0.25 -0.90625,0 -1.5625,0.578125 -0.64063,0.5625 -0.64063,2.15625 v 4.531252 z m 14.27344,0 v -1.046877 q -0.78125,1.234377 -2.3125,1.234377 -1,0 -1.82812,-0.546875 -0.82813,-0.546877 -1.29688,-1.531252 -0.45312,-0.984375 -0.45312,-2.25 0,-1.25 0.40625,-2.25 0.42187,-1.015625 1.25,-1.546875 0.82812,-0.546875 1.85937,-0.546875 0.75,0 1.32813,0.3125 0.59375,0.3125 0.95312,0.828125 v -4.109375 h 1.40625 v 11.453127 z m -4.4375,-4.140627 q 0,1.59375 0.67188,2.390625 0.67187,0.78125 1.57812,0.78125 0.92188,0 1.5625,-0.75 0.65625,-0.765625 0.65625,-2.3125 0,-1.703125 -0.65625,-2.5 -0.65625,-0.796875 -1.625,-0.796875 -0.9375,0 -1.5625,0.765625 -0.625,0.765625 -0.625,2.421875 z m 7.96094,7.328127 V 24.417456 h 1.28125 v 1.078125 q 0.45312,-0.640625 1.01562,-0.953125 0.57813,-0.3125 1.39063,-0.3125 1.0625,0 1.875,0.546875 0.8125,0.546875 1.21875,1.546875 0.42187,0.984375 0.42187,2.171875 0,1.28125 -0.46875,2.296875 -0.45312,1.015625 -1.32812,1.562502 -0.85938,0.546875 -1.82813,0.546875 -0.70312,0 -1.26562,-0.296875 -0.54688,-0.296875 -0.90625,-0.750002 v 4.046877 z m 1.26562,-7.296877 q 0,1.609375 0.64063,2.375 0.65625,0.765625 1.57812,0.765625 0.9375,0 1.60938,-0.796875 0.67187,-0.796875 0.67187,-2.453125 0,-1.59375 -0.65625,-2.375 -0.65625,-0.796875 -1.5625,-0.796875 -0.89062,0 -1.59375,0.84375 -0.6875,0.84375 -0.6875,2.4375 z m 7.10157,-0.04687 q 0,-2.296875 1.28125,-3.40625 1.07812,-0.921875 2.60937,-0.921875 1.71875,0 2.79688,1.125 1.09375,1.109375 1.09375,3.09375 0,1.59375 -0.48438,2.515625 -0.48437,0.921875 -1.40625,1.437502 -0.90625,0.5 -2,0.5 -1.73437,0 -2.8125,-1.109377 -1.07812,-1.125 -1.07812,-3.234375 z m 1.45312,0 q 0,1.59375 0.6875,2.390625 0.70313,0.796875 1.75,0.796875 1.04688,0 1.73438,-0.796875 0.70312,-0.796875 0.70312,-2.4375 0,-1.53125 -0.70312,-2.328125 -0.6875,-0.796875 -1.73438,-0.796875 -1.04687,0 -1.75,0.796875 -0.6875,0.78125 -0.6875,2.375 z m 7.97656,-5.6875 v -1.609375 h 1.40625 v 1.609375 z m 0,9.843752 v -8.296877 h 1.40625 v 8.296877 z m 3.55469,0 v -8.296877 h 1.26563 v 1.171875 q 0.90625,-1.359375 2.64062,-1.359375 0.75,0 1.375,0.265625 0.625,0.265625 0.9375,0.703125 0.3125,0.4375 0.4375,1.046875 0.0781,0.390625 0.0781,1.359375 v 5.109377 h -1.40625 v -5.046877 q 0,-0.859375 -0.17188,-1.28125 -0.15625,-0.4375 -0.57812,-0.6875 -0.40625,-0.25 -0.96875,-0.25 -0.90625,0 -1.5625,0.578125 -0.64063,0.5625 -0.64063,2.15625 v 4.531252 z m 11.96094,-1.265627 0.20312,1.250002 q -0.59375,0.125 -1.0625,0.125 -0.76562,0 -1.1875,-0.234375 -0.42187,-0.25 -0.59375,-0.640627 -0.17187,-0.40625 -0.17187,-1.671875 v -4.765625 h -1.03125 v -1.09375 h 1.03125 v -2.0625 l 1.40625,-0.84375 v 2.90625 h 1.40625 v 1.09375 h -1.40625 v 4.84375 q 0,0.609375 0.0625,0.78125 0.0781,0.171875 0.25,0.28125 0.17187,0.09375 0.48437,0.09375 0.23438,0 0.60938,-0.0625 z m 0.82031,-1.21875 1.39063,-0.21875 q 0.10937,0.84375 0.64062,1.296875 0.54688,0.4375 1.5,0.4375 0.96875,0 1.4375,-0.390625 0.46875,-0.40625 0.46875,-0.9375 0,-0.46875 -0.40625,-0.75 -0.29687,-0.1875 -1.4375,-0.46875 -1.54687,-0.390625 -2.15625,-0.671875 -0.59375,-0.296875 -0.90625,-0.796875 -0.29687,-0.5 -0.29687,-1.109375 0,-0.5625 0.25,-1.03125 0.25,-0.46875 0.6875,-0.78125 0.32812,-0.25 0.89062,-0.40625 0.57813,-0.171875 1.21875,-0.171875 0.98438,0 1.71875,0.28125 0.73438,0.28125 1.07813,0.765625 0.35937,0.46875 0.5,1.28125 l -1.375,0.1875 q -0.0937,-0.640625 -0.54688,-1 -0.45312,-0.359375 -1.26562,-0.359375 -0.96875,0 -1.39063,0.328125 -0.40625,0.3125 -0.40625,0.734375 0,0.28125 0.17188,0.5 0.17187,0.21875 0.53125,0.375 0.21875,0.07813 1.25,0.359375 1.48437,0.390625 2.07812,0.65625 0.59375,0.25 0.92188,0.734375 0.34375,0.484375 0.34375,1.203125 0,0.703125 -0.42188,1.328125 -0.40625,0.609377 -1.1875,0.953127 -0.76562,0.34375 -1.73437,0.34375 -1.625,0 -2.46875,-0.671875 -0.84375,-0.671877 -1.07813,-2.000002 z"
       fill-rule="nonzero"
       id="path53" />
    <path
       fill="#000000"
       fill-opacity="0"
       d="m 232,70.16273 h 313.00787 v 38.77165 H 232 Z"
       fill-rule="evenodd"
       id="path55" />
    <path
       fill="#434343"
       d="M 242.17188,94.52273 V 83.069605 h 1.51562 v 10.09375 h 5.64063 v 1.359375 z m 8.78906,-9.84375 v -1.609375 h 1.40625 v 1.609375 z m 0,9.84375 v -8.296875 h 1.40625 v 8.296875 z m 3.55469,0 v -8.296875 h 1.26562 v 1.171875 q 0.90625,-1.359375 2.64063,-1.359375 0.75,0 1.375,0.265625 0.625,0.265625 0.9375,0.703125 0.3125,0.4375 0.4375,1.046875 0.0781,0.390625 0.0781,1.359375 v 5.109375 h -1.40625 v -5.046875 q 0,-0.859375 -0.17187,-1.28125 -0.15625,-0.4375 -0.57813,-0.6875 -0.40625,-0.25 -0.96875,-0.25 -0.90625,0 -1.5625,0.578125 -0.64062,0.5625 -0.64062,2.15625 v 4.53125 z m 8.89844,0 V 83.069605 h 1.40625 v 6.53125 l 3.32812,-3.375 h 1.82813 l -3.17188,3.078125 3.48438,5.21875 h -1.73438 l -2.73437,-4.25 -1,0.953125 v 3.296875 z m 13.97656,0 -2.54688,-8.296875 h 1.45313 l 1.32812,4.78125 0.48438,1.78125 q 0.0312,-0.125 0.4375,-1.703125 l 1.3125,-4.859375 h 1.45312 l 1.23438,4.8125 0.42187,1.578125 0.46875,-1.59375 1.42188,-4.796875 h 1.375 l -2.59375,8.296875 h -1.46875 l -1.3125,-4.96875 -0.32813,-1.421875 -1.67187,6.390625 z m 10.02344,-9.84375 v -1.609375 h 1.40625 v 1.609375 z m 0,9.84375 v -8.296875 h 1.40625 v 8.296875 z m 6.61718,-1.265625 0.20313,1.25 q -0.59375,0.125 -1.0625,0.125 -0.76563,0 -1.1875,-0.234375 -0.42188,-0.25 -0.59375,-0.640625 -0.17188,-0.40625 -0.17188,-1.671875 v -4.765625 h -1.03125 v -1.09375 h 1.03125 v -2.0625 l 1.40625,-0.84375 v 2.90625 h 1.40625 v 1.09375 H 292.625 v 4.84375 q 0,0.609375 0.0625,0.78125 0.0781,0.171875 0.25,0.28125 0.17188,0.09375 0.48438,0.09375 0.23437,0 0.60937,-0.0625 z m 1.38282,1.265625 V 83.069605 h 1.40625 v 4.109375 q 0.98437,-1.140625 2.48437,-1.140625 0.92188,0 1.59375,0.359375 0.6875,0.359375 0.96875,1 0.29688,0.640625 0.29688,1.859375 v 5.265625 h -1.40625 v -5.265625 q 0,-1.046875 -0.45313,-1.53125 -0.45312,-0.484375 -1.29687,-0.484375 -0.625,0 -1.17188,0.328125 -0.54687,0.328125 -0.78125,0.890625 -0.23437,0.546875 -0.23437,1.515625 v 4.546875 z m 19.01562,-2.671875 1.45313,0.171875 q -0.34375,1.28125 -1.28125,1.984375 -0.92188,0.703125 -2.35938,0.703125 -1.82812,0 -2.89062,-1.125 -1.0625,-1.125 -1.0625,-3.140625 0,-2.09375 1.07812,-3.25 1.07813,-1.15625 2.79688,-1.15625 1.65625,0 2.70312,1.140625 1.0625,1.125 1.0625,3.171875 0,0.125 0,0.375 h -6.1875 q 0.0781,1.375 0.76563,2.109375 0.70312,0.71875 1.73437,0.71875 0.78125,0 1.32813,-0.40625 0.54687,-0.40625 0.85937,-1.296875 z m -4.60937,-2.28125 h 4.625 q -0.0937,-1.046875 -0.53125,-1.5625 -0.67188,-0.8125 -1.73438,-0.8125 -0.96875,0 -1.64062,0.65625 -0.65625,0.640625 -0.71875,1.71875 z m 7.83593,4.953125 v -8.296875 h 1.26563 v 1.171875 q 0.90625,-1.359375 2.64062,-1.359375 0.75,0 1.375,0.265625 0.625,0.265625 0.9375,0.703125 0.3125,0.4375 0.4375,1.046875 0.0781,0.390625 0.0781,1.359375 v 5.109375 h -1.40625 v -5.046875 q 0,-0.859375 -0.17188,-1.28125 -0.15625,-0.4375 -0.57812,-0.6875 -0.40625,-0.25 -0.96875,-0.25 -0.90625,0 -1.5625,0.578125 -0.64063,0.5625 -0.64063,2.15625 v 4.53125 z m 14.27344,0 v -1.046875 q -0.78125,1.234375 -2.3125,1.234375 -1,0 -1.82812,-0.546875 -0.82813,-0.546875 -1.29688,-1.53125 -0.45312,-0.984375 -0.45312,-2.25 0,-1.25 0.40625,-2.25 0.42187,-1.015625 1.25,-1.546875 0.82812,-0.546875 1.85937,-0.546875 0.75,0 1.32813,0.3125 0.59375,0.3125 0.95312,0.828125 v -4.109375 h 1.40625 V 94.52273 Z m -4.4375,-4.140625 q 0,1.59375 0.67188,2.390625 0.67187,0.78125 1.57812,0.78125 0.92188,0 1.5625,-0.75 0.65625,-0.765625 0.65625,-2.3125 0,-1.703125 -0.65625,-2.5 -0.65625,-0.796875 -1.625,-0.796875 -0.9375,0 -1.5625,0.765625 -0.625,0.765625 -0.625,2.421875 z m 7.96094,7.328125 V 86.225855 h 1.28125 v 1.078125 q 0.45312,-0.640625 1.01562,-0.953125 0.57813,-0.3125 1.39063,-0.3125 1.0625,0 1.875,0.546875 0.8125,0.546875 1.21875,1.546875 0.42187,0.984375 0.42187,2.171875 0,1.28125 -0.46875,2.296875 -0.45312,1.015625 -1.32812,1.5625 -0.85938,0.546875 -1.82813,0.546875 -0.70312,0 -1.26562,-0.296875 -0.54688,-0.296875 -0.90625,-0.75 v 4.046875 z m 1.26562,-7.296875 q 0,1.609375 0.64063,2.375 0.65625,0.765625 1.57812,0.765625 0.9375,0 1.60938,-0.796875 0.67187,-0.796875 0.67187,-2.453125 0,-1.59375 -0.65625,-2.375 -0.65625,-0.796875 -1.5625,-0.796875 -0.89062,0 -1.59375,0.84375 -0.6875,0.84375 -0.6875,2.4375 z m 7.10157,-0.04687 q 0,-2.296875 1.28125,-3.40625 1.07812,-0.921875 2.60937,-0.921875 1.71875,0 2.79688,1.125 1.09375,1.109375 1.09375,3.09375 0,1.59375 -0.48438,2.515625 -0.48437,0.921875 -1.40625,1.4375 -0.90625,0.5 -2,0.5 -1.73437,0 -2.8125,-1.109375 -1.07812,-1.125 -1.07812,-3.234375 z m 1.45312,0 q 0,1.59375 0.6875,2.390625 0.70313,0.796875 1.75,0.796875 1.04688,0 1.73438,-0.796875 0.70312,-0.796875 0.70312,-2.4375 0,-1.53125 -0.70312,-2.328125 -0.6875,-0.796875 -1.73438,-0.796875 -1.04687,0 -1.75,0.796875 -0.6875,0.78125 -0.6875,2.375 z m 7.97656,-5.6875 V 83.06961 h 1.40625 v 1.609375 z m 0,9.84375 V 86.22586 h 1.40625 v 8.296875 z m 3.55469,0 V 86.22586 h 1.26563 v 1.171875 q 0.90625,-1.359375 2.64062,-1.359375 0.75,0 1.375,0.265625 0.625,0.265625 0.9375,0.703125 0.3125,0.4375 0.4375,1.046875 0.0781,0.390625 0.0781,1.359375 v 5.109375 h -1.40625 V 89.47586 q 0,-0.859375 -0.17188,-1.28125 -0.15625,-0.4375 -0.57812,-0.6875 -0.40625,-0.25 -0.96875,-0.25 -0.90625,0 -1.5625,0.578125 -0.64063,0.5625 -0.64063,2.15625 v 4.53125 z m 11.96094,-1.265625 0.20312,1.25 q -0.59375,0.125 -1.0625,0.125 -0.76562,0 -1.1875,-0.234375 -0.42187,-0.25 -0.59375,-0.640625 -0.17187,-0.40625 -0.17187,-1.671875 V 87.31961 h -1.03125 v -1.09375 h 1.03125 v -2.0625 l 1.40625,-0.84375 v 2.90625 h 1.40625 v 1.09375 h -1.40625 v 4.84375 q 0,0.609375 0.0625,0.78125 0.0781,0.171875 0.25,0.28125 0.17187,0.09375 0.48437,0.09375 0.23438,0 0.60938,-0.0625 z m 0.82031,-1.21875 1.39063,-0.21875 q 0.10937,0.84375 0.64062,1.296875 0.54688,0.4375 1.5,0.4375 0.96875,0 1.4375,-0.390625 0.46875,-0.40625 0.46875,-0.9375 0,-0.46875 -0.40625,-0.75 -0.29687,-0.1875 -1.4375,-0.46875 -1.54687,-0.390625 -2.15625,-0.671875 -0.59375,-0.296875 -0.90625,-0.796875 -0.29687,-0.5 -0.29687,-1.109375 0,-0.5625 0.25,-1.03125 0.25,-0.46875 0.6875,-0.78125 0.32812,-0.25 0.89062,-0.40625 0.57813,-0.171875 1.21875,-0.171875 0.98438,0 1.71875,0.28125 0.73438,0.28125 1.07813,0.765625 0.35937,0.46875 0.5,1.28125 l -1.375,0.1875 q -0.0937,-0.640625 -0.54688,-1 -0.45312,-0.359375 -1.26562,-0.359375 -0.96875,0 -1.39063,0.328125 -0.40625,0.3125 -0.40625,0.734375 0,0.28125 0.17188,0.5 0.17187,0.21875 0.53125,0.375 0.21875,0.07813 1.25,0.359375 1.48437,0.390625 2.07812,0.65625 0.59375,0.25 0.92188,0.734375 0.34375,0.484375 0.34375,1.203125 0,0.703125 -0.42188,1.328125 -0.40625,0.609375 -1.1875,0.953125 -0.76562,0.34375 -1.73437,0.34375 -1.625,0 -2.46875,-0.671875 -0.84375,-0.671875 -1.07813,-2 z M 388,93.49148 q -0.78125,0.671875 -1.5,0.953125 -0.71875,0.265625 -1.54687,0.265625 -1.375,0 -2.10938,-0.671875 -0.73437,-0.671875 -0.73437,-1.703125 0,-0.609375 0.28125,-1.109375 0.28125,-0.515625 0.71875,-0.8125 0.45312,-0.3125 1.01562,-0.46875 0.42188,-0.109375 1.25,-0.203125 1.70313,-0.203125 2.51563,-0.484375 0,-0.296875 0,-0.375 0,-0.859375 -0.39063,-1.203125 -0.54687,-0.484375 -1.60937,-0.484375 -0.98438,0 -1.46875,0.359375 -0.46875,0.34375 -0.6875,1.21875 l -1.375,-0.1875 q 0.1875,-0.875 0.60937,-1.421875 0.4375,-0.546875 1.25,-0.828125 0.8125,-0.296875 1.875,-0.296875 1.0625,0 1.71875,0.25 0.67188,0.25 0.98438,0.625 0.3125,0.375 0.4375,0.953125 0.0781,0.359375 0.0781,1.296875 v 1.875 q 0,1.96875 0.0781,2.484375 0.0937,0.515625 0.35937,1 H 388.2812 Q 388.0625,94.08523 388,93.49148 Z m -0.10937,-3.140625 q -0.76563,0.3125 -2.29688,0.53125 -0.875,0.125 -1.23437,0.28125 -0.35938,0.15625 -0.5625,0.46875 -0.1875,0.296875 -0.1875,0.65625 0,0.5625 0.42187,0.9375 0.4375,0.375 1.25,0.375 0.8125,0 1.4375,-0.34375 0.64063,-0.359375 0.9375,-0.984375 0.23438,-0.46875 0.23438,-1.40625 z m 3.60156,4.171875 v -8.296875 h 1.26563 v 1.171875 q 0.90625,-1.359375 2.64062,-1.359375 0.75,0 1.375,0.265625 0.625,0.265625 0.9375,0.703125 0.3125,0.4375 0.4375,1.046875 0.0781,0.390625 0.0781,1.359375 v 5.109375 h -1.40625 v -5.046875 q 0,-0.859375 -0.17188,-1.28125 -0.15625,-0.4375 -0.57812,-0.6875 -0.40625,-0.25 -0.96875,-0.25 -0.90625,0 -1.5625,0.578125 -0.64063,0.5625 -0.64063,2.15625 v 4.53125 z m 14.27344,0 v -1.046875 q -0.78125,1.234375 -2.3125,1.234375 -1,0 -1.82813,-0.546875 -0.82812,-0.546875 -1.29687,-1.53125 -0.45313,-0.984375 -0.45313,-2.25 0,-1.25 0.40625,-2.25 0.42188,-1.015625 1.25,-1.546875 0.82813,-0.546875 1.85938,-0.546875 0.75,0 1.32812,0.3125 0.59375,0.3125 0.95313,0.828125 v -4.109375 h 1.40625 V 94.52273 Z m -4.4375,-4.140625 q 0,1.59375 0.67187,2.390625 0.67188,0.78125 1.57813,0.78125 0.92187,0 1.5625,-0.75 0.65625,-0.765625 0.65625,-2.3125 0,-1.703125 -0.65625,-2.5 -0.65625,-0.796875 -1.625,-0.796875 -0.9375,0 -1.5625,0.765625 -0.625,0.765625 -0.625,2.421875 z m 12.39062,4.140625 v -8.296875 h 1.26563 v 1.25 q 0.48437,-0.875 0.89062,-1.15625 0.40625,-0.28125 0.90625,-0.28125 0.70313,0 1.4375,0.453125 l -0.48437,1.296875 q -0.51563,-0.296875 -1.03125,-0.296875 -0.45313,0 -0.82813,0.28125 -0.35937,0.265625 -0.51562,0.765625 -0.23438,0.75 -0.23438,1.640625 v 4.34375 z m 4.8125,-4.15625 q 0,-2.296875 1.28125,-3.40625 1.07813,-0.921875 2.60938,-0.921875 1.71875,0 2.79687,1.125 1.09375,1.109375 1.09375,3.09375 0,1.59375 -0.48437,2.515625 -0.48438,0.921875 -1.40625,1.4375 -0.90625,0.5 -2,0.5 -1.73438,0 -2.8125,-1.109375 -1.07813,-1.125 -1.07813,-3.234375 z m 1.45313,0 q 0,1.59375 0.6875,2.390625 0.70312,0.796875 1.75,0.796875 1.04687,0 1.73437,-0.796875 0.70313,-0.796875 0.70313,-2.4375 0,-1.53125 -0.70313,-2.328125 -0.6875,-0.796875 -1.73437,-0.796875 -1.04688,0 -1.75,0.796875 -0.6875,0.78125 -0.6875,2.375 z m 13.41406,4.15625 v -1.21875 q -0.96875,1.40625 -2.64062,1.40625 -0.73438,0 -1.375,-0.28125 -0.625,-0.28125 -0.9375,-0.703125 -0.3125,-0.4375 -0.4375,-1.046875 -0.0781,-0.421875 -0.0781,-1.3125 v -5.140625 h 1.40625 v 4.59375 q 0,1.109375 0.0781,1.484375 0.14062,0.5625 0.5625,0.875 0.4375,0.3125 1.0625,0.3125 0.64062,0 1.1875,-0.3125 0.5625,-0.328125 0.78125,-0.890625 0.23437,-0.5625 0.23437,-1.625 v -4.4375 h 1.40625 v 8.296875 z m 6.52344,-1.265625 0.20312,1.25 q -0.59375,0.125 -1.0625,0.125 -0.76562,0 -1.1875,-0.234375 -0.42187,-0.25 -0.59375,-0.640625 -0.17187,-0.40625 -0.17187,-1.671875 v -4.765625 h -1.03125 v -1.09375 h 1.03125 v -2.0625 l 1.40625,-0.84375 v 2.90625 h 1.40625 v 1.09375 h -1.40625 v 4.84375 q 0,0.609375 0.0625,0.78125 0.0781,0.171875 0.25,0.28125 0.17187,0.09375 0.48437,0.09375 0.23438,0 0.60938,-0.0625 z m 7.05469,-1.40625 1.45312,0.171875 q -0.34375,1.28125 -1.28125,1.984375 -0.92187,0.703125 -2.35937,0.703125 -1.82813,0 -2.89063,-1.125 -1.0625,-1.125 -1.0625,-3.140625 0,-2.09375 1.07813,-3.25 1.07812,-1.15625 2.79687,-1.15625 1.65625,0 2.70313,1.140625 1.0625,1.125 1.0625,3.171875 0,0.125 0,0.375 h -6.1875 q 0.0781,1.375 0.76562,2.109375 0.70313,0.71875 1.73438,0.71875 0.78125,0 1.32812,-0.40625 0.54688,-0.40625 0.85938,-1.296875 z m -4.60938,-2.28125 h 4.625 q -0.0937,-1.046875 -0.53125,-1.5625 -0.67187,-0.8125 -1.73437,-0.8125 -0.96875,0 -1.64063,0.65625 -0.65625,0.640625 -0.71875,1.71875 z m 14.96875,8.328125 q -1.17187,-1.46875 -1.98437,-3.4375 -0.79688,-1.984375 -0.79688,-4.09375 0,-1.859375 0.60938,-3.5625 0.70312,-1.96875 2.17187,-3.9375 h 1 q -0.9375,1.625 -1.25,2.328125 -0.46875,1.078125 -0.75,2.25 -0.32812,1.453125 -0.32812,2.9375 0,3.75 2.32812,7.515625 z m 2.64063,-0.1875 V 86.225855 h 1.28125 v 1.078125 q 0.45312,-0.640625 1.01562,-0.953125 0.57813,-0.3125 1.39063,-0.3125 1.0625,0 1.875,0.546875 0.8125,0.546875 1.21875,1.546875 0.42187,0.984375 0.42187,2.171875 0,1.28125 -0.46875,2.296875 -0.45312,1.015625 -1.32812,1.5625 -0.85938,0.546875 -1.82813,0.546875 -0.70312,0 -1.26562,-0.296875 -0.54688,-0.296875 -0.90625,-0.75 v 4.046875 z m 1.26562,-7.296875 q 0,1.609375 0.64063,2.375 0.65625,0.765625 1.57812,0.765625 0.9375,0 1.60938,-0.796875 0.67187,-0.796875 0.67187,-2.453125 0,-1.59375 -0.65625,-2.375 -0.65625,-0.796875 -1.5625,-0.796875 -0.89062,0 -1.59375,0.84375 -0.6875,0.84375 -0.6875,2.4375 z m 7.10156,-0.04687 q 0,-2.296875 1.28125,-3.40625 1.07813,-0.921875 2.60938,-0.921875 1.71875,0 2.79687,1.125 1.09375,1.109375 1.09375,3.09375 0,1.59375 -0.48437,2.515625 -0.48438,0.921875 -1.40625,1.4375 -0.90625,0.5 -2,0.5 -1.73438,0 -2.8125,-1.109375 -1.07813,-1.125 -1.07813,-3.234375 z m 1.45313,0 q 0,1.59375 0.6875,2.390625 0.70312,0.796875 1.75,0.796875 1.04687,0 1.73437,-0.796875 0.70313,-0.796875 0.70313,-2.4375 0,-1.53125 -0.70313,-2.328125 -0.6875,-0.796875 -1.73437,-0.796875 -1.04688,0 -1.75,0.796875 -0.6875,0.78125 -0.6875,2.375 z m 7.94531,4.15625 v -11.45313 h 1.40625 V 94.52273 Z m 3.52344,3.203125 -0.15625,-1.328125 q 0.45312,0.125 0.79687,0.125 0.46875,0 0.75,-0.15625 0.28125,-0.15625 0.46875,-0.4375 0.125,-0.203125 0.42188,-1.046875 0.0469,-0.109375 0.125,-0.34375 l -3.14063,-8.3125 h 1.51563 l 1.71875,4.796875 q 0.34375,0.921875 0.60937,1.921875 0.23438,-0.96875 0.57813,-1.890625 l 1.76562,-4.828125 h 1.40625 l -3.15625,8.4375 q -0.5,1.375 -0.78125,1.890625 -0.375,0.6875 -0.85937,1.015625 -0.48438,0.328125 -1.15625,0.328125 -0.40625,0 -0.90625,-0.171875 z m 8.03125,-3.203125 v -11.45313 h 1.40625 V 94.52273 Z m 3.58594,-9.84375 V 83.06961 h 1.40625 v 1.609375 z m 0,9.84375 V 86.22586 h 1.40625 v 8.296875 z m 3.55468,0 V 86.22586 h 1.26563 v 1.171875 q 0.90625,-1.359375 2.64062,-1.359375 0.75,0 1.375,0.265625 0.625,0.265625 0.9375,0.703125 0.3125,0.4375 0.4375,1.046875 0.0781,0.390625 0.0781,1.359375 v 5.109375 H 501.7656 V 89.47586 q 0,-0.859375 -0.17188,-1.28125 -0.15625,-0.4375 -0.57812,-0.6875 -0.40625,-0.25 -0.96875,-0.25 -0.90625,0 -1.5625,0.578125 -0.64063,0.5625 -0.64063,2.15625 v 4.53125 z m 14.57032,-2.671875 1.45312,0.171875 q -0.34375,1.28125 -1.28125,1.984375 -0.92187,0.703125 -2.35937,0.703125 -1.82813,0 -2.89063,-1.125 -1.0625,-1.125 -1.0625,-3.140625 0,-2.09375 1.07813,-3.25 1.07812,-1.15625 2.79687,-1.15625 1.65625,0 2.70313,1.140625 1.0625,1.125 1.0625,3.171875 0,0.125 0,0.375 h -6.1875 q 0.0781,1.375 0.76562,2.109375 0.70313,0.71875 1.73438,0.71875 0.78125,0 1.32812,-0.40625 0.54688,-0.40625 0.85938,-1.296875 z m -4.60938,-2.28125 h 4.625 q -0.0937,-1.046875 -0.53125,-1.5625 -0.67187,-0.8125 -1.73437,-0.8125 -0.96875,0 -1.64063,0.65625 -0.65625,0.640625 -0.71875,1.71875 z m 8.75781,8.328125 h -1.01562 q 2.34375,-3.765625 2.34375,-7.515625 0,-1.46875 -0.34375,-2.921875 -0.26563,-1.171875 -0.73438,-2.25 -0.3125,-0.703125 -1.26562,-2.34375 h 1.01562 q 1.46875,1.96875 2.17188,3.9375 0.59375,1.703125 0.59375,3.5625 0,2.109375 -0.8125,4.09375 -0.79688,1.96875 -1.95313,3.4375 z"
       fill-rule="nonzero"
       id="path57" />
    <path
       fill="#000000"
       fill-opacity="0"
       d="m 232,131.97113 h 313.00787 v 38.77165 H 232 Z"
       fill-rule="evenodd"
       id="path59" />
    <path
       fill="#434343"
       d="M 242.1875,156.33113 V 144.878 h 2.28125 l 2.71875,8.10938 q 0.375,1.125 0.54687,1.6875 0.1875,-0.625 0.60938,-1.82813 l 2.73437,-7.96875 h 2.04688 v 11.45313 h -1.46875 v -9.59375 l -3.32813,9.59375 h -1.35937 l -3.3125,-9.75 v 9.75 z m 18.64062,0 v -1.21875 q -0.96875,1.40625 -2.64062,1.40625 -0.73438,0 -1.375,-0.28125 -0.625,-0.28125 -0.9375,-0.70313 -0.3125,-0.4375 -0.4375,-1.04687 -0.0781,-0.42188 -0.0781,-1.3125 v -5.14063 h 1.40625 v 4.59375 q 0,1.10938 0.0781,1.48438 0.14062,0.5625 0.5625,0.875 0.4375,0.3125 1.0625,0.3125 0.64062,0 1.1875,-0.3125 0.5625,-0.32813 0.78125,-0.89063 0.23437,-0.5625 0.23437,-1.625 v -4.4375 h 1.40625 v 8.29688 z m 3.42969,0 V 144.878 h 1.40625 v 11.45313 z m 6.64844,-1.26563 0.20312,1.25 q -0.59375,0.125 -1.0625,0.125 -0.76562,0 -1.1875,-0.23437 -0.42187,-0.25 -0.59375,-0.64063 -0.17187,-0.40625 -0.17187,-1.67187 V 149.128 h -1.03125 v -1.09375 h 1.03125 v -2.0625 L 269.5,145.128 v 2.90625 h 1.40625 V 149.128 H 269.5 v 4.84375 q 0,0.60938 0.0625,0.78125 0.0781,0.17188 0.25,0.28125 0.17187,0.0937 0.48437,0.0937 0.23438,0 0.60938,-0.0625 z m 1.38281,-8.57812 V 144.878 h 1.40625 v 1.60938 z m 0,9.84375 v -8.29688 h 1.40625 v 8.29688 z m 3.55469,3.1875 v -11.48438 h 1.28125 v 1.07813 q 0.45312,-0.64063 1.01562,-0.95313 0.57813,-0.3125 1.39063,-0.3125 1.0625,0 1.875,0.54688 0.8125,0.54687 1.21875,1.54687 0.42187,0.98438 0.42187,2.17188 0,1.28125 -0.46875,2.29687 -0.45312,1.01563 -1.32812,1.5625 -0.85938,0.54688 -1.82813,0.54688 -0.70312,0 -1.26562,-0.29688 -0.54688,-0.29687 -0.90625,-0.75 v 4.04688 z m 1.26562,-7.29688 q 0,1.60938 0.64063,2.375 0.65625,0.76563 1.57812,0.76563 0.9375,0 1.60938,-0.79688 0.67187,-0.79687 0.67187,-2.45312 0,-1.59375 -0.65625,-2.375 -0.65625,-0.79688 -1.5625,-0.79688 -0.89062,0 -1.59375,0.84375 -0.6875,0.84375 -0.6875,2.4375 z m 7.60157,4.10938 V 144.878 h 1.40625 v 11.45313 z m 9.25781,-2.67188 1.45312,0.17188 q -0.34375,1.28125 -1.28125,1.98437 -0.92187,0.70313 -2.35937,0.70313 -1.82813,0 -2.89063,-1.125 -1.0625,-1.125 -1.0625,-3.14063 0,-2.09375 1.07813,-3.25 1.07812,-1.15625 2.79687,-1.15625 1.65625,0 2.70313,1.14063 1.0625,1.125 1.0625,3.17187 0,0.125 0,0.375 h -6.1875 q 0.0781,1.375 0.76562,2.10938 0.70313,0.71875 1.73438,0.71875 0.78125,0 1.32812,-0.40625 0.54688,-0.40625 0.85938,-1.29688 z m -4.60938,-2.28125 h 4.625 q -0.0937,-1.04687 -0.53125,-1.5625 -0.67187,-0.8125 -1.73437,-0.8125 -0.96875,0 -1.64063,0.65625 -0.65625,0.64063 -0.71875,1.71875 z m 12.25,4.95313 V 144.878 h 1.40625 v 11.45313 z m 3.58594,-9.84375 V 144.878 h 1.40625 v 1.60938 z m 0,9.84375 v -8.29688 h 1.40625 v 8.29688 z m 3.55469,0 v -8.29688 h 1.26562 v 1.17188 q 0.90625,-1.35938 2.64063,-1.35938 0.75,0 1.375,0.26563 0.625,0.26562 0.9375,0.70312 0.3125,0.4375 0.4375,1.04688 0.0781,0.39062 0.0781,1.35937 v 5.10938 h -1.40625 v -5.04688 q 0,-0.85937 -0.17187,-1.28125 -0.15625,-0.4375 -0.57813,-0.6875 -0.40625,-0.25 -0.96875,-0.25 -0.90625,0 -1.5625,0.57813 -0.64062,0.5625 -0.64062,2.15625 v 4.53125 z m 8.89844,0 V 144.878 h 1.40625 v 6.53125 l 3.32812,-3.375 h 1.82813 l -3.17188,3.07813 3.48438,5.21875 h -1.73438 l -2.73437,-4.25 -1,0.95312 v 3.29688 z m 7.4375,-2.48438 1.39062,-0.21875 q 0.10938,0.84375 0.64063,1.29688 0.54687,0.4375 1.5,0.4375 0.96875,0 1.4375,-0.39063 0.46875,-0.40625 0.46875,-0.9375 0,-0.46875 -0.40625,-0.75 -0.29688,-0.1875 -1.4375,-0.46875 -1.54688,-0.39062 -2.15625,-0.67187 -0.59375,-0.29688 -0.90625,-0.79688 -0.29688,-0.5 -0.29688,-1.10937 0,-0.5625 0.25,-1.03125 0.25,-0.46875 0.6875,-0.78125 0.32813,-0.25 0.89063,-0.40625 0.57812,-0.17188 1.21875,-0.17188 0.98437,0 1.71875,0.28125 0.73437,0.28125 1.07812,0.76563 0.35938,0.46875 0.5,1.28125 l -1.375,0.1875 q -0.0937,-0.64063 -0.54687,-1 -0.45313,-0.35938 -1.26563,-0.35938 -0.96875,0 -1.39062,0.32813 -0.40625,0.3125 -0.40625,0.73437 0,0.28125 0.17187,0.5 0.17188,0.21875 0.53125,0.375 0.21875,0.0781 1.25,0.35938 1.48438,0.39062 2.07813,0.65625 0.59375,0.25 0.92187,0.73437 0.34375,0.48438 0.34375,1.20313 0,0.70312 -0.42187,1.32812 -0.40625,0.60938 -1.1875,0.95313 -0.76563,0.34375 -1.73438,0.34375 -1.625,0 -2.46875,-0.67188 -0.84375,-0.67187 -1.07812,-2 z m 14.53906,2.48438 -2.54688,-8.29688 h 1.45313 l 1.32812,4.78125 0.48438,1.78125 q 0.0312,-0.125 0.4375,-1.70312 l 1.3125,-4.85938 h 1.45312 l 1.23438,4.8125 0.42187,1.57813 0.46875,-1.59375 1.42188,-4.79688 h 1.375 l -2.59375,8.29688 h -1.46875 l -1.3125,-4.96875 -0.32813,-1.42188 -1.67187,6.39063 z m 10.02344,-9.84375 V 144.878 h 1.40625 v 1.60938 z m 0,9.84375 v -8.29688 h 1.40625 v 8.29688 z m 6.61718,-1.26563 0.20313,1.25 q -0.59375,0.125 -1.0625,0.125 -0.76563,0 -1.1875,-0.23437 -0.42188,-0.25 -0.59375,-0.64063 -0.17188,-0.40625 -0.17188,-1.67187 V 149.128 h -1.03125 v -1.09375 h 1.03125 v -2.0625 l 1.40625,-0.84375 v 2.90625 h 1.40625 v 1.09375 h -1.40625 v 4.84375 q 0,0.60938 0.0625,0.78125 0.0781,0.17188 0.25,0.28125 0.17188,0.0937 0.48438,0.0937 0.23437,0 0.60937,-0.0625 z m 1.38282,1.26563 V 144.878 h 1.40625 v 4.10938 q 0.98437,-1.14063 2.48437,-1.14063 0.92188,0 1.59375,0.35938 0.6875,0.35937 0.96875,1 0.29688,0.64062 0.29688,1.85937 v 5.26563 h -1.40625 v -5.26563 q 0,-1.04687 -0.45313,-1.53125 -0.45312,-0.48437 -1.29687,-0.48437 -0.625,0 -1.17188,0.32812 -0.54687,0.32813 -0.78125,0.89063 -0.23437,0.54687 -0.23437,1.51562 v 4.54688 z m 19.01562,-2.67188 1.45313,0.17188 q -0.34375,1.28125 -1.28125,1.98437 -0.92188,0.70313 -2.35938,0.70313 -1.82812,0 -2.89062,-1.125 -1.0625,-1.125 -1.0625,-3.14063 0,-2.09375 1.07812,-3.25 1.07813,-1.15625 2.79688,-1.15625 1.65625,0 2.70312,1.14063 1.0625,1.125 1.0625,3.17187 0,0.125 0,0.375 h -6.1875 q 0.0781,1.375 0.76563,2.10938 0.70312,0.71875 1.73437,0.71875 0.78125,0 1.32813,-0.40625 0.54687,-0.40625 0.85937,-1.29688 z m -4.60937,-2.28125 h 4.625 q -0.0937,-1.04687 -0.53125,-1.5625 -0.67188,-0.8125 -1.73438,-0.8125 -0.96875,0 -1.64062,0.65625 -0.65625,0.64063 -0.71875,1.71875 z m 7.83593,4.95313 v -8.29688 h 1.26563 v 1.17188 q 0.90625,-1.35938 2.64062,-1.35938 0.75,0 1.375,0.26563 0.625,0.26562 0.9375,0.70312 0.3125,0.4375 0.4375,1.04688 0.0781,0.39062 0.0781,1.35937 v 5.10938 h -1.40625 v -5.04688 q 0,-0.85937 -0.17188,-1.28125 -0.15625,-0.4375 -0.57812,-0.6875 -0.40625,-0.25 -0.96875,-0.25 -0.90625,0 -1.5625,0.57813 -0.64063,0.5625 -0.64063,2.15625 v 4.53125 z m 14.27344,0 v -1.04688 q -0.78125,1.23438 -2.3125,1.23438 -1,0 -1.82812,-0.54688 -0.82813,-0.54687 -1.29688,-1.53125 -0.45312,-0.98437 -0.45312,-2.25 0,-1.25 0.40625,-2.25 0.42187,-1.01562 1.25,-1.54687 0.82812,-0.54688 1.85937,-0.54688 0.75,0 1.32813,0.3125 0.59375,0.3125 0.95312,0.82813 V 144.878 h 1.40625 v 11.45313 z m -4.4375,-4.14063 q 0,1.59375 0.67188,2.39063 0.67187,0.78125 1.57812,0.78125 0.92188,0 1.5625,-0.75 0.65625,-0.76563 0.65625,-2.3125 0,-1.70313 -0.65625,-2.5 -0.65625,-0.79688 -1.625,-0.79688 -0.9375,0 -1.5625,0.76563 -0.625,0.76562 -0.625,2.42187 z m 7.96094,7.32813 v -11.48438 h 1.28125 v 1.07813 q 0.45312,-0.64063 1.01562,-0.95313 0.57813,-0.3125 1.39063,-0.3125 1.0625,0 1.875,0.54688 0.8125,0.54687 1.21875,1.54687 0.42187,0.98438 0.42187,2.17188 0,1.28125 -0.46875,2.29687 -0.45312,1.01563 -1.32812,1.5625 -0.85938,0.54688 -1.82813,0.54688 -0.70312,0 -1.26562,-0.29688 -0.54688,-0.29687 -0.90625,-0.75 v 4.04688 z m 1.26562,-7.29688 q 0,1.60938 0.64063,2.375 0.65625,0.76563 1.57812,0.76563 0.9375,0 1.60938,-0.79688 0.67187,-0.79687 0.67187,-2.45312 0,-1.59375 -0.65625,-2.375 -0.65625,-0.79688 -1.5625,-0.79688 -0.89062,0 -1.59375,0.84375 -0.6875,0.84375 -0.6875,2.4375 z m 7.10157,-0.0469 q 0,-2.29688 1.28125,-3.40625 1.07812,-0.92188 2.60937,-0.92188 1.71875,0 2.79688,1.125 1.09375,1.10938 1.09375,3.09375 0,1.59375 -0.48438,2.51563 -0.48437,0.92187 -1.40625,1.4375 -0.90625,0.5 -2,0.5 -1.73437,0 -2.8125,-1.10938 -1.07812,-1.125 -1.07812,-3.23437 z m 1.45312,0 q 0,1.59375 0.6875,2.39062 0.70313,0.79688 1.75,0.79688 1.04688,0 1.73438,-0.79688 0.70312,-0.79687 0.70312,-2.4375 0,-1.53125 -0.70312,-2.32812 -0.6875,-0.79688 -1.73438,-0.79688 -1.04687,0 -1.75,0.79688 -0.6875,0.78125 -0.6875,2.375 z m 7.97656,-5.6875 V 144.878 h 1.40625 v 1.60938 z m 0,9.84375 v -8.29688 h 1.40625 v 8.29688 z m 3.55469,0 v -8.29688 h 1.26563 v 1.17188 q 0.90625,-1.35938 2.64062,-1.35938 0.75,0 1.375,0.26563 0.625,0.26562 0.9375,0.70312 0.3125,0.4375 0.4375,1.04688 0.0781,0.39062 0.0781,1.35937 v 5.10938 h -1.40625 v -5.04688 q 0,-0.85937 -0.17188,-1.28125 -0.15625,-0.4375 -0.57812,-0.6875 -0.40625,-0.25 -0.96875,-0.25 -0.90625,0 -1.5625,0.57813 -0.64063,0.5625 -0.64063,2.15625 v 4.53125 z M 431,155.0655 l 0.20312,1.25 q -0.59375,0.125 -1.0625,0.125 -0.76562,0 -1.1875,-0.23437 -0.42187,-0.25 -0.59375,-0.64063 -0.17187,-0.40625 -0.17187,-1.67187 V 149.128 h -1.03125 v -1.09375 h 1.03125 v -2.0625 l 1.40625,-0.84375 v 2.90625 H 431 v 1.09375 h -1.40625 v 4.84375 q 0,0.60938 0.0625,0.78125 0.0781,0.17188 0.25,0.28125 0.17187,0.0937 0.48437,0.0937 0.23438,0 0.60938,-0.0625 z m 0.82031,-1.21875 1.39063,-0.21875 q 0.10937,0.84375 0.64062,1.29688 0.54688,0.4375 1.5,0.4375 0.96875,0 1.4375,-0.39063 0.46875,-0.40625 0.46875,-0.9375 0,-0.46875 -0.40625,-0.75 -0.29687,-0.1875 -1.4375,-0.46875 -1.54687,-0.39062 -2.15625,-0.67187 -0.59375,-0.29688 -0.90625,-0.79688 -0.29687,-0.5 -0.29687,-1.10937 0,-0.5625 0.25,-1.03125 0.25,-0.46875 0.6875,-0.78125 0.32812,-0.25 0.89062,-0.40625 0.57813,-0.17188 1.21875,-0.17188 0.98438,0 1.71875,0.28125 0.73438,0.28125 1.07813,0.76563 0.35937,0.46875 0.5,1.28125 l -1.375,0.1875 q -0.0937,-0.64063 -0.54688,-1 -0.45312,-0.35938 -1.26562,-0.35938 -0.96875,0 -1.39063,0.32813 -0.40625,0.3125 -0.40625,0.73437 0,0.28125 0.17188,0.5 0.17187,0.21875 0.53125,0.375 0.21875,0.0781 1.25,0.35938 1.48437,0.39062 2.07812,0.65625 0.59375,0.25 0.92188,0.73437 0.34375,0.48438 0.34375,1.20313 0,0.70312 -0.42188,1.32812 -0.40625,0.60938 -1.1875,0.95313 -0.76562,0.34375 -1.73437,0.34375 -1.625,0 -2.46875,-0.67188 -0.84375,-0.67187 -1.07813,-2 z"
       fill-rule="nonzero"
       id="path61" />
  </g>
</svg>
