<?xml version="1.0" encoding="UTF-8" standalone="no"?>
<svg
   version="1.1"
   viewBox="0 0 842 253"
   fill="none"
   stroke="none"
   stroke-linecap="square"
   stroke-miterlimit="10"
   id="svg29"
   sodipodi:docname="networkValueChain.svg"
   width="842"
   height="253"
   inkscape:version="1.2 (dc2aeda, 2022-05-15)"
   xmlns:inkscape="http://www.inkscape.org/namespaces/inkscape"
   xmlns:sodipodi="http://sodipodi.sourceforge.net/DTD/sodipodi-0.dtd"
   xmlns="http://www.w3.org/2000/svg"
   xmlns:svg="http://www.w3.org/2000/svg">
  <defs
     id="defs33" />
  <sodipodi:namedview
     id="namedview31"
     pagecolor="#ffffff"
     bordercolor="#000000"
     borderopacity="0.25"
     inkscape:showpageshadow="2"
     inkscape:pageopacity="0.0"
     inkscape:pagecheckerboard="0"
     inkscape:deskcolor="#d1d1d1"
     showgrid="false"
     inkscape:zoom="1.0885417"
     inkscape:cx="512.15311"
     inkscape:cy="384"
     inkscape:window-width="1920"
     inkscape:window-height="1056"
     inkscape:window-x="0"
     inkscape:window-y="24"
     inkscape:window-maximized="0"
     inkscape:current-layer="svg29" />
  <clipPath
     id="p.0">
    <path
       d="M 0,0 H 1024 V 768 H 0 Z"
       clip-rule="nonzero"
       id="path2" />
  </clipPath>
  <g
     clip-path="url(#p.0)"
     id="g27">
    <path
       fill="#000000"
       fill-opacity="0"
       d="M 0,0 H 1024 V 768 H 0 Z"
       fill-rule="evenodd"
       id="path5" />
    <path
       fill="#aab147"
       d="M 0.35586208,144.56688 H 842.41516 V 253.08572 H 0.35586208 Z"
       fill-rule="evenodd"
       id="path7" />
    <path
       fill="#ffffff"
       d="m 359.1315,178.48755 q 2.95313,0 4.29688,1.26562 1.35937,1.26563 1.35937,3.46875 0,1 -0.3125,1.92188 -0.29687,0.90625 -0.98437,1.625 -0.67188,0.70312 -1.8125,1.10937 -1.125,0.40625 -2.79688,0.40625 h -1.39062 v 5.42188 h -3.21875 v -15.21875 z m -0.17187,2.64062 h -1.46875 v 4.51563 h 1.0625 q 0.90625,0 1.57812,-0.23438 0.67188,-0.25 1.03125,-0.75 0.35938,-0.51562 0.35938,-1.3125 0,-1.125 -0.625,-1.67187 -0.625,-0.54688 -1.9375,-0.54688 z m 13.2207,0.70313 q 2.34375,0 3.59375,1.01562 1.25,1.01563 1.25,3.09375 v 7.76563 h -2.21875 l -0.60938,-1.57813 h -0.0937 q -0.5,0.625 -1.01562,1.01563 -0.51563,0.39062 -1.20313,0.57812 -0.67187,0.1875 -1.64062,0.1875 -1.03125,0 -1.85938,-0.39062 -0.8125,-0.39063 -1.28125,-1.20313 -0.46875,-0.82812 -0.46875,-2.09375 0,-1.84375 1.29688,-2.71875 1.3125,-0.89062 3.92187,-0.98437 l 2.01563,-0.0625 v -0.51563 q 0,-0.90625 -0.48438,-1.32812 -0.46875,-0.4375 -1.32812,-0.4375 -0.84375,0 -1.65625,0.25 -0.8125,0.23437 -1.625,0.59375 l -1.04688,-2.14063 q 0.92188,-0.48437 2.0625,-0.76562 1.15625,-0.28125 2.39063,-0.28125 z m 1.6875,6.48437 -1.23438,0.0312 q -1.53125,0.0469 -2.14062,0.5625 -0.59375,0.5 -0.59375,1.34375 0,0.71875 0.42187,1.03125 0.4375,0.3125 1.125,0.3125 1.01563,0 1.71875,-0.60937 0.70313,-0.60938 0.70313,-1.71875 z m 14.55414,1.9375 q 0,1.1875 -0.5625,2 -0.5625,0.8125 -1.67188,1.23438 -1.09375,0.42187 -2.73437,0.42187 -1.21875,0 -2.09375,-0.15625 -0.875,-0.15625 -1.75,-0.51562 v -2.625 q 0.9375,0.42187 2.03125,0.70312 1.09375,0.28125 1.90625,0.28125 0.9375,0 1.32812,-0.28125 0.40625,-0.28125 0.40625,-0.71875 0,-0.29687 -0.17187,-0.53125 -0.15625,-0.23437 -0.6875,-0.53125 -0.53125,-0.29687 -1.65625,-0.78125 -1.09375,-0.45312 -1.79688,-0.92187 -0.70312,-0.46875 -1.04687,-1.10938 -0.34375,-0.64062 -0.34375,-1.625 0,-1.625 1.25,-2.4375 1.26562,-0.8125 3.375,-0.8125 1.07812,0 2.0625,0.21875 0.98437,0.21875 2.03125,0.70313 l -0.96875,2.28125 q -0.85938,-0.375 -1.625,-0.60938 -0.76563,-0.25 -1.5625,-0.25 -0.6875,0 -1.04688,0.1875 -0.35937,0.1875 -0.35937,0.57813 0,0.28125 0.1875,0.5 0.1875,0.21875 0.70312,0.48437 0.53125,0.26563 1.54688,0.6875 1,0.40625 1.71875,0.84375 0.73437,0.4375 1.125,1.09375 0.40625,0.65625 0.40625,1.6875 z m 10.60156,0 q 0,1.1875 -0.5625,2 -0.5625,0.8125 -1.67188,1.23438 -1.09375,0.42187 -2.73437,0.42187 -1.21875,0 -2.09375,-0.15625 -0.875,-0.15625 -1.75,-0.51562 v -2.625 q 0.9375,0.42187 2.03125,0.70312 1.09375,0.28125 1.90625,0.28125 0.9375,0 1.32812,-0.28125 0.40625,-0.28125 0.40625,-0.71875 0,-0.29687 -0.17187,-0.53125 -0.15625,-0.23437 -0.6875,-0.53125 -0.53125,-0.29687 -1.65625,-0.78125 -1.09375,-0.45312 -1.79688,-0.92187 -0.70312,-0.46875 -1.04687,-1.10938 -0.34375,-0.64062 -0.34375,-1.625 0,-1.625 1.25,-2.4375 1.26562,-0.8125 3.375,-0.8125 1.07812,0 2.0625,0.21875 0.98437,0.21875 2.03125,0.70313 l -0.96875,2.28125 q -0.85938,-0.375 -1.625,-0.60938 -0.76563,-0.25 -1.5625,-0.25 -0.6875,0 -1.04688,0.1875 -0.35937,0.1875 -0.35937,0.57813 0,0.28125 0.1875,0.5 0.1875,0.21875 0.70312,0.48437 0.53125,0.26563 1.54688,0.6875 1,0.40625 1.71875,0.84375 0.73437,0.4375 1.125,1.09375 0.40625,0.65625 0.40625,1.6875 z m 5.64847,-8.1875 v 11.64063 h -3.17188 v -11.64063 z m -1.57813,-4.5625 q 0.70313,0 1.20313,0.32813 0.51562,0.32812 0.51562,1.21875 0,0.89062 -0.51562,1.23437 -0.5,0.32813 -1.20313,0.32813 -0.71875,0 -1.23437,-0.32813 -0.5,-0.34375 -0.5,-1.23437 0,-0.89063 0.5,-1.21875 0.51562,-0.32813 1.23437,-0.32813 z m 7.6807,16.20313 -4.4375,-11.64063 h 3.32812 l 2.25,6.625 q 0.1875,0.59375 0.29688,1.23438 0.10937,0.64062 0.14062,1.15625 h 0.0937 q 0.0312,-0.54688 0.14063,-1.17188 0.125,-0.625 0.32812,-1.21875 l 2.23438,-6.625 h 3.3125 l -4.42188,11.64063 z m 14.16372,-11.85938 q 1.60938,0 2.78125,0.625 1.17188,0.60938 1.79688,1.79688 0.64062,1.17187 0.64062,2.85937 v 1.54688 h -7.51562 q 0.0625,1.34375 0.8125,2.10937 0.75,0.76563 2.09375,0.76563 1.125,0 2.04687,-0.21875 0.92188,-0.23438 1.90625,-0.70313 v 2.46875 q -0.85937,0.42188 -1.8125,0.60938 -0.9375,0.20312 -2.28125,0.20312 -1.75,0 -3.10937,-0.64062 -1.34375,-0.64063 -2.10938,-1.96875 -0.76562,-1.32813 -0.76562,-3.32813 0,-2.04687 0.6875,-3.40625 0.70312,-1.35937 1.9375,-2.03125 1.25,-0.6875 2.89062,-0.6875 z m 0.0156,2.25 q -0.92188,0 -1.53125,0.59375 -0.60938,0.59375 -0.70313,1.875 h 4.45313 q 0,-0.71875 -0.25,-1.26562 -0.25,-0.54688 -0.73438,-0.875 -0.48437,-0.32813 -1.23437,-0.32813 z m 16.50076,9.60938 h -3.17187 v -16.20313 h 3.17187 z m 8.1026,-11.875 q 2.34375,0 3.59375,1.01562 1.25,1.01563 1.25,3.09375 v 7.76563 h -2.21875 l -0.60937,-1.57813 h -0.0937 q -0.5,0.625 -1.01563,1.01563 -0.51562,0.39062 -1.20312,0.57812 -0.67188,0.1875 -1.64063,0.1875 -1.03125,0 -1.85937,-0.39062 -0.8125,-0.39063 -1.28125,-1.20313 -0.46875,-0.82812 -0.46875,-2.09375 0,-1.84375 1.29687,-2.71875 1.3125,-0.89062 3.92188,-0.98437 l 2.01562,-0.0625 v -0.51563 q 0,-0.90625 -0.48437,-1.32812 -0.46875,-0.4375 -1.32813,-0.4375 -0.84375,0 -1.65625,0.25 -0.8125,0.23437 -1.625,0.59375 l -1.04687,-2.14063 q 0.92187,-0.48437 2.0625,-0.76562 1.15625,-0.28125 2.39062,-0.28125 z m 1.6875,6.48437 -1.23437,0.0312 q -1.53125,0.0469 -2.14063,0.5625 -0.59375,0.5 -0.59375,1.34375 0,0.71875 0.42188,1.03125 0.4375,0.3125 1.125,0.3125 1.01562,0 1.71875,-0.60937 0.70312,-0.60938 0.70312,-1.71875 z m 4.75726,-6.25 h 3.48438 l 2.1875,6.54688 q 0.10937,0.3125 0.17187,0.64062 0.0781,0.3125 0.125,0.65625 0.0625,0.34375 0.0937,0.71875 h 0.0625 q 0.0625,-0.5625 0.17188,-1.04687 0.10937,-0.48438 0.28125,-0.96875 l 2.15625,-6.54688 h 3.39062 l -4.92187,13.125 q -0.4375,1.21875 -1.15625,2.01563 -0.71875,0.8125 -1.65625,1.21875 -0.9375,0.40625 -2.04688,0.40625 -0.54687,0 -0.9375,-0.0625 -0.39062,-0.0469 -0.67187,-0.10938 v -2.53125 q 0.21875,0.0625 0.54687,0.0937 0.32813,0.0469 0.70313,0.0469 0.65625,0 1.14062,-0.28125 0.48438,-0.28125 0.79688,-0.76563 0.32812,-0.46875 0.51562,-1.03125 l 0.1875,-0.5625 z m 18.60123,-0.21875 q 1.60938,0 2.78125,0.625 1.17188,0.60938 1.79688,1.79688 0.64062,1.17187 0.64062,2.85937 v 1.54688 h -7.51562 q 0.0625,1.34375 0.8125,2.10937 0.75,0.76563 2.09375,0.76563 1.125,0 2.04687,-0.21875 0.92188,-0.23438 1.90625,-0.70313 v 2.46875 q -0.85937,0.42188 -1.8125,0.60938 -0.9375,0.20312 -2.28125,0.20312 -1.75,0 -3.10937,-0.64062 -1.34375,-0.64063 -2.10938,-1.96875 -0.76562,-1.32813 -0.76562,-3.32813 0,-2.04687 0.6875,-3.40625 0.70312,-1.35937 1.9375,-2.03125 1.25,-0.6875 2.89062,-0.6875 z m 0.0156,2.25 q -0.92188,0 -1.53125,0.59375 -0.60938,0.59375 -0.70313,1.875 h 4.45313 q 0,-0.71875 -0.25,-1.26562 -0.25,-0.54688 -0.73438,-0.875 -0.48437,-0.32813 -1.23437,-0.32813 z m 14.2886,-2.25 q 0.23438,0 0.54688,0.0312 0.32812,0.0156 0.51562,0.0625 l -0.23437,2.96875 q -0.15625,-0.0469 -0.45313,-0.0625 -0.28125,-0.0312 -0.48437,-0.0312 -0.60938,0 -1.1875,0.15625 -0.57813,0.15625 -1.04688,0.5 -0.45312,0.34375 -0.71875,0.92188 -0.26562,0.5625 -0.26562,1.39062 v 5.92188 h -3.17188 v -11.64063 h 2.40625 l 0.46875,1.95313 h 0.15625 q 0.34375,-0.59375 0.85938,-1.07813 0.51562,-0.5 1.17187,-0.79687 0.65625,-0.29688 1.4375,-0.29688 z"
       fill-rule="nonzero"
       id="path9" />
    <path
       fill="#ffffff"
       d="m 341.12457,219.3063 h -1.07813 v -15.21875 h 8.34375 v 0.96875 h -7.26562 v 6.48437 h 6.85937 v 0.95313 h -6.85937 z m 10.41928,-11.3125 v 11.3125 h -1.04687 v -11.3125 z m -0.5,-4.1875 q 0.39063,0 0.57813,0.23437 0.1875,0.23438 0.1875,0.625 0,0.39063 -0.1875,0.625 -0.1875,0.23438 -0.57813,0.23438 -0.375,0 -0.5625,-0.23438 -0.1875,-0.23437 -0.1875,-0.625 0,-0.39062 0.1875,-0.625 0.1875,-0.23437 0.5625,-0.23437 z m 5.32172,-0.70313 v 4.60938 q 0,0.59375 -0.0312,1.29687 -0.0156,0.70313 -0.0312,1.17188 h 0.0625 q 0.40625,-1.04688 1.40625,-1.73438 1.01562,-0.6875 2.53125,-0.6875 2.20312,0 3.40625,1.48438 1.20312,1.48437 1.20312,4.35937 0,1.76563 -0.54687,3.09375 -0.53125,1.32813 -1.60938,2.07813 -1.0625,0.73437 -2.67187,0.73437 -1.4375,0 -2.35938,-0.60937 -0.92187,-0.60938 -1.32812,-1.51563 h -0.0937 l -0.1875,1.92188 h -0.8125 v -16.20313 z m 3.8125,5.5625 q -1.34375,0 -2.1875,0.57813 -0.84375,0.57812 -1.23438,1.6875 -0.39062,1.10937 -0.39062,2.70312 v 0.15625 q 0,2.34375 0.84375,3.57813 0.85937,1.23437 2.78125,1.23437 1.89062,0 2.85937,-1.29687 0.98438,-1.29688 0.98438,-3.70313 0,-2.4375 -0.90625,-3.6875 -0.90625,-1.25 -2.75,-1.25 z m 12.35107,-0.875 q 0.4375,0 0.82813,0.0625 0.40625,0.0469 0.75,0.14063 l -0.17188,0.95312 q -0.34375,-0.0937 -0.70312,-0.14062 -0.34375,-0.0469 -0.75,-0.0469 -0.79688,0 -1.4375,0.3125 -0.625,0.29688 -1.0625,0.85938 -0.4375,0.5625 -0.67188,1.35937 -0.21875,0.78125 -0.21875,1.76563 v 6.25 h -1.0625 v -11.3125 h 0.90625 l 0.0937,2.125 h 0.0625 q 0.26563,-0.65625 0.73438,-1.17188 0.48437,-0.53125 1.15625,-0.84375 0.67187,-0.3125 1.54687,-0.3125 z m 8.08133,-0.0156 q 1.4375,0 2.40625,0.67187 0.96875,0.67188 1.4375,1.85938 0.46875,1.17187 0.46875,2.6875 v 0.76562 h -8.17187 q 0,2.32813 1.07812,3.57813 1.07813,1.25 3.09375,1.25 1.04688,0 1.8125,-0.17188 0.78125,-0.17187 1.73438,-0.59375 v 0.96875 q -0.82813,0.375 -1.67188,0.54688 -0.82812,0.17187 -1.90625,0.17187 -1.71875,0 -2.89062,-0.70312 -1.15625,-0.71875 -1.75,-2.01563 -0.57813,-1.3125 -0.57813,-3.04687 0,-1.70313 0.5625,-3.04688 0.5625,-1.35937 1.65625,-2.14062 1.10938,-0.78125 2.71875,-0.78125 z m -0.0156,0.89062 q -1.625,0 -2.64063,1.07813 -1,1.07812 -1.17187,3.10937 h 7.04687 q 0,-1.23437 -0.35937,-2.17187 -0.34375,-0.95313 -1.0625,-1.48438 -0.70313,-0.53125 -1.8125,-0.53125 z m 16.92807,-0.875 q 1.875,0 2.79687,0.9375 0.92188,0.9375 0.92188,2.98438 v 7.59375 h -0.8125 l -0.1875,-1.98438 h -0.0625 q -0.35938,0.64063 -0.89063,1.14063 -0.51562,0.48437 -1.26562,0.76562 -0.75,0.28125 -1.84375,0.28125 -1.09375,0 -1.875,-0.35937 -0.76563,-0.35938 -1.1875,-1.0625 -0.42188,-0.70313 -0.42188,-1.70313 0,-1.6875 1.39063,-2.5625 1.40625,-0.875 4.01562,-1 l 2.10938,-0.0937 v -0.82812 q 0,-1.73438 -0.6875,-2.46875 -0.6875,-0.75 -2.03125,-0.75 -0.875,0 -1.6875,0.23437 -0.8125,0.21875 -1.64063,0.625 l -0.32812,-0.875 q 0.8125,-0.375 1.73437,-0.625 0.9375,-0.25 1.95313,-0.25 z m 2.67187,5.75 -1.98437,0.0937 q -2.15625,0.0937 -3.28125,0.76563 -1.125,0.67187 -1.125,2 0,1.07812 0.67187,1.65625 0.67188,0.5625 1.875,0.5625 1.85938,0 2.84375,-1.0625 0.98438,-1.0625 1,-2.89063 z m 9.65872,-5.76562 q 1.90625,0 2.92188,1 1.03125,0.98437 1.03125,3.125 v 7.40625 h -1.04688 v -7.34375 q 0,-1.6875 -0.76562,-2.46875 -0.76563,-0.79688 -2.23438,-0.79688 -1.875,0 -2.85937,1.09375 -0.98438,1.07813 -0.98438,3.28125 v 6.23438 h -1.04687 v -11.3125 h 0.85937 l 0.15625,2.04687 h 0.0625 q 0.29688,-0.625 0.8125,-1.14062 0.53125,-0.51563 1.29688,-0.8125 0.78125,-0.3125 1.79687,-0.3125 z m 11.71567,11.73437 q -2.32812,0 -3.54687,-1.45312 -1.20313,-1.46875 -1.20313,-4.26563 0,-2.9375 1.28125,-4.46875 1.28125,-1.54687 3.5625,-1.54687 0.98438,0 1.70313,0.29687 0.73437,0.29688 1.21875,0.8125 0.5,0.51563 0.76562,1.17188 h 0.0937 q -0.0469,-0.54688 -0.0781,-1.17188 -0.0156,-0.64062 -0.0156,-1.17187 v -4.60938 h 1.04688 v 16.20313 h -0.84375 l -0.14063,-2.07813 h -0.0625 q -0.28125,0.625 -0.78125,1.15625 -0.48437,0.51563 -1.23437,0.82813 -0.73438,0.29687 -1.76563,0.29687 z m 0.10938,-0.90625 q 2,0 2.84375,-1.25 0.84375,-1.25 0.84375,-3.5625 v -0.15625 q 0,-2.40625 -0.84375,-3.67187 -0.84375,-1.28125 -2.75,-1.28125 -1.89063,0 -2.89063,1.3125 -0.98437,1.3125 -0.98437,3.8125 0,2.35937 0.92187,3.57812 0.9375,1.21875 2.85938,1.21875 z m 18.12579,0.90625 q -2.32813,0 -3.54688,-1.45312 -1.20312,-1.46875 -1.20312,-4.26563 0,-2.9375 1.28125,-4.46875 1.28125,-1.54687 3.5625,-1.54687 0.98437,0 1.70312,0.29687 0.73438,0.29688 1.21875,0.8125 0.5,0.51563 0.76563,1.17188 h 0.0937 q -0.0469,-0.54688 -0.0781,-1.17188 -0.0156,-0.64062 -0.0156,-1.17187 v -4.60938 h 1.04687 v 16.20313 h -0.84375 l -0.14062,-2.07813 h -0.0625 q -0.28125,0.625 -0.78125,1.15625 -0.48438,0.51563 -1.23438,0.82813 -0.73437,0.29687 -1.76562,0.29687 z m 0.10937,-0.90625 q 2,0 2.84375,-1.25 0.84375,-1.25 0.84375,-3.5625 v -0.15625 q 0,-2.40625 -0.84375,-3.67187 -0.84375,-1.28125 -2.75,-1.28125 -1.89062,0 -2.89062,1.3125 -0.98438,1.3125 -0.98438,3.8125 0,2.35937 0.92188,3.57812 0.9375,1.21875 2.85937,1.21875 z m 17.27295,-10.60937 v 11.3125 h -0.84375 l -0.15625,-2.04688 h -0.0625 q -0.29687,0.625 -0.82812,1.14063 -0.53125,0.51562 -1.3125,0.8125 -0.76563,0.29687 -1.78125,0.29687 -1.29688,0 -2.1875,-0.45312 -0.875,-0.45313 -1.32813,-1.35938 -0.4375,-0.92187 -0.4375,-2.29687 v -7.40625 h 1.04688 v 7.29687 q 0,1.70313 0.76562,2.51563 0.76563,0.79687 2.25,0.79687 1.25,0 2.09375,-0.48437 0.84375,-0.48438 1.28125,-1.45313 0.45313,-0.96875 0.45313,-2.4375 v -6.23437 z m 8.34067,11.51562 q -1.6875,0 -2.85937,-0.70312 -1.15625,-0.70313 -1.75,-2 -0.57813,-1.3125 -0.57813,-3.10938 0,-1.85937 0.67188,-3.1875 0.67187,-1.32812 1.90625,-2.03125 1.23437,-0.70312 2.89062,-0.70312 0.8125,0 1.5,0.14062 0.70313,0.14063 1.26563,0.40625 l -0.28125,0.92188 q -0.57813,-0.26563 -1.23438,-0.39063 -0.65625,-0.14062 -1.26562,-0.14062 -1.39063,0 -2.375,0.60937 -0.96875,0.60938 -1.48438,1.73438 -0.51562,1.10937 -0.51562,2.64062 0,1.42188 0.4375,2.53125 0.4375,1.09375 1.34375,1.71875 0.90625,0.625 2.32812,0.625 0.8125,0 1.5625,-0.15625 0.75,-0.17187 1.35938,-0.4375 v 0.96875 q -0.54688,0.25 -1.28125,0.40625 -0.71875,0.15625 -1.64063,0.15625 z m 8.64859,-0.90625 q 0.48438,0 0.90625,-0.0625 0.42188,-0.0781 0.75,-0.1875 v 0.875 q -0.32812,0.10938 -0.78125,0.1875 -0.45312,0.0937 -0.98437,0.0937 -0.96875,0 -1.60938,-0.35937 -0.625,-0.35938 -0.95312,-1.09375 -0.3125,-0.73438 -0.3125,-1.85938 v -7.34375 h -1.6875 v -0.60937 l 1.67187,-0.32813 0.35938,-2.67187 h 0.70312 v 2.75 h 3.53125 v 0.85937 h -3.53125 v 7.28125 q 0,1.21875 0.45313,1.84375 0.45312,0.625 1.48437,0.625 z m 5.11804,-10.60937 v 11.3125 h -1.04687 v -11.3125 z m -0.5,-4.1875 q 0.39063,0 0.57813,0.23437 0.1875,0.23438 0.1875,0.625 0,0.39063 -0.1875,0.625 -0.1875,0.23438 -0.57813,0.23438 -0.375,0 -0.5625,-0.23438 -0.1875,-0.23437 -0.1875,-0.625 0,-0.39062 0.1875,-0.625 0.1875,-0.23437 0.5625,-0.23437 z m 9.25925,3.96875 q 1.90625,0 2.92188,1 1.03125,0.98437 1.03125,3.125 v 7.40625 h -1.04688 v -7.34375 q 0,-1.6875 -0.76562,-2.46875 -0.76563,-0.79688 -2.23438,-0.79688 -1.875,0 -2.85937,1.09375 -0.98438,1.07813 -0.98438,3.28125 v 6.23438 h -1.04687 v -11.3125 h 0.85937 l 0.15625,2.04687 h 0.0625 q 0.29688,-0.625 0.8125,-1.14062 0.53125,-0.51563 1.29688,-0.8125 0.78125,-0.3125 1.79687,-0.3125 z m 10.60629,16.65625 q -2.14062,0 -3.32812,-0.82813 -1.17188,-0.8125 -1.17188,-2.29687 0,-1.14063 0.71875,-1.96875 0.71875,-0.82813 1.95313,-1 -0.5,-0.23438 -0.8125,-0.625 -0.29688,-0.39063 -0.29688,-0.92188 0,-0.57812 0.35938,-1.07812 0.375,-0.51563 1.09375,-0.9375 -0.96875,-0.35938 -1.53125,-1.20313 -0.5625,-0.84375 -0.5625,-2.04687 0,-1.14063 0.48437,-1.98438 0.48438,-0.84375 1.39063,-1.29687 0.90625,-0.46875 2.125,-0.46875 0.375,0 0.6875,0.0156 0.3125,0.0156 0.5625,0.0625 0.26562,0.0469 0.46875,0.125 h 3.65625 v 0.75 l -2.32813,0.15625 q 0.45313,0.54688 0.6875,1.1875 0.23438,0.64063 0.23438,1.34375 0,1.6875 -1.0625,2.6875 -1.0625,0.98438 -2.96875,0.98438 -0.51563,0 -1.01563,-0.0937 -0.64062,0.375 -0.96875,0.76562 -0.32812,0.375 -0.32812,0.9375 0,0.34375 0.20312,0.57813 0.20313,0.21875 0.59375,0.34375 0.40625,0.10937 0.98438,0.10937 h 1.98437 q 1.84375,0 2.8125,0.75 0.98438,0.75 0.98438,2.21875 0,1.78125 -1.46875,2.75 -1.45313,0.98438 -4.14063,0.98438 z m 0.0781,-0.89063 q 1.48437,0 2.46875,-0.32812 1,-0.3125 1.5,-0.95313 0.5,-0.625 0.5,-1.54687 0,-0.76563 -0.35938,-1.1875 -0.35937,-0.40625 -1.03125,-0.5625 -0.67187,-0.17188 -1.57812,-0.17188 H 498.347 q -0.90625,0 -1.625,0.25 -0.70312,0.25 -1.09375,0.78125 -0.39062,0.53125 -0.39062,1.40625 0,1.14063 0.89062,1.71875 0.89063,0.59375 2.60938,0.59375 z m 0.32812,-9.29687 q 1.40625,0 2.15625,-0.70313 0.75,-0.71875 0.75,-2.0625 0,-1.4375 -0.78125,-2.14062 -0.76562,-0.71875 -2.14062,-0.71875 -1.34375,0 -2.10938,0.76562 -0.76562,0.75 -0.76562,2.14063 0,1.29687 0.71875,2.01562 0.73437,0.70313 2.17187,0.70313 z"
       fill-rule="nonzero"
       id="path11" />
    <path
       fill="#4571a7"
       d="M 0.9435891,73.79264 H 843.00286 v 58.25315 H 0.9435891 Z"
       fill-rule="evenodd"
       id="path13" />
    <path
       fill="#ffffff"
       d="m 370.44165,97.79922 -1.09375,-3.625 h -5.5625 l -1.09375,3.625 h -3.48438 l 5.375,-15.28125 h 3.95313 l 5.39062,15.28125 z m -1.875,-6.328125 -1.09375,-3.546875 q -0.10938,-0.359375 -0.28125,-0.90625 -0.17188,-0.5625 -0.34375,-1.140625 -0.17188,-0.578125 -0.28125,-1 -0.0937,0.421875 -0.28125,1.0625 -0.1875,0.625 -0.35938,1.1875 -0.15625,0.5625 -0.23437,0.796875 l -1.09375,3.546875 z m 11.7464,6.53125 q -1.71875,0 -2.9375,-0.625 -1.21875,-0.625 -1.85938,-1.953125 -0.64062,-1.328125 -0.64062,-3.390625 0,-2.125 0.71875,-3.46875 0.73437,-1.359375 2.01562,-1.984375 1.29688,-0.640625 2.98438,-0.640625 1.21875,0 2.09375,0.234375 0.875,0.234375 1.53125,0.5625 l -0.9375,2.453125 q -0.75,-0.3125 -1.39063,-0.5 -0.64062,-0.1875 -1.29687,-0.1875 -0.82813,0 -1.39063,0.390625 -0.54687,0.390625 -0.8125,1.171875 -0.26562,0.78125 -0.26562,1.953125 0,1.15625 0.28125,1.921875 0.29687,0.75 0.84375,1.125 0.5625,0.375 1.34375,0.375 1,0 1.76562,-0.265625 0.76563,-0.265625 1.5,-0.75 v 2.71875 q -0.73437,0.453125 -1.53125,0.65625 -0.79687,0.203125 -2.01562,0.203125 z m 11.15359,-2.53125 q 0.51563,0 1,-0.09375 0.5,-0.109375 1,-0.265625 v 2.359375 q -0.51562,0.234375 -1.28125,0.375 -0.75,0.15625 -1.64062,0.15625 -1.04688,0 -1.875,-0.328125 -0.82813,-0.34375 -1.29688,-1.171875 -0.46875,-0.84375 -0.46875,-2.34375 v -5.625 h -1.53125 v -1.34375 l 1.75,-1.046875 0.92188,-2.46875 h 2.03125 v 2.484375 h 3.26562 v 2.375 h -3.26562 v 5.625 q 0,0.65625 0.375,0.984375 0.39062,0.328125 1.01562,0.328125 z m 7.52378,-9.3125 V 97.79922 h -3.17188 V 86.158595 Z m -1.57813,-4.5625 q 0.70313,0 1.20313,0.328125 0.51562,0.328125 0.51562,1.21875 0,0.890625 -0.51562,1.234375 -0.5,0.328125 -1.20313,0.328125 -0.71875,0 -1.23437,-0.328125 -0.5,-0.34375 -0.5,-1.234375 0,-0.890625 0.5,-1.21875 0.51562,-0.328125 1.23437,-0.328125 z m 7.68073,16.203125 -4.4375,-11.640625 h 3.32812 l 2.25,6.625 q 0.1875,0.59375 0.29688,1.234375 0.10937,0.640625 0.14062,1.15625 h 0.0937 q 0.0312,-0.546875 0.14063,-1.171875 0.125,-0.625 0.32812,-1.21875 l 2.23438,-6.625 h 3.3125 l -4.42188,11.640625 z m 14.16369,-11.859375 q 1.60938,0 2.78125,0.625 1.17188,0.609375 1.79688,1.796875 0.64062,1.171875 0.64062,2.859375 v 1.546875 h -7.51562 q 0.0625,1.34375 0.8125,2.109375 0.75,0.765625 2.09375,0.765625 1.125,0 2.04687,-0.21875 0.92188,-0.234375 1.90625,-0.703125 v 2.46875 q -0.85937,0.421875 -1.8125,0.609375 -0.9375,0.203125 -2.28125,0.203125 -1.75,0 -3.10937,-0.640625 -1.34375,-0.640625 -2.10938,-1.96875 -0.76562,-1.328125 -0.76562,-3.328125 0,-2.046875 0.6875,-3.40625 0.70312,-1.359375 1.9375,-2.03125 1.25,-0.6875 2.89062,-0.6875 z m 0.0156,2.25 q -0.92188,0 -1.53125,0.59375 -0.60938,0.59375 -0.70313,1.875 h 4.45313 q 0,-0.71875 -0.25,-1.265625 -0.25,-0.546875 -0.73438,-0.875 -0.48437,-0.328125 -1.23437,-0.328125 z m 16.50079,9.609375 h -3.17187 V 81.596095 h 3.17187 z m 8.1026,-11.875 q 2.34375,0 3.59375,1.015625 1.25,1.015625 1.25,3.09375 v 7.765625 h -2.21875 l -0.60937,-1.578125 h -0.0937 q -0.5,0.625 -1.01563,1.015625 -0.51562,0.390625 -1.20312,0.578125 -0.67188,0.1875 -1.64063,0.1875 -1.03125,0 -1.85937,-0.390625 -0.8125,-0.390625 -1.28125,-1.203125 -0.46875,-0.828125 -0.46875,-2.09375 0,-1.84375 1.29687,-2.71875 1.3125,-0.890625 3.92188,-0.984375 l 2.01562,-0.0625 v -0.515625 q 0,-0.90625 -0.48437,-1.328125 -0.46875,-0.4375 -1.32813,-0.4375 -0.84375,0 -1.65625,0.25 -0.8125,0.234375 -1.625,0.59375 l -1.04687,-2.140625 q 0.92187,-0.484375 2.0625,-0.765625 1.15625,-0.28125 2.39062,-0.28125 z m 1.6875,6.484375 -1.23437,0.03125 q -1.53125,0.04687 -2.14063,0.5625 -0.59375,0.5 -0.59375,1.34375 0,0.71875 0.42188,1.03125 0.4375,0.3125 1.125,0.3125 1.01562,0 1.71875,-0.609375 0.70312,-0.609375 0.70312,-1.71875 z m 4.75726,-6.25 h 3.48438 l 2.1875,6.546875 q 0.10937,0.3125 0.17187,0.640625 0.0781,0.3125 0.125,0.65625 0.0625,0.34375 0.0937,0.71875 h 0.0625 q 0.0625,-0.5625 0.17188,-1.046875 0.10937,-0.484375 0.28125,-0.96875 l 2.15625,-6.546875 h 3.39062 l -4.92187,13.125 q -0.4375,1.218755 -1.15625,2.015625 -0.71875,0.8125 -1.65625,1.21875 -0.9375,0.40625 -2.04688,0.40625 -0.54687,0 -0.9375,-0.0625 -0.39062,-0.0469 -0.67187,-0.10937 v -2.53125 q 0.21875,0.0625 0.54687,0.0937 0.32813,0.0469 0.70313,0.0469 0.65625,0 1.14062,-0.28125 0.48438,-0.28125 0.79688,-0.765625 0.32812,-0.46875 0.51562,-1.03125 l 0.1875,-0.5625 z m 18.6012,-0.21875 q 1.60937,0 2.78125,0.625 1.17187,0.609375 1.79687,1.796875 0.64063,1.171875 0.64063,2.859375 v 1.546875 h -7.51563 q 0.0625,1.34375 0.8125,2.109375 0.75,0.765625 2.09375,0.765625 1.125,0 2.04688,-0.21875 0.92187,-0.234375 1.90625,-0.703125 v 2.46875 q -0.85938,0.421875 -1.8125,0.609375 -0.9375,0.203125 -2.28125,0.203125 -1.75,0 -3.10938,-0.640625 -1.34375,-0.640625 -2.10937,-1.96875 -0.76563,-1.328125 -0.76563,-3.328125 0,-2.046875 0.6875,-3.40625 0.70313,-1.359375 1.9375,-2.03125 1.25,-0.6875 2.89063,-0.6875 z m 0.0156,2.25 q -0.92187,0 -1.53125,0.59375 -0.60937,0.59375 -0.70312,1.875 h 4.45312 q 0,-0.71875 -0.25,-1.265625 -0.25,-0.546875 -0.73437,-0.875 -0.48438,-0.328125 -1.23438,-0.328125 z m 14.28861,-2.25 q 0.23438,0 0.54688,0.03125 0.32812,0.01563 0.51562,0.0625 l -0.23437,2.96875 q -0.15625,-0.04687 -0.45313,-0.0625 -0.28125,-0.03125 -0.48437,-0.03125 -0.60938,0 -1.1875,0.15625 -0.57813,0.15625 -1.04688,0.5 -0.45312,0.34375 -0.71875,0.921875 -0.26562,0.5625 -0.26562,1.390625 v 5.921875 h -3.17188 V 86.158595 h 2.40625 l 0.46875,1.953125 h 0.15625 q 0.34375,-0.59375 0.85938,-1.078125 0.51562,-0.5 1.17187,-0.796875 0.65625,-0.296875 1.4375,-0.296875 z"
       fill-rule="nonzero"
       id="path15" />
    <path
       fill="#ffffff"
       d="m 380.5067,123.39922 h -8.32812 v -15.21875 h 8.32812 v 0.96875 h -7.25 v 5.76562 h 6.84375 v 0.96875 h -6.84375 v 6.54688 h 7.25 z m 4.26276,0 h -1.0625 v -16.20313 h 1.0625 z m 8.04049,-11.53125 q 1.4375,0 2.40625,0.67187 0.96875,0.67188 1.4375,1.85938 0.46875,1.17187 0.46875,2.6875 v 0.76562 h -8.17187 q 0,2.32813 1.07812,3.57813 1.07813,1.25 3.09375,1.25 1.04688,0 1.8125,-0.17188 0.78125,-0.17187 1.73438,-0.59375 v 0.96875 q -0.82813,0.375 -1.67188,0.54688 -0.82812,0.17187 -1.90625,0.17187 -1.71875,0 -2.89062,-0.70312 -1.15625,-0.71875 -1.75,-2.01563 -0.57813,-1.3125 -0.57813,-3.04687 0,-1.70313 0.5625,-3.04688 0.5625,-1.35937 1.65625,-2.14062 1.10938,-0.78125 2.71875,-0.78125 z m -0.0156,0.89062 q -1.625,0 -2.64063,1.07813 -1,1.07812 -1.17187,3.10937 h 7.04687 q 0,-1.23437 -0.35937,-2.17187 -0.34375,-0.95313 -1.0625,-1.48438 -0.70313,-0.53125 -1.8125,-0.53125 z m 11.98154,10.84375 q -1.6875,0 -2.85938,-0.70312 -1.15625,-0.70313 -1.75,-2 -0.57812,-1.3125 -0.57812,-3.10938 0,-1.85937 0.67187,-3.1875 0.67188,-1.32812 1.90625,-2.03125 1.23438,-0.70312 2.89063,-0.70312 0.8125,0 1.5,0.14062 0.70312,0.14063 1.26562,0.40625 l -0.28125,0.92188 q -0.57812,-0.26563 -1.23437,-0.39063 -0.65625,-0.14062 -1.26563,-0.14062 -1.39062,0 -2.375,0.60937 -0.96875,0.60938 -1.48437,1.73438 -0.51563,1.10937 -0.51563,2.64062 0,1.42188 0.4375,2.53125 0.4375,1.09375 1.34375,1.71875 0.90625,0.625 2.32813,0.625 0.8125,0 1.5625,-0.15625 0.75,-0.17187 1.35937,-0.4375 v 0.96875 q -0.54687,0.25 -1.28125,0.40625 -0.71875,0.15625 -1.64062,0.15625 z m 8.64856,-0.90625 q 0.48437,0 0.90625,-0.0625 0.42187,-0.0781 0.75,-0.1875 v 0.875 q -0.32813,0.10938 -0.78125,0.1875 -0.45313,0.0937 -0.98438,0.0937 -0.96875,0 -1.60937,-0.35937 -0.625,-0.35938 -0.95313,-1.09375 -0.3125,-0.73438 -0.3125,-1.85938 v -7.34375 h -1.6875 v -0.60937 l 1.67188,-0.32813 0.35937,-2.67187 h 0.70313 v 2.75 h 3.53125 v 0.85937 h -3.53125 v 7.28125 q 0,1.21875 0.45312,1.84375 0.45313,0.625 1.48438,0.625 z m 8.58679,-10.8125 q 0.4375,0 0.82812,0.0625 0.40625,0.0469 0.75,0.14063 l -0.17187,0.95312 q -0.34375,-0.0937 -0.70313,-0.14062 -0.34375,-0.0469 -0.75,-0.0469 -0.79687,0 -1.4375,0.3125 -0.625,0.29688 -1.0625,0.85938 -0.4375,0.5625 -0.67187,1.35937 -0.21875,0.78125 -0.21875,1.76563 v 6.25 h -1.0625 v -11.3125 h 0.90625 l 0.0937,2.125 h 0.0625 q 0.26562,-0.65625 0.73437,-1.17188 0.48438,-0.53125 1.15625,-0.84375 0.67188,-0.3125 1.54688,-0.3125 z m 13.17508,5.84375 q 0,1.3125 -0.32813,2.39063 -0.3125,1.07812 -0.95312,1.85937 -0.625,0.78125 -1.57813,1.20313 -0.9375,0.42187 -2.1875,0.42187 -1.1875,0 -2.125,-0.42187 -0.92187,-0.42188 -1.5625,-1.20313 -0.64062,-0.78125 -0.96875,-1.85937 -0.32812,-1.07813 -0.32812,-2.39063 0,-1.82812 0.60937,-3.14062 0.60938,-1.32813 1.75,-2.01563 1.14063,-0.70312 2.73438,-0.70312 1.64062,0 2.73437,0.75 1.10938,0.73437 1.65625,2.0625 0.54688,1.3125 0.54688,3.04687 z m -8.95313,0 q 0,1.48438 0.42188,2.60938 0.4375,1.10937 1.29687,1.73437 0.875,0.625 2.20313,0.625 1.375,0 2.25,-0.625 0.875,-0.625 1.28125,-1.75 0.42187,-1.125 0.42187,-2.59375 0,-1.4375 -0.40625,-2.54687 -0.39062,-1.10938 -1.25,-1.75 -0.84375,-0.64063 -2.21875,-0.64063 -1.96875,0 -2.98437,1.3125 -1.01563,1.3125 -1.01563,3.625 z m 17.05423,-5.85937 q 1.90625,0 2.92188,1 1.03125,0.98437 1.03125,3.125 v 7.40625 h -1.04688 v -7.34375 q 0,-1.6875 -0.76562,-2.46875 -0.76563,-0.79688 -2.23438,-0.79688 -1.875,0 -2.85937,1.09375 -0.98438,1.07813 -0.98438,3.28125 v 6.23438 h -1.04687 v -11.3125 h 0.85937 l 0.15625,2.04687 h 0.0625 q 0.29688,-0.625 0.8125,-1.14062 0.53125,-0.51563 1.29688,-0.8125 0.78125,-0.3125 1.79687,-0.3125 z m 8.6532,0.21875 v 11.3125 h -1.04688 v -11.3125 z m -0.5,-4.1875 q 0.39062,0 0.57812,0.23437 0.1875,0.23438 0.1875,0.625 0,0.39063 -0.1875,0.625 -0.1875,0.23438 -0.57812,0.23438 -0.375,0 -0.5625,-0.23438 -0.1875,-0.23437 -0.1875,-0.625 0,-0.39062 0.1875,-0.625 0.1875,-0.23437 0.5625,-0.23437 z m 8.82175,15.70312 q -1.6875,0 -2.85938,-0.70312 -1.15625,-0.70313 -1.75,-2 -0.57812,-1.3125 -0.57812,-3.10938 0,-1.85937 0.67187,-3.1875 0.67188,-1.32812 1.90625,-2.03125 1.23438,-0.70312 2.89063,-0.70312 0.8125,0 1.5,0.14062 0.70312,0.14063 1.26562,0.40625 l -0.28125,0.92188 q -0.57812,-0.26563 -1.23437,-0.39063 -0.65625,-0.14062 -1.26563,-0.14062 -1.39062,0 -2.375,0.60937 -0.96875,0.60938 -1.48437,1.73438 -0.51563,1.10937 -0.51563,2.64062 0,1.42188 0.4375,2.53125 0.4375,1.09375 1.34375,1.71875 0.90625,0.625 2.32813,0.625 0.8125,0 1.5625,-0.15625 0.75,-0.17187 1.35937,-0.4375 v 0.96875 q -0.54687,0.25 -1.28125,0.40625 -0.71875,0.15625 -1.64062,0.15625 z m 12.66421,-3.17187 q 0,1.01562 -0.5,1.73437 -0.5,0.70313 -1.46875,1.07813 -0.96875,0.35937 -2.39062,0.35937 -1.17188,0 -2.10938,-0.20312 -0.92187,-0.20313 -1.54687,-0.51563 v -1.03125 q 0.78125,0.375 1.71875,0.625 0.95312,0.23438 1.95312,0.23438 1.75,0 2.51563,-0.59375 0.78125,-0.59375 0.78125,-1.625 0,-0.67188 -0.39063,-1.10938 -0.375,-0.45312 -1.07812,-0.76562 -0.70313,-0.32813 -1.70313,-0.67188 -1.04687,-0.34375 -1.85937,-0.6875 -0.79688,-0.35937 -1.26563,-0.9375 -0.45312,-0.57812 -0.45312,-1.57812 0,-1.35938 1.09375,-2.10938 1.09375,-0.76562 2.9375,-0.76562 1.01562,0 1.89062,0.1875 0.89063,0.1875 1.60938,0.5 l -0.375,0.89062 q -0.64063,-0.3125 -1.48438,-0.5 -0.84375,-0.1875 -1.6875,-0.1875 -1.39062,0 -2.17187,0.5 -0.78125,0.48438 -0.78125,1.4375 0,0.71875 0.375,1.14063 0.375,0.40625 1.0625,0.6875 0.70312,0.26562 1.67187,0.60937 0.98438,0.34375 1.8125,0.71875 0.84375,0.375 1.34375,0.96875 0.5,0.59375 0.5,1.60938 z"
       fill-rule="nonzero"
       id="path17" />
    <path
       fill="#8bd1f0"
       d="M 1.0971128e-4,-2.711811e-5 H 842.05938 V 64.278943 H 1.0971128e-4 Z"
       fill-rule="evenodd"
       id="path19" />
    <path
       fill="#ffffff"
       d="m 364.14005,22.785082 q 0,1.359375 -0.65625,2.359375 -0.65625,1 -1.92188,1.546875 -1.25,0.53125 -3.03125,0.53125 -0.79687,0 -1.5625,-0.109375 -0.75,-0.09375 -1.4375,-0.296875 -0.6875,-0.203125 -1.3125,-0.5 v -3 q 1.07813,0.46875 2.23438,0.859375 1.17187,0.390625 2.32812,0.390625 0.78125,0 1.26563,-0.203125 0.48437,-0.21875 0.70312,-0.578125 0.21875,-0.375 0.21875,-0.84375 0,-0.5625 -0.39062,-0.96875 -0.375,-0.40625 -1.04688,-0.765625 -0.67187,-0.359375 -1.51562,-0.765625 -0.53125,-0.25 -1.15625,-0.609375 -0.625,-0.359375 -1.1875,-0.875 -0.5625,-0.515625 -0.92188,-1.265625 -0.35937,-0.75 -0.35937,-1.78125 0,-1.359375 0.625,-2.328125 0.625,-0.96875 1.78125,-1.484375 1.17187,-0.515625 2.75,-0.515625 1.1875,0 2.26562,0.28125 1.07813,0.265625 2.25,0.78125 l -1.03125,2.515625 q -1.0625,-0.421875 -1.89062,-0.65625 -0.82813,-0.234375 -1.70313,-0.234375 -0.59375,0 -1.03125,0.1875 -0.42187,0.1875 -0.64062,0.546875 -0.21875,0.34375 -0.21875,0.796875 0,0.546875 0.3125,0.921875 0.32812,0.359375 0.96875,0.703125 0.64062,0.34375 1.59375,0.796875 1.17187,0.5625 2,1.15625 0.82812,0.59375 1.26562,1.40625 0.45313,0.8125 0.45313,2 z m 7.30963,-7.625 q 1.60938,0 2.78125,0.625 1.17188,0.609375 1.79688,1.796875 0.64062,1.171875 0.64062,2.859375 v 1.546875 h -7.51562 q 0.0625,1.34375 0.8125,2.109375 0.75,0.765625 2.09375,0.765625 1.125,0 2.04687,-0.21875 0.92188,-0.234375 1.90625,-0.703125 v 2.46875 q -0.85937,0.421875 -1.8125,0.609375 -0.9375,0.203125 -2.28125,0.203125 -1.75,0 -3.10937,-0.640625 -1.34375,-0.640625 -2.10938,-1.96875 -0.76562,-1.328125 -0.76562,-3.328125 0,-2.046875 0.6875,-3.40625 0.70312,-1.359375 1.9375,-2.03125 1.25,-0.6875 2.89062,-0.6875 z m 0.0156,2.25 q -0.92188,0 -1.53125,0.59375 -0.60938,0.59375 -0.70313,1.875 h 4.45313 q 0,-0.71875 -0.25,-1.265625 -0.25,-0.546875 -0.73438,-0.875 -0.48437,-0.328125 -1.23437,-0.328125 z m 14.2886,-2.25 q 0.23438,0 0.54688,0.03125 0.32812,0.01563 0.51562,0.0625 l -0.23437,2.96875 q -0.15625,-0.04687 -0.45313,-0.0625 -0.28125,-0.03125 -0.48437,-0.03125 -0.60938,0 -1.1875,0.15625 -0.57813,0.15625 -1.04688,0.5 -0.45312,0.34375 -0.71875,0.921875 -0.26562,0.5625 -0.26562,1.390625 v 5.921875 h -3.17188 V 15.378832 h 2.40625 l 0.46875,1.953125 h 0.15625 q 0.34375,-0.59375 0.85938,-1.078125 0.51562,-0.5 1.17187,-0.796875 0.65625,-0.296875 1.4375,-0.296875 z m 5.95075,11.859375 -4.4375,-11.640625 h 3.32812 l 2.25,6.625 q 0.1875,0.59375 0.29688,1.234375 0.10937,0.640625 0.14062,1.15625 h 0.0937 q 0.0312,-0.546875 0.14063,-1.171875 0.125,-0.625 0.32812,-1.21875 l 2.23438,-6.625 h 3.3125 l -4.42188,11.640625 z m 12.53869,-11.640625 v 11.640625 h -3.17187 V 15.378832 Z m -1.57812,-4.5625 q 0.70312,0 1.20312,0.328125 0.51563,0.328125 0.51563,1.21875 0,0.890625 -0.51563,1.234375 -0.5,0.328125 -1.20312,0.328125 -0.71875,0 -1.23438,-0.328125 -0.5,-0.34375 -0.5,-1.234375 0,-0.890625 0.5,-1.21875 0.51563,-0.328125 1.23438,-0.328125 z m 9.63385,16.40625 q -1.71875,0 -2.9375,-0.625 -1.21875,-0.625 -1.85938,-1.953125 -0.64062,-1.328125 -0.64062,-3.390625 0,-2.125 0.71875,-3.46875 0.73437,-1.359375 2.01562,-1.984375 1.29688,-0.640625 2.98438,-0.640625 1.21875,0 2.09375,0.234375 0.875,0.234375 1.53125,0.5625 l -0.9375,2.453125 q -0.75,-0.3125 -1.39063,-0.5 -0.64062,-0.1875 -1.29687,-0.1875 -0.82813,0 -1.39063,0.390625 -0.54687,0.390625 -0.8125,1.171875 -0.26562,0.78125 -0.26562,1.953125 0,1.15625 0.28125,1.921875 0.29687,0.75 0.84375,1.125 0.5625,0.375 1.34375,0.375 1,0 1.76562,-0.265625 0.76563,-0.265625 1.5,-0.75 v 2.71875 q -0.73437,0.453125 -1.53125,0.65625 -0.79687,0.203125 -2.01562,0.203125 z m 11.04419,-12.0625 q 1.60937,0 2.78125,0.625 1.17187,0.609375 1.79687,1.796875 0.64063,1.171875 0.64063,2.859375 v 1.546875 h -7.51563 q 0.0625,1.34375 0.8125,2.109375 0.75,0.765625 2.09375,0.765625 1.125,0 2.04688,-0.21875 0.92187,-0.234375 1.90625,-0.703125 v 2.46875 q -0.85938,0.421875 -1.8125,0.609375 -0.9375,0.203125 -2.28125,0.203125 -1.75,0 -3.10938,-0.640625 -1.34375,-0.640625 -2.10937,-1.96875 -0.76563,-1.328125 -0.76563,-3.328125 0,-2.046875 0.6875,-3.40625 0.70313,-1.359375 1.9375,-2.03125 1.25,-0.6875 2.89063,-0.6875 z m 0.0156,2.25 q -0.92187,0 -1.53125,0.59375 -0.60937,0.59375 -0.70312,1.875 h 4.45312 q 0,-0.71875 -0.25,-1.265625 -0.25,-0.546875 -0.73437,-0.875 -0.48438,-0.328125 -1.23438,-0.328125 z m 16.50079,9.609375 h -3.17187 V 10.816332 h 3.17187 z m 8.1026,-11.875 q 2.34375,0 3.59375,1.015625 1.25,1.015625 1.25,3.09375 v 7.765625 h -2.21875 l -0.60937,-1.578125 h -0.0937 q -0.5,0.625 -1.01563,1.015625 -0.51562,0.390625 -1.20312,0.578125 -0.67188,0.1875 -1.64063,0.1875 -1.03125,0 -1.85937,-0.390625 -0.8125,-0.390625 -1.28125,-1.203125 -0.46875,-0.828125 -0.46875,-2.09375 0,-1.84375 1.29687,-2.71875 1.3125,-0.890625 3.92188,-0.984375 l 2.01562,-0.0625 v -0.515625 q 0,-0.90625 -0.48437,-1.328125 -0.46875,-0.4375 -1.32813,-0.4375 -0.84375,0 -1.65625,0.25 -0.8125,0.234375 -1.625,0.59375 l -1.04687,-2.140625 q 0.92187,-0.484375 2.0625,-0.765625 1.15625,-0.28125 2.39062,-0.28125 z m 1.6875,6.484375 -1.23437,0.03125 q -1.53125,0.04687 -2.14063,0.5625 -0.59375,0.5 -0.59375,1.34375 0,0.71875 0.42188,1.03125 0.4375,0.3125 1.125,0.3125 1.01562,0 1.71875,-0.609375 0.70312,-0.609375 0.70312,-1.71875 z m 4.75727,-6.25 h 3.48437 l 2.1875,6.546875 q 0.10938,0.3125 0.17188,0.640625 0.0781,0.3125 0.125,0.65625 0.0625,0.34375 0.0937,0.71875 h 0.0625 q 0.0625,-0.5625 0.17187,-1.046875 0.10938,-0.484375 0.28125,-0.96875 l 2.15625,-6.546875 h 3.39063 l -4.92188,13.125 q -0.4375,1.21875 -1.15625,2.015625 -0.71875,0.8125 -1.65625,1.21875 -0.9375,0.406252 -2.04687,0.406252 -0.54688,0 -0.9375,-0.0625 -0.39063,-0.04687 -0.67188,-0.109377 v -2.53125 q 0.21875,0.0625 0.54688,0.09375 0.32812,0.04687 0.70312,0.04687 0.65625,0 1.14063,-0.28125 0.48437,-0.28125 0.79687,-0.765625 0.32813,-0.46875 0.51563,-1.03125 l 0.1875,-0.5625 z m 18.60119,-0.21875 q 1.60938,0 2.78125,0.625 1.17188,0.609375 1.79688,1.796875 0.64062,1.171875 0.64062,2.859375 v 1.546875 h -7.51562 q 0.0625,1.34375 0.8125,2.109375 0.75,0.765625 2.09375,0.765625 1.125,0 2.04687,-0.21875 0.92188,-0.234375 1.90625,-0.703125 v 2.46875 q -0.85937,0.421875 -1.8125,0.609375 -0.9375,0.203125 -2.28125,0.203125 -1.75,0 -3.10937,-0.640625 -1.34375,-0.640625 -2.10938,-1.96875 -0.76562,-1.328125 -0.76562,-3.328125 0,-2.046875 0.6875,-3.40625 0.70312,-1.359375 1.9375,-2.03125 1.25,-0.6875 2.89062,-0.6875 z m 0.0156,2.25 q -0.92188,0 -1.53125,0.59375 -0.60938,0.59375 -0.70313,1.875 h 4.45313 q 0,-0.71875 -0.25,-1.265625 -0.25,-0.546875 -0.73438,-0.875 -0.48437,-0.328125 -1.23437,-0.328125 z m 14.2886,-2.25 q 0.23438,0 0.54688,0.03125 0.32812,0.01563 0.51562,0.0625 l -0.23437,2.96875 q -0.15625,-0.04687 -0.45313,-0.0625 -0.28125,-0.03125 -0.48437,-0.03125 -0.60938,0 -1.1875,0.15625 -0.57813,0.15625 -1.04688,0.5 -0.45312,0.34375 -0.71875,0.921875 -0.26562,0.5625 -0.26562,1.390625 v 5.921875 h -3.17188 V 15.378832 h 2.40625 l 0.46875,1.953125 h 0.15625 q 0.34375,-0.59375 0.85938,-1.078125 0.51562,-0.5 1.17187,-0.796875 0.65625,-0.296875 1.4375,-0.296875 z"
       fill-rule="nonzero"
       id="path21" />
    <path
       fill="#ffffff"
       d="m 206.78049,52.619453 v -15.21875 h 1.78125 v 15.21875 z m 11.11313,-11.625 q 2.03125,0 3.0625,1 1.04687,0.984375 1.04687,3.1875 v 7.4375 h -1.70312 v -7.328125 q 0,-1.421875 -0.65625,-2.125 -0.65625,-0.71875 -2,-0.71875 -1.89063,0 -2.67188,1.078125 -0.76562,1.078125 -0.76562,3.109375 v 5.984375 h -1.71875 v -11.40625 h 1.39062 l 0.26563,1.640625 h 0.0937 q 0.35937,-0.609375 0.92187,-1.015625 0.5625,-0.40625 1.25,-0.625 0.70313,-0.21875 1.48438,-0.21875 z m 11.36139,10.421875 q 0.42187,0 0.85937,-0.07813 0.45313,-0.07813 0.73438,-0.171875 v 1.34375 q -0.29688,0.125 -0.84375,0.21875 -0.53125,0.09375 -1.03125,0.09375 -0.90625,0 -1.65625,-0.3125 -0.73438,-0.3125 -1.1875,-1.078125 -0.4375,-0.765625 -0.4375,-2.109375 v -6.765625 h -1.625 v -0.84375 l 1.64062,-0.671875 0.6875,-2.484375 h 1.04688 v 2.65625 h 3.34375 v 1.34375 h -3.34375 v 6.71875 q 0,1.078125 0.48437,1.609375 0.5,0.53125 1.32813,0.53125 z m 8.30543,-10.421875 q 1.45313,0 2.5,0.65625 1.04688,0.640625 1.59375,1.796875 0.54688,1.15625 0.54688,2.71875 v 1.0625 h -7.875 q 0.0312,2.015625 1,3.078125 0.96875,1.046875 2.71875,1.046875 1.09375,0 1.92187,-0.203125 0.82813,-0.203125 1.73438,-0.578125 v 1.515625 q -0.875,0.390625 -1.71875,0.5625 -0.84375,0.171875 -2,0.171875 -1.65625,0 -2.875,-0.671875 -1.21875,-0.671875 -1.90625,-1.96875 -0.67188,-1.296875 -0.67188,-3.1875 0,-1.84375 0.60938,-3.1875 0.625,-1.359375 1.75,-2.078125 1.14062,-0.734375 2.67187,-0.734375 z m -0.0156,1.421875 q -1.39063,0 -2.21875,0.90625 -0.8125,0.90625 -0.96875,2.53125 h 6.03125 q 0,-1.03125 -0.3125,-1.796875 -0.3125,-0.78125 -0.9375,-1.203125 -0.625,-0.4375 -1.59375,-0.4375 z m 12.78874,-1.421875 q 0.34375,0 0.71875,0.04687 0.375,0.03125 0.65625,0.09375 l -0.21875,1.59375 q -0.28125,-0.0625 -0.625,-0.109375 -0.34375,-0.04687 -0.64063,-0.04687 -0.6875,0 -1.29687,0.28125 -0.60938,0.28125 -1.07813,0.796875 -0.45312,0.515625 -0.71875,1.234375 -0.25,0.71875 -0.25,1.609375 v 6.125 h -1.73437 v -11.40625 h 1.4375 l 0.1875,2.09375 h 0.0625 q 0.35937,-0.640625 0.85937,-1.15625 0.5,-0.53125 1.15625,-0.84375 0.67188,-0.3125 1.48438,-0.3125 z m 8.93539,0 q 2.03125,0 3.0625,1 1.04688,0.984375 1.04688,3.1875 v 7.4375 h -1.70313 v -7.328125 q 0,-1.421875 -0.65625,-2.125 -0.65625,-0.71875 -2,-0.71875 -1.89062,0 -2.67187,1.078125 -0.76564,1.078125 -0.76564,3.109375 v 5.984375 h -1.71875 v -11.40625 h 1.39062 l 0.26563,1.640625 h 0.0937 q 0.35937,-0.609375 0.92189,-1.015625 0.5625,-0.40625 1.25,-0.625 0.70312,-0.21875 1.48437,-0.21875 z m 12.06452,0 q 1.45312,0 2.5,0.65625 1.04687,0.640625 1.59375,1.796875 0.54687,1.15625 0.54687,2.71875 v 1.0625 h -7.875 q 0.0312,2.015625 1,3.078125 0.96875,1.046875 2.71875,1.046875 1.09375,0 1.92188,-0.203125 0.82812,-0.203125 1.73437,-0.578125 v 1.515625 q -0.875,0.390625 -1.71875,0.5625 -0.84375,0.171875 -2,0.171875 -1.65625,0 -2.875,-0.671875 -1.21875,-0.671875 -1.90625,-1.96875 -0.67187,-1.296875 -0.67187,-3.1875 0,-1.84375 0.60937,-3.1875 0.625,-1.359375 1.75,-2.078125 1.14063,-0.734375 2.67188,-0.734375 z m -0.0156,1.421875 q -1.39062,0 -2.21875,0.90625 -0.8125,0.90625 -0.96875,2.53125 h 6.03125 q 0,-1.03125 -0.3125,-1.796875 -0.3125,-0.78125 -0.9375,-1.203125 -0.625,-0.4375 -1.59375,-0.4375 z m 11.28873,9 q 0.42187,0 0.85937,-0.07813 0.45313,-0.07813 0.73438,-0.171875 v 1.34375 q -0.29688,0.125 -0.84375,0.21875 -0.53125,0.09375 -1.03125,0.09375 -0.90625,0 -1.65625,-0.3125 -0.73438,-0.3125 -1.1875,-1.078125 -0.4375,-0.765625 -0.4375,-2.109375 v -6.765625 h -1.625 v -0.84375 l 1.64062,-0.671875 0.6875,-2.484375 h 1.04688 v 2.65625 h 3.34375 v 1.34375 h -3.34375 v 6.71875 q 0,1.078125 0.48437,1.609375 0.5,0.53125 1.32813,0.53125 z m 5.88358,-1.28125 0.14062,0.25 q -0.1875,0.75 -0.48437,1.625 -0.28125,0.859375 -0.625,1.71875 -0.32813,0.875 -0.67188,1.640625 h -1.29687 q 0.21875,-0.828125 0.42187,-1.75 0.21875,-0.921875 0.39063,-1.828125 0.17187,-0.90625 0.28125,-1.65625 z"
       fill-rule="nonzero"
       id="path23" />
    <path
       fill="#ffffff"
       d="m 302.51868,52.619453 h -1.78125 v -13.65625 h -4.79687 v -1.5625 h 11.34375 v 1.5625 h -4.76563 z m 17.70026,-15.21875 -5.46875,15.21875 h -1.78125 l -5.46875,-15.21875 h 1.85937 l 3.5625,10.015625 q 0.21875,0.609375 0.39063,1.171875 0.17187,0.546875 0.29687,1.0625 0.14063,0.5 0.25,0.984375 0.0937,-0.484375 0.23438,-1 0.14062,-0.515625 0.3125,-1.0625 0.17187,-0.5625 0.39062,-1.1875 l 3.54688,-9.984375 z m 3.79376,12.734375 0.14062,0.25 q -0.1875,0.75 -0.48437,1.625 -0.28125,0.859375 -0.625,1.71875 -0.32813,0.875 -0.67188,1.640625 h -1.29687 q 0.21875,-0.828125 0.42187,-1.75 0.21875,-0.921875 0.39063,-1.828125 0.17187,-0.90625 0.28125,-1.65625 z m 14.45044,-9.140625 q 2.14062,0 3.40625,1.46875 1.26562,1.46875 1.26562,4.421875 0,1.9375 -0.59375,3.265625 -0.57812,1.328125 -1.64062,2 -1.04688,0.671875 -2.48438,0.671875 -0.90625,0 -1.59375,-0.234375 -0.6875,-0.234375 -1.17187,-0.640625 -0.48438,-0.40625 -0.8125,-0.890625 h -0.125 q 0.0312,0.40625 0.0781,0.984375 0.0469,0.5625 0.0469,1 v 4.6875 h -1.73438 V 41.213203 h 1.42188 l 0.23437,1.671875 h 0.0781 q 0.32812,-0.515625 0.8125,-0.9375 0.48437,-0.4375 1.17187,-0.6875 0.6875,-0.265625 1.64063,-0.265625 z m -0.29688,1.453125 q -1.1875,0 -1.92187,0.46875 -0.71875,0.453125 -1.0625,1.375 -0.32813,0.90625 -0.34375,2.28125 v 0.328125 q 0,1.453125 0.3125,2.453125 0.32812,1 1.0625,1.515625 0.73437,0.515625 1.96875,0.515625 1.0625,0 1.76562,-0.5625 0.71875,-0.578125 1.0625,-1.59375 0.34375,-1.03125 0.34375,-2.375 0,-2.015625 -0.78125,-3.203125 -0.78125,-1.203125 -2.40625,-1.203125 z m 9.70514,-6.03125 v 4.84375 q 0,0.421875 -0.0156,0.84375 -0.0156,0.40625 -0.0781,0.765625 h 0.125 q 0.34375,-0.609375 0.89063,-1.015625 0.54687,-0.40625 1.25,-0.609375 0.70312,-0.21875 1.48437,-0.21875 1.375,0 2.29688,0.4375 0.92187,0.4375 1.375,1.359375 0.46875,0.90625 0.46875,2.359375 v 7.4375 h -1.70313 v -7.328125 q 0,-1.421875 -0.65625,-2.125 -0.65625,-0.71875 -2,-0.71875 -1.26562,0 -2.03125,0.484375 -0.75,0.484375 -1.07812,1.421875 -0.32813,0.9375 -0.32813,2.296875 v 5.96875 H 346.1527 V 36.416328 Z m 21.18952,10.46875 q 0,1.40625 -0.35938,2.515625 -0.35937,1.109375 -1.04687,1.875 -0.6875,0.75 -1.67188,1.15625 -0.96875,0.390625 -2.1875,0.390625 -1.15625,0 -2.10937,-0.390625 -0.95313,-0.40625 -1.64063,-1.15625 -0.6875,-0.765625 -1.07812,-1.875 -0.375,-1.109375 -0.375,-2.515625 0,-1.875 0.625,-3.1875 0.64062,-1.3125 1.82812,-2 1.1875,-0.703125 2.8125,-0.703125 1.5625,0 2.73438,0.703125 1.17187,0.6875 1.8125,2.015625 0.65625,1.3125 0.65625,3.171875 z m -8.67188,0 q 0,1.375 0.35938,2.390625 0.35937,1.015625 1.125,1.5625 0.76562,0.546875 1.95312,0.546875 1.1875,0 1.95313,-0.546875 0.76562,-0.546875 1.125,-1.5625 0.375,-1.015625 0.375,-2.390625 0,-1.359375 -0.375,-2.34375 -0.35938,-1 -1.125,-1.546875 -0.75,-0.546875 -1.95313,-0.546875 -1.78125,0 -2.60937,1.1875 -0.82813,1.171875 -0.82813,3.25 z m 17.0802,-5.890625 q 2.03125,0 3.0625,1 1.04688,0.984375 1.04688,3.1875 v 7.4375 h -1.70313 v -7.328125 q 0,-1.421875 -0.65625,-2.125 -0.65625,-0.71875 -2,-0.71875 -1.89062,0 -2.67187,1.078125 -0.76563,1.078125 -0.76563,3.109375 v 5.984375 h -1.71875 v -11.40625 h 1.39063 l 0.26562,1.640625 h 0.0937 q 0.35938,-0.609375 0.92188,-1.015625 0.5625,-0.40625 1.25,-0.625 0.70312,-0.21875 1.48437,-0.21875 z m 12.06451,0 q 1.45313,0 2.5,0.65625 1.04688,0.640625 1.59375,1.796875 0.54688,1.15625 0.54688,2.71875 v 1.0625 h -7.875 q 0.0312,2.015625 1,3.078125 0.96875,1.046875 2.71875,1.046875 1.09375,0 1.92187,-0.203125 0.82813,-0.203125 1.73438,-0.578125 v 1.515625 q -0.875,0.390625 -1.71875,0.5625 -0.84375,0.171875 -2,0.171875 -1.65625,0 -2.875,-0.671875 -1.21875,-0.671875 -1.90625,-1.96875 -0.67188,-1.296875 -0.67188,-3.1875 0,-1.84375 0.60938,-3.1875 0.625,-1.359375 1.75,-2.078125 1.14062,-0.734375 2.67187,-0.734375 z m -0.0156,1.421875 q -1.39063,0 -2.21875,0.90625 -0.8125,0.90625 -0.96875,2.53125 h 6.03125 q 0,-1.03125 -0.3125,-1.796875 -0.3125,-0.78125 -0.9375,-1.203125 -0.625,-0.4375 -1.59375,-0.4375 z m 9.57001,7.71875 0.14062,0.25 q -0.1875,0.75 -0.48437,1.625 -0.28125,0.859375 -0.625,1.71875 -0.32813,0.875 -0.67188,1.640625 h -1.29687 q 0.21875,-0.828125 0.42187,-1.75 0.21875,-0.921875 0.39063,-1.828125 0.17187,-0.90625 0.28125,-1.65625 z m 11.59106,2.484375 -4.32812,-11.40625 h 1.85937 l 2.5,6.890625 q 0.26563,0.71875 0.53125,1.578125 0.28125,0.84375 0.375,1.359375 h 0.0781 q 0.125,-0.515625 0.40625,-1.375 0.29687,-0.859375 0.54687,-1.5625 l 2.5,-6.890625 h 1.85938 l -4.34375,11.40625 z m 9.87238,-11.40625 v 11.40625 h -1.71875 v -11.40625 z m -0.84375,-4.28125 q 0.4375,0 0.73437,0.28125 0.3125,0.28125 0.3125,0.859375 0,0.578125 -0.3125,0.859375 -0.29687,0.28125 -0.73437,0.28125 -0.4375,0 -0.73438,-0.28125 -0.29687,-0.28125 -0.29687,-0.859375 0,-0.578125 0.29687,-0.859375 0.29688,-0.28125 0.73438,-0.28125 z m 8.57162,15.890625 q -2.17187,0 -3.4375,-1.46875 -1.26562,-1.484375 -1.26562,-4.40625 0,-2.9375 1.28125,-4.4375 1.29687,-1.515625 3.45312,-1.515625 0.90625,0 1.57813,0.25 0.67187,0.234375 1.15625,0.640625 0.5,0.390625 0.82812,0.90625 h 0.125 q -0.0312,-0.328125 -0.0781,-0.890625 -0.0469,-0.5625 -0.0469,-0.90625 v -4.578125 h 1.73438 v 16.203125 h -1.39063 l -0.26562,-1.625 h -0.0781 q -0.3125,0.515625 -0.8125,0.9375 -0.5,0.40625 -1.1875,0.65625 -0.67187,0.234375 -1.59375,0.234375 z m 0.26563,-1.4375 q 1.82812,0 2.59375,-1.03125 0.76562,-1.046875 0.76562,-3.09375 v -0.3125 q 0,-2.1875 -0.73437,-3.34375 -0.71875,-1.171875 -2.625,-1.171875 -1.59375,0 -2.39063,1.234375 -0.78125,1.21875 -0.78125,3.328125 0,2.109375 0.78125,3.25 0.78125,1.140625 2.39063,1.140625 z m 13.1114,-10.390625 q 1.45312,0 2.5,0.65625 1.04687,0.640625 1.59375,1.796875 0.54687,1.15625 0.54687,2.71875 v 1.0625 h -7.875 q 0.0312,2.015625 1,3.078125 0.96875,1.046875 2.71875,1.046875 1.09375,0 1.92188,-0.203125 0.82812,-0.203125 1.73437,-0.578125 v 1.515625 q -0.875,0.390625 -1.71875,0.5625 -0.84375,0.171875 -2,0.171875 -1.65625,0 -2.875,-0.671875 -1.21875,-0.671875 -1.90625,-1.96875 -0.67187,-1.296875 -0.67187,-3.1875 0,-1.84375 0.60937,-3.1875 0.625,-1.359375 1.75,-2.078125 1.14063,-0.734375 2.67188,-0.734375 z m -0.0156,1.421875 q -1.39062,0 -2.21875,0.90625 -0.8125,0.90625 -0.96875,2.53125 h 6.03125 q 0,-1.03125 -0.3125,-1.796875 -0.3125,-0.78125 -0.9375,-1.203125 -0.625,-0.4375 -1.59375,-0.4375 z m 17.42935,4.46875 q 0,1.40625 -0.35937,2.515625 -0.35938,1.109375 -1.04688,1.875 -0.6875,0.75 -1.67187,1.15625 -0.96875,0.390625 -2.1875,0.390625 -1.15625,0 -2.10938,-0.390625 -0.95312,-0.40625 -1.64062,-1.15625 -0.6875,-0.765625 -1.07813,-1.875 -0.375,-1.109375 -0.375,-2.515625 0,-1.875 0.625,-3.1875 0.64063,-1.3125 1.82813,-2 1.1875,-0.703125 2.8125,-0.703125 1.5625,0 2.73437,0.703125 1.17188,0.6875 1.8125,2.015625 0.65625,1.3125 0.65625,3.171875 z m -8.67187,0 q 0,1.375 0.35937,2.390625 0.35938,1.015625 1.125,1.5625 0.76563,0.546875 1.95313,0.546875 1.1875,0 1.95312,-0.546875 0.76563,-0.546875 1.125,-1.5625 0.375,-1.015625 0.375,-2.390625 0,-1.359375 -0.375,-2.34375 -0.35937,-1 -1.125,-1.546875 -0.75,-0.546875 -1.95312,-0.546875 -1.78125,0 -2.60938,1.1875 -0.82812,1.171875 -0.82812,3.25 z m 10.7052,0.78125 v -1.546875 h 5.15625 v 1.546875 z m 12.39416,5.15625 q -1.53125,0 -2.71875,-0.625 -1.17187,-0.640625 -1.82812,-1.9375 -0.65625,-1.3125 -0.65625,-3.28125 0,-2.078125 0.6875,-3.390625 0.70312,-1.328125 1.92187,-1.953125 1.21875,-0.640625 2.76563,-0.640625 0.85937,0 1.65625,0.171875 0.79687,0.171875 1.29687,0.4375 l -0.51562,1.4375 q -0.51563,-0.203125 -1.20313,-0.359375 -0.6875,-0.171875 -1.28125,-0.171875 -1.1875,0 -1.96875,0.515625 -0.78125,0.5 -1.17187,1.5 -0.39063,0.984375 -0.39063,2.421875 0,1.390625 0.375,2.375 0.375,0.96875 1.125,1.484375 0.76563,0.515625 1.90625,0.515625 0.90625,0 1.625,-0.1875 0.73438,-0.1875 1.32813,-0.453125 v 1.546875 q -0.57813,0.28125 -1.28125,0.4375 -0.70313,0.15625 -1.67188,0.15625 z m 15.48191,-5.9375 q 0,1.40625 -0.35938,2.515625 -0.35937,1.109375 -1.04687,1.875 -0.6875,0.75 -1.67188,1.15625 -0.96875,0.390625 -2.1875,0.390625 -1.15625,0 -2.10937,-0.390625 -0.95313,-0.40625 -1.64063,-1.15625 -0.6875,-0.765625 -1.07812,-1.875 -0.375,-1.109375 -0.375,-2.515625 0,-1.875 0.625,-3.1875 0.64062,-1.3125 1.82812,-2 1.1875,-0.703125 2.8125,-0.703125 1.5625,0 2.73438,0.703125 1.17187,0.6875 1.8125,2.015625 0.65625,1.3125 0.65625,3.171875 z m -8.67188,0 q 0,1.375 0.35938,2.390625 0.35937,1.015625 1.125,1.5625 0.76562,0.546875 1.95312,0.546875 1.1875,0 1.95313,-0.546875 0.76562,-0.546875 1.125,-1.5625 0.375,-1.015625 0.375,-2.390625 0,-1.359375 -0.375,-2.34375 -0.35938,-1 -1.125,-1.546875 -0.75,-0.546875 -1.95313,-0.546875 -1.78125,0 -2.60937,1.1875 -0.82813,1.171875 -0.82813,3.25 z m 17.0802,-5.890625 q 2.03125,0 3.0625,1 1.04688,0.984375 1.04688,3.1875 v 7.4375 h -1.70313 v -7.328125 q 0,-1.421875 -0.65625,-2.125 -0.65625,-0.71875 -2,-0.71875 -1.89062,0 -2.67187,1.078125 -0.76563,1.078125 -0.76563,3.109375 v 5.984375 h -1.71875 v -11.40625 h 1.39063 l 0.26562,1.640625 h 0.0937 q 0.35938,-0.609375 0.92188,-1.015625 0.5625,-0.40625 1.25,-0.625 0.70312,-0.21875 1.48437,-0.21875 z m 12.75201,1.5625 h -2.84375 v 10.0625 h -1.73437 v -10.0625 h -2.01563 v -0.828125 l 2.01563,-0.578125 v -0.75 q 0,-1.4375 0.42187,-2.34375 0.4375,-0.90625 1.25,-1.328125 0.8125,-0.421875 1.98438,-0.421875 0.65625,0 1.20312,0.109375 0.54688,0.109375 0.95313,0.265625 l -0.4375,1.359375 q -0.35938,-0.109375 -0.8125,-0.203125 -0.4375,-0.109375 -0.89063,-0.109375 -0.98437,0 -1.46875,0.640625 -0.46875,0.640625 -0.46875,2 v 0.84375 h 2.84375 z m 6.48786,-1.5625 q 1.45312,0 2.5,0.65625 1.04687,0.640625 1.59375,1.796875 0.54687,1.15625 0.54687,2.71875 v 1.0625 h -7.875 q 0.0312,2.015625 1,3.078125 0.96875,1.046875 2.71875,1.046875 1.09375,0 1.92188,-0.203125 0.82812,-0.203125 1.73437,-0.578125 v 1.515625 q -0.875,0.390625 -1.71875,0.5625 -0.84375,0.171875 -2,0.171875 -1.65625,0 -2.875,-0.671875 -1.21875,-0.671875 -1.90625,-1.96875 -0.6719,-1.296875 -0.6719,-3.1875 0,-1.84375 0.6094,-3.1875 0.625,-1.359375 1.75,-2.078125 1.14063,-0.734375 2.67188,-0.734375 z m -0.0156,1.421875 q -1.39062,0 -2.21875,0.90625 -0.8125,0.90625 -0.96875,2.53125 h 6.03125 q 0,-1.03125 -0.3125,-1.796875 -0.3125,-0.78125 -0.9375,-1.203125 -0.625,-0.4375 -1.59375,-0.4375 z m 12.7887,-1.421875 q 0.34375,0 0.71875,0.04687 0.375,0.03125 0.65625,0.09375 l -0.21875,1.59375 q -0.28125,-0.0625 -0.625,-0.109375 -0.34375,-0.04687 -0.64063,-0.04687 -0.6875,0 -1.29687,0.28125 -0.60938,0.28125 -1.07813,0.796875 -0.45312,0.515625 -0.71875,1.234375 -0.25,0.71875 -0.25,1.609375 v 6.125 h -1.73437 v -11.40625 h 1.4375 l 0.1875,2.09375 h 0.0625 q 0.35937,-0.640625 0.85937,-1.15625 0.5,-0.53125 1.15625,-0.84375 0.67188,-0.3125 1.48438,-0.3125 z m 7.9198,0 q 1.45312,0 2.5,0.65625 1.04687,0.640625 1.59375,1.796875 0.54687,1.15625 0.54687,2.71875 v 1.0625 h -7.875 q 0.0312,2.015625 1,3.078125 0.96875,1.046875 2.71875,1.046875 1.09375,0 1.92188,-0.203125 0.82812,-0.203125 1.73437,-0.578125 v 1.515625 q -0.875,0.390625 -1.71875,0.5625 -0.84375,0.171875 -2,0.171875 -1.65625,0 -2.875,-0.671875 -1.21875,-0.671875 -1.90625,-1.96875 -0.67187,-1.296875 -0.67187,-3.1875 0,-1.84375 0.60937,-3.1875 0.625,-1.359375 1.75,-2.078125 1.14063,-0.734375 2.67188,-0.734375 z m -0.0156,1.421875 q -1.39062,0 -2.21875,0.90625 -0.8125,0.90625 -0.96875,2.53125 h 6.03125 q 0,-1.03125 -0.3125,-1.796875 -0.3125,-0.78125 -0.9375,-1.203125 -0.625,-0.4375 -1.59375,-0.4375 z m 13.00745,-1.421875 q 2.03125,0 3.0625,1 1.04688,0.984375 1.04688,3.1875 v 7.4375 h -1.70313 v -7.328125 q 0,-1.421875 -0.65625,-2.125 -0.65625,-0.71875 -2,-0.71875 -1.89062,0 -2.67187,1.078125 -0.76563,1.078125 -0.76563,3.109375 v 5.984375 h -1.71875 v -11.40625 h 1.39063 l 0.26562,1.640625 h 0.0937 q 0.35938,-0.609375 0.92188,-1.015625 0.5625,-0.40625 1.25,-0.625 0.70312,-0.21875 1.48437,-0.21875 z m 12.23639,11.828125 q -1.53125,0 -2.71875,-0.625 -1.17188,-0.640625 -1.82813,-1.9375 -0.65625,-1.3125 -0.65625,-3.28125 0,-2.078125 0.6875,-3.390625 0.70313,-1.328125 1.92188,-1.953125 1.21875,-0.640625 2.76562,-0.640625 0.85938,0 1.65625,0.171875 0.79688,0.171875 1.29688,0.4375 l -0.51563,1.4375 q -0.51562,-0.203125 -1.20312,-0.359375 -0.6875,-0.171875 -1.28125,-0.171875 -1.1875,0 -1.96875,0.515625 -0.78125,0.5 -1.17188,1.5 -0.39062,0.984375 -0.39062,2.421875 0,1.390625 0.375,2.375 0.375,0.96875 1.125,1.484375 0.76562,0.515625 1.90625,0.515625 0.90625,0 1.625,-0.1875 0.73437,-0.1875 1.32812,-0.453125 v 1.546875 q -0.57812,0.28125 -1.28125,0.4375 -0.70312,0.15625 -1.67187,0.15625 z m 7.3725,-11.609375 v 11.40625 h -1.71875 v -11.40625 z m -0.84375,-4.28125 q 0.4375,0 0.73437,0.28125 0.3125,0.28125 0.3125,0.859375 0,0.578125 -0.3125,0.859375 -0.29687,0.28125 -0.73437,0.28125 -0.4375,0 -0.73438,-0.28125 -0.29687,-0.28125 -0.29687,-0.859375 0,-0.578125 0.29687,-0.859375 0.29688,-0.28125 0.73438,-0.28125 z m 9.91534,4.0625 q 2.03125,0 3.0625,1 1.04688,0.984375 1.04688,3.1875 v 7.4375 h -1.70313 v -7.328125 q 0,-1.421875 -0.65625,-2.125 -0.65625,-0.71875 -2,-0.71875 -1.89062,0 -2.67187,1.078125 -0.76563,1.078125 -0.76563,3.109375 v 5.984375 h -1.71875 v -11.40625 h 1.39063 l 0.26562,1.640625 h 0.0937 q 0.35938,-0.609375 0.92188,-1.015625 0.5625,-0.40625 1.25,-0.625 0.70312,-0.21875 1.48437,-0.21875 z m 10.86139,16.75 q -2.25,0 -3.46875,-0.84375 -1.21875,-0.828125 -1.21875,-2.34375 0,-1.078125 0.67188,-1.84375 0.6875,-0.75 1.89062,-1 -0.4375,-0.203125 -0.76562,-0.625 -0.3125,-0.421875 -0.3125,-0.953125 0,-0.625 0.34375,-1.09375 0.35937,-0.484375 1.07812,-0.921875 -0.90625,-0.359375 -1.46875,-1.234375 -0.54687,-0.875 -0.54687,-2.03125 0,-1.21875 0.5,-2.078125 0.51562,-0.875 1.48437,-1.328125 0.96875,-0.46875 2.34375,-0.46875 0.3125,0 0.60938,0.03125 0.3125,0.01563 0.59375,0.0625 0.28125,0.04687 0.48437,0.109375 h 3.92188 v 1.109375 l -2.10938,0.265625 q 0.3125,0.40625 0.51563,0.984375 0.21875,0.5625 0.21875,1.265625 0,1.703125 -1.15625,2.71875 -1.15625,1 -3.17188,1 -0.48437,0 -0.98437,-0.07813 -0.51563,0.28125 -0.78125,0.625 -0.26563,0.34375 -0.26563,0.78125 0,0.34375 0.20313,0.546875 0.20312,0.1875 0.59375,0.28125 0.39062,0.07813 0.92187,0.07813 h 2.01563 q 1.85937,0 2.84375,0.78125 1,0.78125 1,2.28125 0,1.90625 -1.54688,2.90625 -1.53125,1.015625 -4.4375,1.015625 z m 0.0469,-1.359375 q 1.42187,0 2.34375,-0.28125 0.9375,-0.28125 1.39062,-0.828125 0.46875,-0.53125 0.46875,-1.265625 0,-0.6875 -0.3125,-1.046875 -0.3125,-0.34375 -0.92187,-0.453125 -0.59375,-0.125 -1.46875,-0.125 h -1.98438 q -0.76562,0 -1.34375,0.234375 -0.5625,0.234375 -0.875,0.703125 -0.3125,0.46875 -0.3125,1.171875 0,0.921875 0.78125,1.40625 0.78125,0.484375 2.23438,0.484375 z m 0.45312,-9.125 q 1.23438,0 1.85938,-0.625 0.625,-0.625 0.625,-1.8125 0,-1.28125 -0.64063,-1.921875 -0.625,-0.640625 -1.875,-0.640625 -1.1875,0 -1.82812,0.65625 -0.64063,0.65625 -0.64063,1.9375 0,1.15625 0.64063,1.78125 0.65625,0.625 1.85937,0.625 z m 17.82398,-6.265625 q 1.45312,0 2.5,0.65625 1.04687,0.640625 1.59375,1.796875 0.54687,1.15625 0.54687,2.71875 v 1.0625 h -7.875 q 0.0312,2.015625 1,3.078125 0.96875,1.046875 2.71875,1.046875 1.09375,0 1.92188,-0.203125 0.82812,-0.203125 1.73437,-0.578125 v 1.515625 q -0.875,0.390625 -1.71875,0.5625 -0.84375,0.171875 -2,0.171875 -1.65625,0 -2.875,-0.671875 -1.21875,-0.671875 -1.90625,-1.96875 -0.67187,-1.296875 -0.67187,-3.1875 0,-1.84375 0.60937,-3.1875 0.625,-1.359375 1.75,-2.078125 1.14063,-0.734375 2.67188,-0.734375 z m -0.0156,1.421875 q -1.39062,0 -2.21875,0.90625 -0.8125,0.90625 -0.96875,2.53125 h 6.03125 q 0,-1.03125 -0.3125,-1.796875 -0.3125,-0.78125 -0.9375,-1.203125 -0.625,-0.4375 -1.59375,-0.4375 z m 11.2887,9 q 0.42187,0 0.85937,-0.07813 0.45313,-0.07813 0.73438,-0.171875 v 1.34375 q -0.29688,0.125 -0.84375,0.21875 -0.53125,0.09375 -1.03125,0.09375 -0.90625,0 -1.65625,-0.3125 -0.73438,-0.3125 -1.1875,-1.078125 -0.4375,-0.765625 -0.4375,-2.109375 v -6.765625 h -1.625 v -0.84375 l 1.64062,-0.671875 0.6875,-2.484375 h 1.04688 v 2.65625 h 3.34375 v 1.34375 h -3.34375 v 6.71875 q 0,1.078125 0.48437,1.609375 0.5,0.53125 1.32813,0.53125 z m 8.47729,1.40625 q -1.53125,0 -2.71875,-0.625 -1.17187,-0.640625 -1.82812,-1.9375 -0.65625,-1.3125 -0.65625,-3.28125 0,-2.078125 0.6875,-3.390625 0.70312,-1.328125 1.92187,-1.953125 1.21875,-0.640625 2.76563,-0.640625 0.85937,0 1.65625,0.171875 0.79687,0.171875 1.29687,0.4375 l -0.51562,1.4375 q -0.51563,-0.203125 -1.20313,-0.359375 -0.6875,-0.171875 -1.28125,-0.171875 -1.1875,0 -1.96875,0.515625 -0.78125,0.5 -1.17187,1.5 -0.39063,0.984375 -0.39063,2.421875 0,1.390625 0.375,2.375 0.375,0.96875 1.125,1.484375 0.76563,0.515625 1.90625,0.515625 0.90625,0 1.625,-0.1875 0.73438,-0.1875 1.32813,-0.453125 v 1.546875 q -0.57813,0.28125 -1.28125,0.4375 -0.70313,0.15625 -1.67188,0.15625 z m 5.38812,-1.28125 q 0,-0.734375 0.34375,-1.03125 0.35938,-0.3125 0.875,-0.3125 0.53125,0 0.89063,0.3125 0.375,0.296875 0.375,1.03125 0,0.71875 -0.375,1.046875 -0.35938,0.328125 -0.89063,0.328125 -0.51562,0 -0.875,-0.328125 -0.34375,-0.328125 -0.34375,-1.046875 z"
       fill-rule="nonzero"
       id="path25" />
  </g>
</svg>
